{
.appVersion = "3134";
.formatVersion = 3;
axes = (
{
name = Weight;
tag = wght;
}
);
customParameters = (
{
name = fsType;
value = (
);
},
{
name = "Use Typo Metrics";
value = 1;
}
);
date = "2023-03-07 19:41:45 +0000";
familyName = "Pitagon Sans";
featurePrefixes = (
{
automatic = 1;
code = "languagesystem DFLT dflt;
languagesystem latn dflt;
languagesystem latn ROM;
languagesystem latn CRT;
languagesystem latn MOL;
languagesystem latn TAT;
languagesystem latn KAZ;
languagesystem latn CAT;
languagesystem latn AZE;
languagesystem latn TRK;
";
name = Languagesystems;
}
);
features = (
{
automatic = 1;
code = "feature ccmp;
feature locl;
feature numr;
feature dnom;
feature frac;
feature ordn;
feature case;
feature zero;
";
tag = aalt;
},
{
automatic = 1;
code = "lookup ccmp_latn_1 {
	script latn;
	lookupflag 0;
	sub brevecomb acutecomb by brevecomb_acutecomb;
	sub brevecomb gravecomb by brevecomb_gravecomb;
	sub brevecomb tildecomb by brevecomb_tildecomb;
	sub circumflexcomb acutecomb by circumflexcomb_acutecomb;
	sub circumflexcomb gravecomb by circumflexcomb_gravecomb;
	sub circumflexcomb tildecomb by circumflexcomb_tildecomb;
} ccmp_latn_1;
";
tag = ccmp;
},
{
automatic = 1;
code = "script latn;
language ROM;
sub Scedilla by Scommaaccent;
sub scedilla by scommaaccent;
language CRT;
sub i by idotaccent;
language MOL;
sub Scedilla by Scommaaccent;
sub scedilla by scommaaccent;
language TAT;
sub i by idotaccent;
language KAZ;
sub i by idotaccent;
language CAT;
sub l periodcentered' l by periodcentered.loclCAT;
sub L periodcentered' L by periodcentered.loclCAT.case;
language AZE;
sub i by idotaccent;
language TRK;
sub i by idotaccent;
";
tag = locl;
},
{
automatic = 1;
code = "sub zero by zero.numr;
sub one by one.numr;
sub two by two.numr;
sub three by three.numr;
sub four by four.numr;
sub five by five.numr;
sub six by six.numr;
sub seven by seven.numr;
sub eight by eight.numr;
sub nine by nine.numr;
";
tag = numr;
},
{
automatic = 1;

glyphs = (
{
glyphname = A;
kernLeft = A;
kernRight = A;
lastChange = "2016-09-02 16:33:00 +0000";
layers = (
{
anchors = (
{
name = bottom;
pos = (323,0);
},
{
name = ogonek;
pos = (643,10);
},
{
name = top;
pos = (323,667);
}
);
layerId = UUID0;
shapes = (
{
closed = 1;
nodes = (
(98,0,l),
(330,602,l),
(315,600,l),
(546,0,l),
(623,0,l),
(358,667,l),
(286,667,l),
(20,0,l)
);
},
{
closed = 1;
nodes = (
(500,208,l),
(495,277,l),
(168,277,l),
(137,208,l)
);
}
);
width = 643;
},
{
anchors = (
{
name = bottom;
pos = (356,0);
},
{
name = ogonek;
pos = (716,10);
},
{
name = top;
pos = (356,667);
}
);
layerId = "ECACF70C-BE42-4FA5-B3A0-AFDA71FB1D31";
shapes = (
{
closed = 1;
nodes = (
(195,0,l),
(398,651,l),
(292,642,l),
(497,0,l),
(702,0,l),
(478,667,l),
(256,667,l),
(10,0,l)
);
},
{
closed = 1;
nodes = (
(509,117,l),
(490,257,l),
(197,257,l),
(163,117,l)
);
}
);
width = 712;
}
);
unicode = 65;
},
{
glyphname = AE;
lastChange = "2016-09-02 17:50:54 +0000";
layers = (
{
anchors = (
{
name = bottom;
pos = (479,0);
},
{
name = top;
pos = (676,667);
}
);
layerId = UUID0;
shapes = (
{
closed = 1;
nodes = (
(473,0,l),
(882,0,l),
(882,69,l),
(545,69,l),
(545,298,l),
(841,298,l),
(841,368,l),
(545,368,l),
(545,598,l),
(882,598,l),
(882,667,l),
(476,667,l),
(20,0,l),
(103,0,l),
(544,651,l),
(473,651,l)
);
},
{
closed = 1;
nodes = (
(497,281,l),
(229,281,l),
(171,209,l),
(493,209,l)
);
}
);
width = 957;
},
{
anchors = (
{
name = bottom;
pos = (527,0);
},
{
name = top;
pos = (743,667);
}
);
background = {
shapes = (
{
closed = 1;
nodes = (
(1007,0,l),
(1007,150,l),
(734,150,l),
(734,259,l),
(968,259,l),
(968,409,l),
(735,409,l),
(735,517,l),
(1007,517,l),
(1007,667,l),
(534,667,l),
(534,0,l)
);
}
);
};
layerId = "ECACF70C-BE42-4FA5-B3A0-AFDA71FB1D31";
shapes = (
{
closed = 1;
nodes = (
(534,0,l),
(999,0,l),
(999,151,l),
(734,151,l),
(734,263,l),
(960,263,l),
(960,414,l),
(734,414,l),
(734,517,l),
(999,517,l),
(999,667,l),
(479,667,l),
(10,0,l),
(233,0,l),
(608,592,l),
(534,608,l)
);
},
{
closed = 1;
nodes = (
(631,256,l),
(254,256,l),
(205,120,l),
(616,120,l)
);
}
);
width = 1059;
}
);
metricLeft = A;
metricRight = E;
unicode = 198;
},
{
glyphname = B;
kernLeft = B;
lastChange = "2016-08-15 13:46:18 +0000";
layers = (
{
background = {
shapes = (
{
closed = 1;
nodes = (
(326,0,ls),
(476,0,o),
(568,56,o),
(568,189,cs),
(568,322,o),
(457,355,o),
(457,355,cs),
(457,355,o),
(528,391,o),
(528,488,cs),
(528,585,o),
(479,667,o),
(306,667,cs),
(85,667,l),
(85,0,l)
);
},
{
closed = 1;
nodes = (
(157,310,l),
(329,310,ls),
(407,310,o),
(496,300,o),
(496,193,cs),
(496,86,o),
(418,67,o),
(332,67,cs),
(157,67,l)
);
},
{
closed = 1;
nodes = (
(157,598,l),
(313,598,ls),
(402,598,o),
(456,574,o),
(456,483,cs),
(456,389,o),
(387,378,o),
(322,378,cs),
(157,378,l)
);
}
);
};
layerId = UUID0;
shapes = (
{
closed = 1;
nodes = (
(326,0,ls),
(476,0,o),
(568,56,o),
(568,189,cs),
(568,296,o),
(492,344,o),
(440,363,c),
(448,350,l),
(481,382,o),
(528,402,o),
(528,488,cs),
(528,585,o),
(479,667,o),
(306,667,cs),
(85,667,l),
(85,0,l)
);
},
{
closed = 1;
nodes = (
(157,310,l),
(329,310,ls),
(407,310,o),
(496,300,o),
(496,193,cs),
(496,86,o),
(418,67,o),
(332,67,cs),
(157,67,l)
);
},
{
closed = 1;
nodes = (
(157,598,l),
(313,598,ls),
(402,598,o),
(456,574,o),
(456,483,cs),
(456,389,o),
(387,378,o),
(322,378,cs),
(157,378,l)
);
}
);
width = 628;
},
{
background = {
shapes = (
{
closed = 1;
nodes = (
(351,0,ls),
(461,0,o),
(628,21,o),
(628,184,cs),
(628,271,o),
(586,321,o),
(505,348,cs),
(502,349,o),
(498,350,o),
(494,351,c),
(526,362,o),
(595,388,o),
(595,480,cs),
(595,648,o),
(434,667,o),
(331,667,cs),
(65,667,l),
(65,0,l)
);
},
{
closed = 1;
nodes = (
(277,285,l),
(372,285,ls),
(407,285,o),
(461,269,o),
(461,214,cs),
(461,161,o),
(418,140,o),
(375,141,cs),
(277,141,l)
);
},
{
closed = 1;
nodes = (
(277,527,l),
(355,527,ls),
(386,527,o),
(428,512,o),
(428,462,cs),
(428,425,o),
(393,406,o),
(365,406,cs),
(277,406,l)
);
}
);
};
layerId = "ECACF70C-BE42-4FA5-B3A0-AFDA71FB1D31";
shapes = (
{
closed = 1;
nodes = (
(404,0,l),
(534,0,o),
(654,64,o),
(654,207,c),
(654,307,o),
(577,372,o),
(444,372,c),
(467,327,l),
(529,342,o),
(622,388,o),
(622,480,c),
(622,628,o),
(507,667,o),
(374,667,c),
(65,667,l),
(65,0,l)
);
},
{
closed = 1;
nodes = (
(266,276,l),
(382,276,l),
(419,276,o),
(447,256,o),
(447,214,c),
(447,171,o),
(418,149,o),
(385,150,c),
(266,150,l)
);
},
{
closed = 1;
nodes = (
(265,517,l),
(370,517,l),
(393,517,o),
(418,502,o),
(418,463,c),
(418,437,o),
(399,416,o),
(380,416,c),
(265,416,l)
);
}
);
width = 689;
}
);
metricLeft = H;
metricRight = O;
unicode = 66;
},
{
glyphname = C;
kernLeft = C;
kernRight = C;
lastChange = "2016-09-02 14:53:32 +0000";
layers = (
{
anchors = (
{
name = bottom;
pos = (314,0);
},
{
name = top;
pos = (346,667);
}
);
layerId = UUID0;
shapes = (
{
closed = 1;
nodes = (
(434,-8,o),
(503,10,o),
(567,40,c),
(567,109,l),
(505,75,o),
(440,60,o),
(372,60,cs),
(203,60,o),
(130,144,o),
(130,334,cs),
(130,523,o),
(203,608,o),
(372,608,cs),
(440,608,o),
(505,591,o),
(567,558,c),
(567,627,l),
(503,658,o),
(435,676,o),
(364,676,cs),
(159,676,o),
(55,561,o),
(55,334,cs),
(55,107,o),
(159,-8,o),
(364,-8,cs)
);
}
);
width = 622;
},
{
anchors = (
{
name = bottom;
pos = (317,0);
},
{
name = top;
pos = (355,697);
}
);
layerId = "ECACF70C-BE42-4FA5-B3A0-AFDA71FB1D31";
shapes = (
{
closed = 1;
nodes = (
(438,-15,o),
(531,4,o),
(583,32,c),
(583,203,l),
(510,154,o),
(446,135,o),
(405,135,c),
(299,135,o),
(237,178,o),
(237,332,c),
(237,489,o),
(299,534,o),
(395,534,c),
(446,534,o),
(510,515,o),
(583,464,c),
(583,635,l),
(513,665,o),
(438,684,o),
(367,684,c),
(137,684,o),
(30,564,o),
(30,333,c),
(30,92,o),
(149,-15,o),
(367,-15,cs)
);
}
);
width = 633;
}
);
metricLeft = o;
unicode = 67;
},
{
glyphname = D;
kernLeft = B;
kernRight = D;
lastChange = "2016-08-18 15:34:38 +0000";
layers = (
{
anchors = (
{
name = bottom;
pos = (333,0);
},
{
name = center;
pos = (129,334);
},
{
name = top;
pos = (273,667);
}
);
layerId = UUID0;
shapes = (
{
closed = 1;
nodes = (
(294,0,ls),
(502,0,o),
(607,112,o),
(607,334,cs),
(607,555,o),
(502,667,o),
(294,667,cs),
(85,667,l),
(85,0,l)
);
},
{
closed = 1;
nodes = (
(157,600,l),
(289,600,ls),
(459,600,o),
(533,518,o),
(533,334,cs),
(533,150,o),
(459,68,o),
(289,68,cs),
(157,68,l)
);
}
);
width = 667;
},
{
anchors = (
{
name = bottom;
pos = (370,0);
},
{
name = center;
pos = (167,334);
},
{
name = top;
pos = (330,667);
}
);
layerId = "ECACF70C-BE42-4FA5-B3A0-AFDA71FB1D31";
shapes = (
{
closed = 1;
nodes = (
(358,0,l),
(593,0,o),
(695,116,o),
(695,333,c),
(695,552,o),
(593,667,o),
(358,667,c),
(65,667,l),
(65,0,l)
);
},
{
closed = 1;
nodes = (
(265,517,l),
(333,517,l),
(431,517,o),
(490,462,o),
(490,333,c),
(490,205,o),
(431,150,o),
(333,150,c),
(265,150,l)
);
}
);
width = 730;
}
);
metricLeft = H;
metricRight = O;
unicode = 68;
},
{
glyphname = E;
kernLeft = B;
kernRight = E;
lastChange = "2016-08-31 15:02:37 +0000";
layers = (
{
anchors = (
{
name = bottom;
pos = (281,0);
},
{
name = ogonek;
pos = (527,10);
},
{
name = top;
pos = (307,667);
},
{
name = topleft;
pos = (18,667);
}
);
layerId = UUID0;
shapes = (
{
closed = 1;
nodes = (
(506,0,l),
(506,68,l),
(157,68,l),
(157,299,l),
(464,299,l),
(464,369,l),
(157,369,l),
(157,599,l),
(506,599,l),
(506,667,l),
(85,667,l),
(85,0,l)
);
}
);
width = 581;
},
{
anchors = (
{
name = bottom;
pos = (302,0);
},
{
name = ogonek;
pos = (539,10);
},
{
name = top;
pos = (302,667);
},
{
name = topleft;
pos = (25,667);
}
);
layerId = "ECACF70C-BE42-4FA5-B3A0-AFDA71FB1D31";
shapes = (
{
closed = 1;
nodes = (
(538,0,l),
(538,150,l),
(265,150,l),
(265,259,l),
(499,259,l),
(499,409,l),
(266,409,l),
(266,517,l),
(538,517,l),
(538,667,l),
(65,667,l),
(65,0,l)
);
}
);
width = 598;
}
);
metricLeft = H;
unicode = 69;
},
{
glyphname = Schwa;
lastChange = "2016-08-17 19:08:54 +0000";
layers = (
{
layerId = UUID0;
shapes = (
{
closed = 1;
nodes = (
(245,672,o),
(155,645,o),
(91,610,c),
(91,536,l),
(142,569,o),
(237,606,o),
(342,606,c),
(493,606,o),
(584,517,o),
(584,340,c),
(584,116,o),
(513,55,o),
(358,55,c),
(208,55,o),
(139,128,o),
(135,284,c),
(107,274,l),
(616,274,l),
(621,340,l),
(60,340,l),
(58,139,o),
(142,-11,o),
(358,-11,c),
(542,-11,o),
(657,99,o),
(657,327,c),
(657,559,o),
(537,672,o),
(346,672,c)
);
}
);
width = 717;
},
{
layerId = "ECACF70C-BE42-4FA5-B3A0-AFDA71FB1D31";
shapes = (
{
closed = 1;
nodes = (
(239,685,o),
(158,670,o),
(87,642,c),
(87,481,l),
(133,500,o),
(224,526,o),
(305,526,c),
(443,526,o),
(507,458,o),
(507,291,c),
(507,161,o),
(424,119,o),
(365,119,c),
(271,119,o),
(228,156,o),
(226,311,c),
(191,249,l),
(608,249,l),
(584,366,l),
(35,366,l),
(34,112,o),
(131,-25,o),
(356,-25,c),
(583,-25,o),
(713,106,o),
(713,316,c),
(713,543,o),
(567,685,o),
(354,685,c)
);
}
);
width = 748;
}
);
metricLeft = O;
metricRight = O;
unicode = 399;
},
{
glyphname = F;
kernLeft = B;
lastChange = "2016-08-30 23:57:29 +0000";
layers = (
{
anchors = (
{
name = center;
pos = (124,138);
}
);
layerId = UUID0;
shapes = (
{
closed = 1;
nodes = (
(157,0,l),
(157,299,l),
(453,299,l),
(453,369,l),
(157,369,l),
(157,599,l),
(494,599,l),
(494,667,l),
(85,667,l),
(85,0,l)
);
}
);
width = 539;
},
{
anchors = (
{
name = center;
pos = (167,131);
}
);
layerId = "ECACF70C-BE42-4FA5-B3A0-AFDA71FB1D31";
shapes = (
{
closed = 1;
nodes = (
(265,0,l),
(265,238,l),
(499,238,l),
(499,389,l),
(265,389,l),
(265,517,l),
(538,517,l),
(538,667,l),
(65,667,l),
(65,0,l)
);
}
);
width = 583;
}
);
metricLeft = H;
unicode = 70;
},
{
glyphname = G;
kernLeft = C;
kernRight = G;
lastChange = "2016-09-02 13:12:13 +0000";
layers = (
{
anchors = (
{
name = bottom;
pos = (331,0);
},
{
name = top;
pos = (364,667);
}
);
layerId = UUID0;
shapes = (
{
closed = 1;
nodes = (
(451,-10,o),
(529,7,o),
(602,42,c),
(602,343,l),
(369,343,l),
(369,273,l),
(530,273,l),
(530,83,l),
(481,67,o),
(430,59,o),
(377,59,cs),
(208,59,o),
(132,145,o),
(132,334,cs),
(132,522,o),
(208,608,o),
(377,608,cs),
(448,608,o),
(516,584,o),
(579,556,c),
(579,631,l),
(513,662,o),
(442,676,o),
(369,676,cs),
(164,676,o),
(60,561,o),
(60,334,cs),
(60,107,o),
(164,-10,o),
(369,-10,cs)
);
}
);
width = 687;
},
{
anchors = (
{
name = bottom;
pos = (322,0);
},
{
name = top;
pos = (374,687);
}
);
layerId = "ECACF70C-BE42-4FA5-B3A0-AFDA71FB1D31";
shapes = (
{
closed = 1;
nodes = (
(465,-15,o),
(562,14,o),
(649,65,c),
(649,384,l),
(360,384,l),
(360,234,l),
(449,234,l),
(449,147,l),
(436,138,o),
(411,134,o),
(382,134,c),
(307,134,o),
(240,178,o),
(240,334,c),
(240,493,o),
(301,533,o),
(393,533,c),
(467,533,o),
(530,504,o),
(618,456,c),
(618,634,l),
(540,665,o),
(456,684,o),
(367,684,c),
(174,684,o),
(35,583,o),
(35,333,c),
(35,76,o),
(174,-15,o),
(368,-15,c)
);
}
);
width = 714;
}
);
metricLeft = O;
metricRight = H;
unicode = 71;
},
{
glyphname = H;
kernLeft = B;
kernRight = H;
lastChange = "2016-08-30 23:41:36 +0000";
layers = (
{
anchors = (
{
name = bottom;
pos = (335,0);
},
{
name = center;
pos = (335,525);
},
{
name = top;
pos = (335,667);
},
{
name = topleft;
pos = (18,667);
}
);
layerId = UUID0;
shapes = (
{
closed = 1;
nodes = (
(157,0,l),
(157,299,l),
(512,299,l),
(512,0,l),
(584,0,l),
(584,667,l),
(512,667,l),
(512,367,l),
(157,367,l),
(157,667,l),
(85,667,l),
(85,0,l)
);
}
);
width = 669;
},
{
anchors = (
{
name = bottom;
pos = (364,0);
},
{
name = center;
pos = (364,535);
},
{
name = top;
pos = (364,667);
},
{
name = topleft;
pos = (25,667);
}
);
layerId = "ECACF70C-BE42-4FA5-B3A0-AFDA71FB1D31";
shapes = (
{
closed = 1;
nodes = (
(265,0,l),
(265,250,l),
(463,250,l),
(463,0,l),
(663,0,l),
(663,667,l),
(463,667,l),
(463,410,l),
(265,410,l),
(265,667,l),
(65,667,l),
(65,0,l)
);
}
);
width = 728;
}
);
unicode = 72;
},
{
glyphname = Hbar;
lastChange = "2016-08-18 11:54:29 +0000";
layers = (
{
anchors = (
{
name = _center;
pos = (335,505);
}
);
layerId = UUID0;
shapes = (
{
closed = 1;
nodes = (
(634,478,l),
(634,531,l),
(35,531,l),
(35,478,l)
);
},
{
ref = H;
}
);
width = 669;
},
{
anchors = (
{
name = _center;
pos = (364,535);
}
);
layerId = "ECACF70C-BE42-4FA5-B3A0-AFDA71FB1D31";
shapes = (
{
closed = 1;
nodes = (
(703,491,l),
(703,579,l),
(25,579,l),
(25,491,l)
);
},
{
ref = H;
}
);
width = 728;
}
);
unicode = 294;
},
{
glyphname = I;
kernLeft = B;
kernRight = H;
lastChange = "2016-08-18 19:18:50 +0000";
layers = (
{
anchors = (
{
name = bottom;
pos = (121,0);
},
{
name = ogonek;
pos = (179,10);
},
{
name = top;
pos = (121,667);
},
{
name = topleft;
pos = (18,667);
}
);
layerId = UUID0;
shapes = (
{
closed = 1;
nodes = (
(157,0,l),
(157,667,l),
(85,667,l),
(85,0,l)
);
}
);
width = 242;
},
{
anchors = (
{
name = bottom;
pos = (156,0);
},
{
name = ogonek;
pos = (277,10);
},
{
name = top;
pos = (173,667);
},
{
name = topleft;
pos = (25,667);
}
);
layerId = "ECACF70C-BE42-4FA5-B3A0-AFDA71FB1D31";
shapes = (
{
closed = 1;
nodes = (
(266,0,l),
(266,667,l),
(65,667,l),
(65,0,l)
);
}
);
width = 331;
}
);
metricLeft = H;
metricRight = H;
unicode = 73;
},
{
glyphname = Iogonek;
kernLeft = B;
kernRight = H;
lastChange = "2016-08-18 15:42:23 +0000";
layers = (
{
anchors = (
{
name = _ogonek;
pos = (179,10);
}
);
layerId = UUID0;
shapes = (
{
closed = 1;
nodes = (
(119,-173,o),
(138,-164,o),
(154,-155,c),
(154,-92,l),
(146,-100,o),
(125,-119,o),
(99,-119,cs),
(77,-119,o),
(65,-109,o),
(65,-85,cs),
(65,-56,o),
(104,-25,o),
(157,0,c),
(90,11,l),
(42,-9,o),
(6,-57,o),
(6,-90,cs),
(6,-143,o),
(40,-173,o),
(94,-173,cs)
);
},
{
ref = I;
}
);
width = 242;
},
{
anchors = (
{
name = _ogonek;
pos = (277,10);
}
);
layerId = "ECACF70C-BE42-4FA5-B3A0-AFDA71FB1D31";
shapes = (
{
closed = 1;
nodes = (
(219,-194,o),
(246,-179,o),
(267,-168,c),
(267,-73,l),
(244,-94,o),
(221,-110,o),
(197,-110,cs),
(177,-110,o),
(162,-104,o),
(162,-74,cs),
(162,-47,o),
(206,-21,o),
(261,0,c),
(157,31,l),
(76,0,o),
(19,-36,o),
(19,-93,cs),
(19,-161,o),
(62,-194,o),
(162,-194,cs)
);
},
{
ref = I;
}
);
width = 331;
}
);
unicode = 302;
},
{
glyphname = J;
kernLeft = J;
kernRight = J;
lastChange = "2016-09-02 14:39:59 +0000";
layers = (
{
anchors = (
{
name = bottom;
pos = (227,0);
},
{
name = top;
pos = (337,667);
}
);
layerId = UUID0;
shapes = (
{
closed = 1;
nodes = (
(264,-8,o),
(368,28,o),
(368,199,cs),
(368,667,l),
(296,667,l),
(296,205,ls),
(296,103,o),
(259,62,o),
(168,62,cs),
(118,62,o),
(78,79,o),
(45,102,c),
(45,27,l),
(81,6,o),
(125,-8,o),
(177,-8,cs)
);
}
);
width = 453;
},
{
anchors = (
{
name = bottom;
pos = (245,0);
},
{
name = top;
pos = (325,667);
}
);
layerId = "ECACF70C-BE42-4FA5-B3A0-AFDA71FB1D31";
shapes = (
{
closed = 1;
nodes = (
(310,-15,o),
(424,39,o),
(424,204,c),
(424,667,l),
(223,667,l),
(223,212,l),
(223,161,o),
(189,140,o),
(146,140,cs),
(113,140,o),
(79,167,o),
(30,202,c),
(30,23,l),
(79,2,o),
(136,-15,o),
(198,-15,cs)
);
}
);
width = 489;
}
);
metricRight = H;
unicode = 74;
},
{
glyphname = K;
kernLeft = B;
kernRight = K;
lastChange = "2016-08-18 19:19:30 +0000";
layers = (
{
anchors = (
{
name = bottom;
pos = (317,0);
},
{
name = top;
pos = (317,667);
}
);
layerId = UUID0;
shapes = (
{
closed = 1;
nodes = (
(565,667,l),
(473,667,l),
(149,307,l),
(149,213,l)
);
},
{
closed = 1;
nodes = (
(157,0,l),
(157,667,l),
(85,667,l),
(85,0,l)
);
},
{
closed = 1;
nodes = (
(207,327,l),
(488,0,l),
(588,0,l),
(261,376,l)
);
}
);
width = 613;
},
{
anchors = (
{
name = bottom;
pos = (344,0);
},
{
name = top;
pos = (364,667);
}
);
layerId = "ECACF70C-BE42-4FA5-B3A0-AFDA71FB1D31";
shapes = (
{
closed = 1;
nodes = (
(674,667,l),
(422,667,l),
(181,302,l),
(259,195,l)
);
},
{
closed = 1;
nodes = (
(266,0,l),
(266,667,l),
(65,667,l),
(65,0,l)
);
},
{
closed = 1;
nodes = (
(262,302,l),
(446,0,l),
(693,0,l),
(418,429,l)
);
}
);
width = 708;
}
);
metricLeft = H;
unicode = 75;
},
{
glyphname = L;
kernLeft = B;
kernRight = L;
lastChange = "2016-09-02 13:08:29 +0000";
layers = (
{
anchors = (
{
name = bottom;
pos = (269,0);
},
{
name = center;
pos = (321,334);
},
{
name = top;
pos = (125,667);
},
{
name = topright;
pos = (518,667);
}
);
layerId = UUID0;
shapes = (
{
closed = 1;
nodes = (
(498,0,l),
(498,70,l),
(157,70,l),
(157,667,l),
(85,667,l),
(85,0,l)
);
}
);
width = 523;
},
{
anchors = (
{
name = bottom;
pos = (284,0);
},
{
name = center;
pos = (444,334);
},
{
name = top;
pos = (174,667);
},
{
name = topright;
pos = (548,667);
}
);
background = {
shapes = (
{
closed = 1;
nodes = (
(266,0,l),
(266,667,l),
(65,667,l),
(65,0,l)
);
}
);
};
layerId = "ECACF70C-BE42-4FA5-B3A0-AFDA71FB1D31";
shapes = (
{
closed = 1;
nodes = (
(533,0,l),
(533,151,l),
(266,151,l),
(266,667,l),
(65,667,l),
(65,0,l)
);
}
);
width = 568;
}
);
metricLeft = H;
unicode = 76;
},
{
glyphname = Lslash;
lastChange = "2016-08-18 15:48:05 +0000";
layers = (
{
layerId = UUID0;
shapes = (
{
closed = 1;
nodes = (
(293,440,l),
(293,504,l),
(13,315,l),
(13,251,l)
);
},
{
ref = L;
}
);
width = 521;
},
{
layerId = "ECACF70C-BE42-4FA5-B3A0-AFDA71FB1D31";
shapes = (
{
closed = 1;
nodes = (
(4,284,l),
(4,162,l),
(405,382,l),
(405,504,l)
);
},
{
ref = L;
}
);
width = 576;
}
);
unicode = 321;
},
{
glyphname = M;
lastChange = "2016-08-22 17:43:27 +0000";
layers = (
{
anchors = (
{
name = bottom;
pos = (393,0);
},
{
name = top;
pos = (393,667);
}
);
layerId = UUID0;
shapes = (
{
closed = 1;
nodes = (
(157,0,l),
(157,624,l),
(131,587,l),
(385,209,l),
(660,595,l),
(628,595,l),
(628,0,l),
(700,0,l),
(700,667,l),
(622,667,l),
(361,277,l),
(410,288,l),
(163,667,l),
(85,667,l),
(85,0,l)
);
}
);
width = 785;
},
{
anchors = (
{
name = bottom;
pos = (436,0);
},
{
name = top;
pos = (436,667);
}
);
layerId = "ECACF70C-BE42-4FA5-B3A0-AFDA71FB1D31";
shapes = (
{
closed = 1;
nodes = (
(255,0,l),
(255,479,l),
(217,460,l),
(431,182,l),
(638,450,l),
(607,523,l),
(607,0,l),
(807,0,l),
(807,667,l),
(611,667,l),
(384,374,l),
(488,374,l),
(267,667,l),
(65,667,l),
(65,0,l)
);
}
);
width = 872;
}
);
metricLeft = H;
metricRight = H;
unicode = 77;
},
{
glyphname = N;
kernLeft = B;
kernRight = H;
lastChange = "2016-08-15 13:46:22 +0000";
layers = (
{
anchors = (
{
name = bottom;
pos = (362,0);
},
{
name = top;
pos = (362,667);
}
);
layerId = UUID0;
shapes = (
{
closed = 1;
nodes = (
(157,0,l),
(157,640,l),
(124,609,l),
(556,0,l),
(637,0,l),
(637,667,l),
(565,667,l),
(565,52,l),
(583,80,l),
(167,667,l),
(85,667,l),
(85,0,l)
);
}
);
width = 722;
},
{
anchors = (
{
name = bottom;
pos = (363,0);
},
{
name = top;
pos = (363,667);
}
);
layerId = "ECACF70C-BE42-4FA5-B3A0-AFDA71FB1D31";
shapes = (
{
closed = 1;
nodes = (
(247,0,l),
(247,482,l),
(207,391,l),
(520,0,l),
(660,0,l),
(660,667,l),
(478,667,l),
(478,127,l),
(539,259,l),
(227,667,l),
(65,667,l),
(65,0,l)
);
}
);
width = 725;
}
);
metricLeft = H;
metricRight = H;
unicode = 78;
},
{
glyphname = Nhookleft;
lastChange = "2016-08-17 15:27:30 +0000";
layers = (
{
anchors = (
{
name = bottom;
pos = (389,0);
},
{
name = top;
pos = (389,667);
}
);
layerId = UUID0;
shapes = (
{
closed = 1;
nodes = (
(184,640,l),
(151,609,l),
(583,0,l),
(664,0,l),
(664,667,l),
(592,667,l),
(592,52,l),
(610,80,l),
(194,667,l),
(112,667,l),
(112,-25,l),
(112,-90,o),
(97,-124,o),
(10,-126,c),
(10,-193,l),
(127,-193,o),
(184,-139,o),
(184,-29,c)
);
}
);
width = 749;
},
{
anchors = (
{
name = bottom;
pos = (373,0);
},
{
name = top;
pos = (373,667);
}
);
layerId = "ECACF70C-BE42-4FA5-B3A0-AFDA71FB1D31";
shapes = (
{
closed = 1;
nodes = (
(257,482,l),
(217,391,l),
(530,0,l),
(670,0,l),
(670,667,l),
(488,667,l),
(488,127,l),
(549,259,l),
(237,667,l),
(75,667,l),
(75,5,l),
(75,-39,o),
(45,-58,o),
(5,-49,c),
(5,-193,l),
(143,-193,o),
(257,-153,o),
(257,7,c)
);
}
);
width = 735;
}
);
metricLeft = j;
metricRight = N;
unicode = 413;
},
{
glyphname = Eng;
kernLeft = B;
kernRight = H;
lastChange = "2016-08-18 15:51:23 +0000";
layers = (
{
layerId = UUID0;
shapes = (
{
closed = 1;
nodes = (
(581,-172,o),
(638,-119,o),
(638,-9,cs),
(638,667,l),
(566,667,l),
(566,105,l),
(169,667,l),
(87,667,l),
(87,0,l),
(159,0,l),
(159,562,l),
(585,-35,l),
(566,29,l),
(566,-12,l),
(565,-72,o),
(548,-104,o),
(464,-105,c),
(464,-172,l)
);
}
);
width = 728;
},
{
layerId = "ECACF70C-BE42-4FA5-B3A0-AFDA71FB1D31";
shapes = (
{
closed = 1;
nodes = (
(584,-193,o),
(698,-154,o),
(702,0,cs),
(702,667,l),
(530,667,l),
(530,267,l),
(259,667,l),
(87,667,l),
(87,0,l),
(259,0,l),
(259,397,l),
(552,-29,l),
(530,30,l),
(530,-8,l),
(530,-61,o),
(485,-69,o),
(448,-69,c),
(448,-193,l)
);
}
);
width = 791;
}
);
unicode = 330;
},
{
glyphname = O;
kernLeft = O;
kernRight = O;
lastChange = "2016-09-07 23:16:03 +0000";
layers = (
{
anchors = (
{
name = bottom;
pos = (367,0);
},
{
name = center;
pos = (367,334);
},
{
name = ogonek;
pos = (665,10);
},
{
name = top;
pos = (367,667);
},
{
name = topleft;
pos = (13,667);
},
{
name = topright;
pos = (439,667);
}
);
layerId = UUID0;
shapes = (
{
closed = 1;
nodes = (
(558,-10,o),
(659,106,o),
(659,333,c),
(659,560,o),
(558,676,o),
(359,676,c),
(161,676,o),
(60,560,o),
(60,333,c),
(60,106,o),
(161,-10,o),
(359,-10,c)
);
},
{
closed = 1;
nodes = (
(202,58,o),
(134,143,o),
(134,333,c),
(134,522,o),
(202,608,o),
(359,608,c),
(517,608,o),
(585,522,o),
(585,333,c),
(585,143,o),
(517,58,o),
(359,58,c)
);
}
);
width = 719;
},
{
anchors = (
{
name = bottom;
pos = (372,0);
},
{
name = center;
pos = (372,334);
},
{
name = ogonek;
pos = (546,10);
},
{
name = top;
pos = (372,697);
},
{
name = topleft;
pos = (20,667);
},
{
name = topright;
pos = (418,650);
}
);
layerId = "ECACF70C-BE42-4FA5-B3A0-AFDA71FB1D31";
shapes = (
{
closed = 1;
nodes = (
(582,-15,o),
(709,105,o),
(709,334,c),
(709,575,o),
(570,682,o),
(372,682,c),
(162,682,o),
(35,562,o),
(35,333,c),
(35,92,o),
(174,-15,o),
(372,-15,c)
);
},
{
closed = 1;
nodes = (
(294,145,o),
(242,188,o),
(242,332,c),
(242,477,o),
(294,522,o),
(372,522,c),
(450,522,o),
(502,479,o),
(502,335,c),
(502,190,o),
(450,145,o),
(372,145,c)
);
}
);
width = 744;
}
);
unicode = 79;
},
{
glyphname = Oslash;
kernLeft = Oslash;
lastChange = "2016-09-02 17:52:11 +0000";
layers = (
{
anchors = (
{
name = bottom;
pos = (360,0);
},
{
name = top;
pos = (360,667);
}
);
background = {
shapes = (
{
closed = 1;
nodes = (
(576,-9,o),
(680,107,o),
(680,334,cs),
(680,438,o),
(657,519,o),
(613,575,c),
(691,667,l),
(613,667,l),
(571,618,l),
(521,656,o),
(454,676,o),
(370,676,cs),
(165,676,o),
(61,560,o),
(61,334,cs),
(61,229,o),
(83,148,o),
(127,92,c),
(50,0,l),
(128,0,l),
(170,49,l),
(220,11,o),
(287,-9,o),
(370,-9,cs)
);
},
{
closed = 1;
nodes = (
(304,59,o),
(253,73,o),
(215,102,c),
(567,520,l),
(594,476,o),
(608,414,o),
(608,334,cs),
(608,144,o),
(535,59,o),
(370,59,cs)
);
},
{
closed = 1;
nodes = (
(146,191,o),
(133,253,o),
(133,334,cs),
(133,523,o),
(206,608,o),
(370,608,cs),
(437,608,o),
(488,594,o),
(526,565,c),
(174,147,l)
);
}
);
};
layerId = UUID0;
shapes = (
{
closed = 1;
nodes = (
(122,0,l),
(685,667,l),
(619,667,l),
(57,0,l)
);
},
{
ref = O;
}
);
width = 719;
},
{
anchors = (
{
name = bottom;
pos = (372,0);
},
{
name = top;
pos = (372,667);
}
);
background = {
shapes = (
{
closed = 1;
nodes = (
(517,-7,o),
(687,52,o),
(687,333,cs),
(687,427,o),
(668,496,o),
(637,547,c),
(740,667,l),
(580,667,l),
(550,632,l),
(496,663,o),
(432,673,o),
(374,673,cs),
(231,673,o),
(61,614,o),
(61,333,cs),
(61,239,o),
(80,170,o),
(110,120,c),
(7,0,l),
(167,0,l),
(197,35,l),
(251,3,o),
(315,-7,o),
(374,-7,cs)
);
},
{
closed = 1;
nodes = (
(348,140,o),
(323,144,o),
(302,156,c),
(510,399,l),
(513,380,o),
(515,358,o),
(515,333,cs),
(515,174,o),
(447,140,o),
(374,140,cs)
);
},
{
closed = 1;
nodes = (
(234,287,o),
(233,309,o),
(233,333,cs),
(233,492,o),
(301,526,o),
(374,526,cs),
(399,526,o),
(424,522,o),
(445,510,c),
(237,268,l)
);
}
);
};
layerId = "ECACF70C-BE42-4FA5-B3A0-AFDA71FB1D31";
shapes = (
{
closed = 1;
nodes = (
(134,0,l),
(730,666,l),
(605,666,l),
(10,0,l)
);
},
{
ref = O;
}
);
width = 744;
}
);
unicode = 216;
},
{
glyphname = P;
kernLeft = B;
lastChange = "2016-08-22 15:19:34 +0000";
layers = (
{
layerId = UUID0;
shapes = (
{
closed = 1;
nodes = (
(322,255,ls),
(471,255,o),
(553,328,o),
(553,461,cs),
(553,594,o),
(471,667,o),
(322,667,cs),
(85,667,l),
(85,0,l),
(157,0,l),
(157,255,l)
);
},
{
closed = 1;
nodes = (
(157,598,l),
(313,598,ls),
(462,598,o),
(481,525,o),
(481,461,cs),
(481,397,o),
(462,324,o),
(313,324,cs),
(157,324,l)
);
}
);
width = 613;
},
{
layerId = "ECACF70C-BE42-4FA5-B3A0-AFDA71FB1D31";
shapes = (
{
closed = 1;
nodes = (
(392,203,l),
(551,203,o),
(651,290,o),
(651,445,c),
(651,599,o),
(551,667,o),
(392,667,c),
(65,667,l),
(65,0,l),
(265,0,l),
(265,203,l)
);
},
{
closed = 1;
nodes = (
(265,517,l),
(367,517,l),
(402,517,o),
(433,490,o),
(433,430,c),
(433,378,o),
(402,353,o),
(367,353,c),
(265,353,l)
);
}
);
width = 686;
}
);
metricLeft = H;
metricRight = O;
unicode = 80;
},
{
glyphname = Thorn;
kernLeft = B;
lastChange = "2016-08-05 09:29:49 +0000";
layers = (
{
layerId = UUID0;
shapes = (
{
closed = 1;
nodes = (
(158,0,l),
(158,153,l),
(288,153,ls),
(436,153,o),
(518,226,o),
(518,359,cs),
(518,492,o),
(436,566,o),
(288,566,cs),
(158,566,l),
(158,667,l),
(86,667,l),
(86,0,l)
);
},
{
closed = 1;
nodes = (
(158,496,l),
(278,496,ls),
(427,496,o),
(446,423,o),
(446,359,cs),
(446,295,o),
(427,222,o),
(278,222,cs),
(158,222,l)
);
}
);
width = 570;
},
{
layerId = "ECACF70C-BE42-4FA5-B3A0-AFDA71FB1D31";
shapes = (
{
closed = 1;
nodes = (
(258,0,l),
(258,99,l),
(344,99,ls),
(506,99,o),
(599,185,o),
(599,334,cs),
(599,482,o),
(506,568,o),
(344,568,cs),
(258,568,l),
(258,667,l),
(86,667,l),
(86,0,l)
);
},
{
closed = 1;
nodes = (
(258,428,l),
(328,428,ls),
(404,428,o),
(428,376,o),
(428,334,cs),
(428,290,o),
(404,241,o),
(328,241,cs),
(258,241,l)
);
}
);
width = 653;
}
);
unicode = 222;
},
{
glyphname = Q;
kernLeft = C;
kernRight = O;
lastChange = "2016-08-17 20:14:46 +0000";
layers = (
{
layerId = UUID0;
shapes = (
{
closed = 1;
nodes = (
(558,-10,o),
(659,106,o),
(659,333,c),
(659,560,o),
(558,676,o),
(359,676,c),
(161,676,o),
(60,560,o),
(60,333,c),
(60,106,o),
(161,-10,o),
(359,-10,c)
);
},
{
closed = 1;
nodes = (
(202,58,o),
(134,143,o),
(134,333,c),
(134,522,o),
(202,608,o),
(359,608,c),
(517,608,o),
(585,522,o),
(585,333,c),
(585,143,o),
(519,64,o),
(359,58,c)
);
},
{
closed = 1;
nodes = (
(570,-28,o),
(545,-7,o),
(514,52,cs),
(478,121,o),
(421,199,o),
(328,199,cs),
(268,199,o),
(230,170,o),
(208,153,c),
(208,81,l),
(236,112,o),
(269,138,o),
(320,138,c),
(393,138,o),
(421,76,o),
(451,16,cs),
(483,-47,o),
(530,-90,o),
(591,-90,cs),
(603,-90,o),
(628,-88,o),
(658,-72,c),
(658,-8,l),
(630,-25,o),
(616,-28,o),
(599,-28,c)
);
}
);
width = 719;
},
{
layerId = "ECACF70C-BE42-4FA5-B3A0-AFDA71FB1D31";
shapes = (
{
closed = 1;
nodes = (
(602,-25,o),
(709,95,o),
(709,334,c),
(709,585,o),
(590,692,o),
(372,692,c),
(142,692,o),
(35,572,o),
(35,333,c),
(35,82,o),
(154,-25,o),
(372,-25,c)
);
},
{
closed = 1;
nodes = (
(294,105,o),
(242,148,o),
(242,332,c),
(242,497,o),
(294,542,o),
(372,542,c),
(450,542,o),
(502,499,o),
(502,335,c),
(502,150,o),
(450,105,o),
(372,105,c)
);
},
{
closed = 1;
nodes = (
(592,2,o),
(562,54,o),
(551,120,cs),
(522,288,o),
(441,319,o),
(369,319,cs),
(306,319,o),
(248,285,o),
(226,244,c),
(226,127,l),
(254,168,o),
(292,184,o),
(329,184,c),
(366,184,o),
(404,136,o),
(415,50,cs),
(433,-88,o),
(526,-112,o),
(601,-112,cs),
(653,-112,o),
(686,-105,o),
(708,-93,c),
(708,22,l),
(680,5,o),
(666,2,o),
(640,2,c)
);
}
);
width = 744;
}
);
metricLeft = O;
metricRight = O;
unicode = 81;
},
{
glyphname = R;
kernLeft = B;
kernRight = R;
lastChange = "2016-08-18 15:56:21 +0000";
layers = (
{
anchors = (
{
name = bottom;
pos = (316,0);
},
{
name = top;
pos = (296,667);
}
);
layerId = UUID0;
shapes = (
{
closed = 1;
nodes = (
(157,0,l),
(157,269,l),
(339,269,l),
(303,306,l),
(501,0,l),
(586,0,l),
(394,293,l),
(364,273,l),
(479,273,o),
(556,357,o),
(556,473,cs),
(556,601,o),
(489,667,o),
(359,667,cs),
(85,667,l),
(85,0,l)
);
},
{
closed = 1;
nodes = (
(157,599,l),
(351,599,ls),
(453,599,o),
(484,548,o),
(484,468,cs),
(484,383,o),
(437,337,o),
(326,337,cs),
(157,337,l)
);
}
);
width = 631;
},
{
anchors = (
{
name = bottom;
pos = (372,0);
},
{
name = top;
pos = (342,667);
}
);
layerId = "ECACF70C-BE42-4FA5-B3A0-AFDA71FB1D31";
shapes = (
{
closed = 1;
nodes = (
(265,0,l),
(265,213,l),
(383,213,l),
(296,284,l),
(450,0,l),
(708,0,l),
(499,318,l),
(527,249,l),
(627,274,o),
(671,371,o),
(671,448,c),
(671,596,o),
(571,667,o),
(412,667,c),
(65,667,l),
(65,0,l)
);
},
{
closed = 1;
nodes = (
(265,517,l),
(387,517,l),
(422,517,o),
(453,493,o),
(453,439,c),
(453,375,o),
(422,354,o),
(387,354,c),
(265,354,l)
);
}
);
width = 743;
}
);
metricLeft = H;
unicode = 82;
},
{
glyphname = S;
kernLeft = S;
kernRight = S;
lastChange = "2016-09-02 14:49:05 +0000";
layers = (
{
anchors = (
{
name = bottom;
pos = (279,0);
},
{
name = top;
pos = (279,667);
}
);
layerId = UUID0;
shapes = (
{
closed = 1;
nodes = (
(443,-10,o),
(495,89,o),
(495,179,cs),
(495,306,o),
(391,344,o),
(298,376,cs),
(210,406,o),
(150,429,o),
(150,511,cs),
(150,563,o),
(187,611,o),
(285,611,cs),
(366,611,o),
(404,585,o),
(456,556,c),
(456,630,l),
(394,660,o),
(359,677,o),
(281,677,cs),
(128,677,o),
(77,579,o),
(77,506,cs),
(77,375,o),
(173,343,o),
(264,312,c),
(344,281,o),
(422,255,o),
(422,171,cs),
(422,104,o),
(378,56,o),
(277,56,cs),
(181,56,o),
(108,89,o),
(65,125,c),
(65,47,l),
(130,12,o),
(173,-10,o),
(274,-10,cs)
);
}
);
width = 555;
},
{
anchors = (
{
name = bottom;
pos = (260,0);
},
{
name = top;
pos = (315,697);
}
);
layerId = "ECACF70C-BE42-4FA5-B3A0-AFDA71FB1D31";
shapes = (
{
closed = 1;
nodes = (
(450,-15,o),
(551,77,o),
(551,212,c),
(551,330,o),
(478,373,o),
(364,405,c),
(293,425,o),
(240,435,o),
(240,479,c),
(240,526,o),
(290,538,o),
(337,534,c),
(396,529,o),
(470,491,o),
(515,451,c),
(515,641,l),
(454,671,o),
(398,684,o),
(315,684,c),
(127,684,o),
(35,580,o),
(35,454,c),
(35,340,o),
(104,295,o),
(177,270,c),
(272,238,o),
(345,227,o),
(345,187,c),
(345,145,o),
(314,135,o),
(272,135,c),
(213,135,o),
(126,157,o),
(56,212,c),
(56,26,l),
(122,-6,o),
(203,-15,o),
(304,-15,c)
);
}
);
width = 586;
}
);
unicode = 83;
},
{
glyphname = Germandbls;
lastChange = "2016-08-22 18:12:49 +0000";
layers = (
{
layerId = UUID0;
shapes = (
{
closed = 1;
nodes = (
(157,0,l),
(157,461,l),
(157,555,o),
(216,619,o),
(330,619,c),
(444,619,o),
(507,565,o),
(527,511,c),
(543,538,l),
(358,450,l),
(358,396,l),
(494,369,o),
(573,317,o),
(573,201,c),
(573,116,o),
(529,56,o),
(428,56,c),
(355,56,o),
(299,89,o),
(266,125,c),
(266,47,l),
(316,12,o),
(371,-10,o),
(425,-10,c),
(594,-10,o),
(646,104,o),
(646,209,c),
(646,349,o),
(541,418,o),
(400,454,c),
(400,411,l),
(592,499,l),
(592,520,l),
(542,614,o),
(493,677,o),
(326,677,cs),
(163,677,o),
(85,577,o),
(85,454,c),
(85,0,l)
);
}
);
width = 706;
},
{
layerId = "ECACF70C-BE42-4FA5-B3A0-AFDA71FB1D31";
shapes = (
{
closed = 1;
nodes = (
(263,0,l),
(264,409,l),
(264,505,o),
(322,542,o),
(381,542,c),
(460,542,o),
(502,489,o),
(542,444,c),
(505,519,l),
(342,366,l),
(342,357,l),
(400,326,o),
(485,272,o),
(485,192,c),
(485,139,o),
(449,125,o),
(418,125,c),
(385,125,o),
(350,147,o),
(316,187,c),
(316,11,l),
(350,-12,o),
(410,-25,o),
(451,-25,c),
(579,-25,o),
(691,74,o),
(691,193,c),
(691,336,o),
(616,396,o),
(502,434,c),
(484,307,l),
(682,494,l),
(682,512,l),
(627,599,o),
(518,682,o),
(365,682,cs),
(183,682,o),
(65,603,o),
(65,434,c),
(65,0,l)
);
}
);
width = 731;
}
);
metricLeft = H;
metricRight = S;
unicode = 7838;
},
{
glyphname = T;
kernLeft = T;
kernRight = T;
lastChange = "2016-09-02 14:54:30 +0000";
layers = (
{
anchors = (
{
name = bottom;
pos = (292,0);
},
{
name = center;
pos = (292,334);
},
{
name = top;
pos = (292,667);
}
);
layerId = UUID0;
shapes = (
{
closed = 1;
nodes = (
(328,0,l),
(328,599,l),
(563,599,l),
(563,667,l),
(20,667,l),
(20,599,l),
(256,599,l),
(256,0,l)
);
}
);
width = 583;
},
{
anchors = (
{
name = bottom;
pos = (294,0);
},
{
name = center;
pos = (294,334);
},
{
name = top;
pos = (294,667);
}
);
layerId = "ECACF70C-BE42-4FA5-B3A0-AFDA71FB1D31";
shapes = (
{
closed = 1;
nodes = (
(392,0,l),
(392,517,l),
(563,517,l),
(563,667,l),
(25,667,l),
(25,517,l),
(192,517,l),
(192,0,l)
);
}
);
width = 588;
}
);
unicode = 84;
},
{
glyphname = Tcaron;
kernLeft = T;
kernRight = T;
lastChange = "2016-08-05 09:29:49 +0000";
layers = (
{
layerId = UUID0;
shapes = (
{
closed = 1;
nodes = (
(320,0,l),
(320,597,l),
(555,597,l),
(555,667,l),
(12,667,l),
(12,597,l),
(248,597,l),
(248,0,l)
);
},
{
closed = 1;
nodes = (
(304,724,l),
(385,845,l),
(329,845,l),
(284,774,l),
(238,845,l),
(182,845,l),
(263,724,l)
);
}
);
width = 568;
},
{
layerId = "ECACF70C-BE42-4FA5-B3A0-AFDA71FB1D31";
shapes = (
{
closed = 1;
nodes = (
(376,0,l),
(376,511,l),
(570,511,l),
(570,667,l),
(12,667,l),
(12,511,l),
(204,511,l),
(204,0,l)
);
},
{
closed = 1;
nodes = (
(315,724,l),
(435,846,l),
(333,846,l),
(291,802,l),
(249,846,l),
(147,846,l),
(267,724,l)
);
}
);
width = 582;
}
);
unicode = 356;
},
{
glyphname = U;
kernLeft = U;
kernRight = U;
lastChange = "2016-08-31 19:54:46 +0000";
layers = (
{
anchors = (
{
name = bottom;
pos = (346,0);
},
{
name = ogonek;
pos = (453,10);
},
{
name = top;
pos = (346,667);
},
{
name = topright;
pos = (599,559);
}
);
layerId = UUID0;
shapes = (
{
closed = 1;
nodes = (
(511,-10,o),
(607,90,o),
(607,272,cs),
(607,667,l),
(537,667,l),
(537,268,ls),
(537,125,o),
(470,58,o),
(346,58,cs),
(222,58,o),
(157,125,o),
(157,268,cs),
(157,667,l),
(85,667,l),
(85,272,ls),
(85,90,o),
(181,-10,o),
(346,-10,cs)
);
}
);
width = 692;
},
{
anchors = (
{
name = bottom;
pos = (370,0);
},
{
name = ogonek;
pos = (550,10);
},
{
name = top;
pos = (370,677);
},
{
name = topright;
pos = (601,539);
}
);
layerId = "ECACF70C-BE42-4FA5-B3A0-AFDA71FB1D31";
shapes = (
{
closed = 1;
nodes = (
(554,-25,o),
(675,52,o),
(675,239,c),
(675,667,l),
(485,667,l),
(485,251,l),
(485,166,o),
(445,125,o),
(380,125,c),
(304,125,o),
(275,166,o),
(275,251,c),
(275,667,l),
(65,667,l),
(65,239,l),
(65,52,o),
(170,-25,o),
(391,-25,c)
);
}
);
width = 740;
}
);
metricLeft = H;
metricRight = H;
unicode = 85;
},
{
glyphname = V;
kernLeft = V;
kernRight = V;
lastChange = "2016-09-02 14:40:22 +0000";
layers = (
{
layerId = UUID0;
shapes = (
{
closed = 1;
nodes = (
(347,0,l),
(603,667,l),
(529,665,l),
(302,61,l),
(328,61,l),
(97,667,l),
(20,667,l),
(276,0,l)
);
}
);
width = 623;
},
{
layerId = "ECACF70C-BE42-4FA5-B3A0-AFDA71FB1D31";
shapes = (
{
closed = 1;
nodes = (
(472,0,l),
(736,667,l),
(522,667,l),
(351,116,l),
(415,116,l),
(244,667,l),
(10,667,l),
(256,0,l)
);
}
);
width = 746;
}
);
metricLeft = A;
metricRight = A;
unicode = 86;
},
{
glyphname = W;
kernLeft = V;
kernRight = V;
lastChange = "2016-09-02 16:58:11 +0000";
layers = (
{
anchors = (
{
name = bottom;
pos = (489,0);
},
{
name = top;
pos = (489,667);
}
);
layerId = UUID0;
shapes = (
{
closed = 1;
nodes = (
(313,0,l),
(500,591,l),
(476,591,l),
(663,0,l),
(736,0,l),
(951,667,l),
(875,667,l),
(684,53,l),
(712,53,l),
(524,667,l),
(452,667,l),
(270,62,l),
(292,62,l),
(101,667,l),
(25,667,l),
(239,0,l)
);
}
);
width = 976;
},
{
anchors = (
{
name = bottom;
pos = (512,0);
},
{
name = top;
pos = (512,667);
}
);
layerId = "ECACF70C-BE42-4FA5-B3A0-AFDA71FB1D31";
shapes = (
{
closed = 1;
nodes = (
(397,0,l),
(529,433,l),
(497,433,l),
(627,0,l),
(824,0,l),
(999,667,l),
(779,667,l),
(693,180,l),
(723,180,l),
(586,667,l),
(438,667,l),
(302,186,l),
(330,186,l),
(245,667,l),
(25,667,l),
(200,0,l)
);
}
);
width = 1024;
}
);
unicode = 87;
},
{
glyphname = X;
lastChange = "2016-09-02 14:48:25 +0000";
layers = (
{
layerId = UUID0;
shapes = (
{
closed = 1;
nodes = (
(104,667,l),
(18,667,l),
(487,0,l),
(573,0,l)
);
},
{
closed = 1;
nodes = (
(331,328,l),
(569,667,l),
(481,667,l),
(285,388,l)
);
},
{
closed = 1;
nodes = (
(255,347,l),
(12,0,l),
(100,0,l),
(314,305,l)
);
}
);
width = 589;
},
{
layerId = "ECACF70C-BE42-4FA5-B3A0-AFDA71FB1D31";
shapes = (
{
closed = 1;
nodes = (
(260,667,l),
(10,667,l),
(458,0,l),
(708,0,l)
);
},
{
closed = 1;
nodes = (
(460,288,l),
(700,667,l),
(483,667,l),
(359,434,l)
);
},
{
closed = 1;
nodes = (
(289,409,l),
(23,0,l),
(236,0,l),
(385,268,l)
);
}
);
width = 718;
}
);
unicode = 88;
},
{
glyphname = Y;
kernLeft = Y;
kernRight = Y;
lastChange = "2016-09-02 14:47:28 +0000";
layers = (
{
anchors = (
{
name = bottom;
pos = (299,0);
},
{
name = top;
pos = (305,667);
},
{
name = topleft;
pos = (20,667);
}
);
layerId = UUID0;
shapes = (
{
closed = 1;
nodes = (
(333,0,l),
(333,335,l),
(321,289,l),
(581,667,l),
(494,667,l),
(287,361,l),
(310,355,l),
(99,667,l),
(12,667,l),
(261,306,l),
(261,0,l)
);
}
);
width = 598;
},
{
anchors = (
{
name = bottom;
pos = (366,0);
},
{
name = top;
pos = (399,667);
},
{
name = topleft;
pos = (20,667);
}
);
background = {
shapes = (
{
closed = 1;
nodes = (
(481,0,l),
(481,667,l),
(280,667,l),
(280,0,l)
);
}
);
};
layerId = "ECACF70C-BE42-4FA5-B3A0-AFDA71FB1D31";
shapes = (
{
closed = 1;
nodes = (
(480,0,l),
(480,333,l),
(452,231,l),
(707,667,l),
(514,667,l),
(356,343,l),
(453,345,l),
(272,667,l),
(25,667,l),
(280,281,l),
(280,0,l)
);
}
);
width = 732;
}
);
unicode = 89;
},
{
glyphname = Z;
kernRight = Z;
lastChange = "2016-08-31 19:37:57 +0000";
layers = (
{
anchors = (
{
name = bottom;
pos = (305,0);
},
{
name = top;
pos = (305,667);
}
);
layerId = UUID0;
shapes = (
{
closed = 1;
nodes = (
(539,0,l),
(539,68,l),
(125,68,l),
(134,41,l),
(539,606,l),
(539,667,l),
(74,667,l),
(74,599,l),
(492,599,l),
(478,632,l),
(64,63,l),
(64,0,l)
);
}
);
width = 609;
},
{
anchors = (
{
name = bottom;
pos = (312,0);
},
{
name = top;
pos = (332,667);
}
);
layerId = "ECACF70C-BE42-4FA5-B3A0-AFDA71FB1D31";
shapes = (
{
closed = 1;
nodes = (
(594,0,l),
(594,151,l),
(217,151,l),
(288,133,l),
(594,528,l),
(594,667,l),
(53,667,l),
(53,514,l),
(430,514,l),
(377,546,l),
(50,142,l),
(50,0,l)
);
}
);
width = 644;
}
);
unicode = 90;
},
{
glyphname = a;
kernLeft = a;
kernRight = a;
lastChange = "2016-09-02 15:40:25 +0000";
layers = (
{
anchors = (
{
name = bottom;
pos = (271,0);
},
{
name = ogonek;
pos = (468,40);
},
{
name = top;
pos = (291,499);
}
);
layerId = UUID0;
shapes = (
{
closed = 1;
nodes = (
(368,-15,o),
(474,0,o),
(474,106,c),
(474,348,l),
(474,455,o),
(402,508,o),
(293,508,c),
(227,508,o),
(150,493,o),
(109,467,c),
(109,395,l),
(151,428,o),
(216,443,o),
(270,443,cs),
(354,443,o),
(401,408,o),
(401,331,c),
(401,102,l),
(401,57,o),
(355,49,o),
(269,49,c),
(203,49,o),
(132,73,o),
(132,148,c),
(132,209,o),
(179,242,o),
(263,242,c),
(332,242,o),
(394,222,o),
(425,200,c),
(411,266,l),
(373,290,o),
(325,307,o),
(244,307,c),
(136,307,o),
(60,261,o),
(60,137,c),
(60,17,o),
(165,-15,o),
(252,-15,c)
);
}
);
width = 554;
},
{
anchors = (
{
name = bottom;
pos = (281,0);
},
{
name = ogonek;
pos = (474,26);
},
{
name = top;
pos = (281,529);
}
);
layerId = "ECACF70C-BE42-4FA5-B3A0-AFDA71FB1D31";
shapes = (
{
closed = 1;
nodes = (
(434,-15,o),
(517,26,o),
(518,105,c),
(519,342,l),
(520,514,o),
(349,526,o),
(285,526,c),
(184,526,o),
(104,501,o),
(74,481,c),
(74,323,l),
(107,351,o),
(174,379,o),
(235,379,c),
(301,379,o),
(340,357,o),
(340,302,c),
(340,135,l),
(340,114,o),
(325,108,o),
(265,108,c),
(235,108,o),
(210,133,o),
(210,158,c),
(210,191,o),
(232,204,o),
(289,204,c),
(319,204,o),
(349,197,o),
(374,184,c),
(371,259,l),
(344,288,o),
(271,316,o),
(209,316,c),
(80,316,o),
(30,248,o),
(30,167,c),
(30,27,o),
(126,-15,o),
(265,-15,c)
);
}
);
width = 579;
}
);
metricRight = n;
unicode = 97;
},
{
glyphname = abrevedotbelow;
kernLeft = a;
kernRight = a;
lastChange = "2016-08-08 18:11:06 +0000";
layers = (
{
layerId = UUID0;
shapes = (
{
closed = 1;
nodes = (
(320,-129,l),
(320,-50,l),
(241,-50,l),
(241,-129,l)
);
},
{
closed = 1;
nodes = (
(338,539,o),
(377,578,o),
(377,643,c),
(329,643,l),
(329,603,o),
(312,587,o),
(272,587,cs),
(232,587,o),
(215,603,o),
(215,643,c),
(167,643,l),
(167,578,o),
(206,539,o),
(272,539,cs)
);
},
{
ref = a;
}
);
width = 534;
},
{
layerId = "ECACF70C-BE42-4FA5-B3A0-AFDA71FB1D31";
shapes = (
{
closed = 1;
nodes = (
(341,-159,l),
(341,-50,l),
(221,-50,l),
(221,-159,l)
);
},
{
closed = 1;
nodes = (
(370,538,o),
(412,578,o),
(412,645,c),
(322,645,l),
(319,623,o),
(310,609,o),
(281,609,cs),
(252,609,o),
(243,623,o),
(240,645,c),
(150,645,l),
(150,578,o),
(192,538,o),
(281,538,cs)
);
},
{
ref = a;
}
);
width = 551;
}
);
unicode = 7863;
},
{
glyphname = adotbelow;
kernLeft = a;
kernRight = a;
lastChange = "2016-08-08 18:12:41 +0000";
layers = (
{
layerId = UUID0;
shapes = (
{
closed = 1;
nodes = (
(320,-129,l),
(320,-50,l),
(241,-50,l),
(241,-129,l)
);
},
{
ref = a;
}
);
width = 534;
},
{
layerId = "ECACF70C-BE42-4FA5-B3A0-AFDA71FB1D31";
shapes = (
{
closed = 1;
nodes = (
(343,-159,l),
(343,-50,l),
(223,-50,l),
(223,-159,l)
);
},
{
ref = a;
}
);
width = 551;
}
);
unicode = 7841;
},
{
glyphname = ae;
kernLeft = a;
kernRight = e;
lastChange = "2016-08-22 15:22:08 +0000";
layers = (
{
anchors = (
{
name = bottom;
pos = (489,-15);
},
{
name = top;
pos = (455,499);
}
);
layerId = UUID0;
shapes = (
{
closed = 1;
nodes = (
(432,110,l),
(399,71,o),
(332,49,o),
(269,49,c),
(201,49,o),
(132,73,o),
(132,143,c),
(132,209,o),
(174,242,o),
(263,242,c),
(332,242,o),
(394,222,o),
(425,200,c),
(411,272,l),
(373,296,o),
(325,307,o),
(271,307,c),
(156,307,o),
(60,267,o),
(60,137,c),
(60,29,o),
(145,-15,o),
(269,-15,c),
(364,-15,o),
(425,27,o),
(465,62,c)
);
},
{
closed = 1;
nodes = (
(401,67,o),
(489,-15,o),
(632,-15,c),
(701,-15,o),
(759,-3,o),
(807,20,c),
(807,94,l),
(766,69,o),
(709,51,o),
(636,51,c),
(533,51,o),
(474,116,o),
(474,237,c),
(474,348,l),
(474,455,o),
(402,508,o),
(293,508,c),
(227,508,o),
(150,493,o),
(109,467,c),
(109,395,l),
(151,428,o),
(216,443,o),
(270,443,cs),
(354,443,o),
(401,408,o),
(401,331,c),
(401,243,l)
);
},
{
closed = 1;
nodes = (
(474,237,l),
(474,397,o),
(521,442,o),
(620,442,c),
(714,442,o),
(759,393,o),
(763,293,c),
(791,303,l),
(442,303,l),
(437,237,l),
(838,237,l),
(840,390,o),
(780,508,o),
(620,508,c),
(484,508,o),
(401,422,o),
(401,250,c)
);
}
);
width = 893;
},
{
anchors = (
{
name = bottom;
pos = (439,0);
},
{
name = top;
pos = (439,519);
}
);
background = {
shapes = (
{
closed = 1;
nodes = (
(364,-9,o),
(409,26,o),
(433,68,c),
(452,31,o),
(507,-9,o),
(573,-9,cs),
(650,-9,o),
(710,9,o),
(763,43,c),
(763,164,l),
(728,143,o),
(678,125,o),
(606,125,cs),
(554,125,o),
(499,160,o),
(499,208,c),
(783,208,l),
(785,224,o),
(786,242,o),
(786,262,cs),
(786,387,o),
(717,505,o),
(559,505,cs),
(494,505,o),
(441,467,o),
(421,438,c),
(400,463,o),
(342,504,o),
(275,504,cs),
(219,504,o),
(163,490,o),
(111,469,c),
(111,339,l),
(163,360,o),
(213,370,o),
(263,370,cs),
(293,370,o),
(330,355,o),
(330,294,c),
(302,296,o),
(309,295,o),
(285,295,cs),
(81,295,o),
(62,184,o),
(62,145,cs),
(62,42,o),
(130,-9,o),
(276,-9,cs)
);
},
{
closed = 1;
nodes = (
(246,122,o),
(234,144,o),
(234,175,cs),
(234,202,o),
(251,225,o),
(300,225,cs),
(311,225,o),
(321,224,o),
(333,223,c),
(333,181,ls),
(333,159,o),
(319,122,o),
(283,122,cs)
);
},
{
closed = 1;
nodes = (
(505,352,o),
(525,396,o),
(559,396,cs),
(594,396,o),
(613,343,o),
(615,311,c),
(503,311,l)
);
}
);
};
layerId = "ECACF70C-BE42-4FA5-B3A0-AFDA71FB1D31";
shapes = (
{
closed = 1;
nodes = (
(379,124,l),
(359,102,o),
(306,99,o),
(273,99,c),
(232,99,o),
(210,124,o),
(210,149,c),
(210,182,o),
(232,204,o),
(289,204,c),
(319,204,o),
(349,197,o),
(374,184,c),
(371,259,l),
(344,288,o),
(271,316,o),
(209,316,c),
(80,316,o),
(30,239,o),
(30,158,c),
(30,18,o),
(126,-24,o),
(235,-24,c),
(317,-24,o),
(384,9,o),
(431,40,c)
);
},
{
closed = 1;
nodes = (
(340,77,o),
(447,-25,o),
(606,-25,c),
(689,-25,o),
(746,-10,o),
(793,18,c),
(793,169,l),
(763,150,o),
(704,124,o),
(655,124,c),
(555,124,o),
(518,150,o),
(518,207,c),
(519,342,l),
(520,514,o),
(349,526,o),
(285,526,c),
(184,526,o),
(104,501,o),
(74,481,c),
(74,320,l),
(107,348,o),
(174,376,o),
(235,376,c),
(301,376,o),
(340,354,o),
(340,299,c),
(340,182,l)
);
},
{
closed = 1;
nodes = (
(519,269,l),
(519,357,o),
(559,391,o),
(598,391,c),
(652,391,o),
(671,356,o),
(673,249,c),
(692,311,l),
(445,311,l),
(469,204,l),
(848,204,l),
(849,416,o),
(776,525,o),
(607,525,c),
(434,525,o),
(340,418,o),
(340,244,c)
);
}
);
width = 878;
}
);
metricLeft = a;
metricRight = e;
unicode = 230;
},
{
glyphname = b;
kernLeft = b;
kernRight = b;
lastChange = "2016-09-02 15:04:50 +0000";
layers = (
{
layerId = UUID0;
shapes = (
{
closed = 1;
nodes = (
(377,-16,o),
(513,27,o),
(514,256,c),
(514,410,o),
(440,507,o),
(286,507,c),
(242,507,o),
(166,487,o),
(127,467,c),
(152,442,l),
(152,710,l),
(80,710,l),
(80,85,ls),
(80,6,o),
(173,-15,o),
(277,-15,c)
);
},
{
closed = 1;
nodes = (
(222,51,o),
(152,58,o),
(152,102,c),
(152,406,l),
(193,430,o),
(244,441,o),
(286,441,c),
(395,441,o),
(438,365,o),
(438,256,c),
(438,148,o),
(411,51,o),
(270,51,c)
);
}
);
width = 569;
},
{
layerId = "ECACF70C-BE42-4FA5-B3A0-AFDA71FB1D31";
shapes = (
{
closed = 1;
nodes = (
(483,-15,o),
(585,63,o),
(585,255,c),
(585,436,o),
(502,526,o),
(356,526,c),
(319,526,o),
(242,514,o),
(208,463,c),
(238,407,l),
(238,686,l),
(60,686,l),
(60,131,l),
(60,9,o),
(189,-15,o),
(307,-15,c)
);
},
{
closed = 1;
nodes = (
(261,134,o),
(238,146,o),
(238,179,c),
(238,369,l),
(256,379,o),
(284,384,o),
(304,384,c),
(356,384,o),
(405,358,o),
(405,242,c),
(405,172,o),
(371,134,o),
(307,134,c)
);
}
);
width = 615;
}
);
metricLeft = n;
metricRight = o;
unicode = 98;
},
{
glyphname = c;
kernLeft = c;
kernRight = c;
lastChange = "2016-09-02 15:40:41 +0000";
layers = (
{
anchors = (
{
name = bottom;
pos = (246,0);
},
{
name = top;
pos = (266,499);
}
);
layerId = UUID0;
shapes = (
{
closed = 1;
nodes = (
(340,-8,o),
(390,1,o),
(437,19,c),
(437,89,l),
(393,70,o),
(346,61,o),
(297,61,cs),
(178,61,o),
(127,117,o),
(127,250,cs),
(127,382,o),
(178,439,o),
(297,439,cs),
(346,439,o),
(393,429,o),
(437,411,c),
(437,480,l),
(390,498,o),
(340,508,o),
(289,508,cs),
(182,508,o),
(55,463,o),
(55,250,cs),
(55,36,o),
(182,-8,o),
(289,-8,cs)
);
}
);
width = 492;
},
{
anchors = (
{
name = bottom;
pos = (258,0);
},
{
name = top;
pos = (298,519);
}
);
layerId = "ECACF70C-BE42-4FA5-B3A0-AFDA71FB1D31";
shapes = (
{
closed = 1;
nodes = (
(382,-15,o),
(429,0,o),
(476,28,c),
(476,179,l),
(446,160,o),
(397,134,o),
(348,134,c),
(248,134,o),
(211,182,o),
(211,269,c),
(211,347,o),
(269,379,o),
(338,379,c),
(385,379,o),
(426,360,o),
(474,338,c),
(474,491,l),
(431,512,o),
(364,525,o),
(307,525,c),
(134,525,o),
(30,418,o),
(30,244,c),
(30,87,o),
(150,-15,o),
(309,-15,c)
);
}
);
width = 506;
}
);
metricLeft = o;
metricRight = o;
unicode = 99;
},
{
glyphname = d;
kernLeft = c;
kernRight = d;
lastChange = "2016-09-02 15:07:15 +0000";
layers = (
{
anchors = (
{
name = bottom;
pos = (296,0);
},
{
name = center;
pos = (432,604);
},
{
name = top;
pos = (296,499);
},
{
name = topright;
pos = (557,499);
}
);
layerId = UUID0;
shapes = (
{
closed = 1;
nodes = (
(369,-14,o),
(489,11,o),
(489,86,c),
(489,710,l),
(417,710,l),
(417,442,l),
(442,467,l),
(403,487,o),
(327,507,o),
(283,507,c),
(129,507,o),
(55,410,o),
(55,256,c),
(56,27,o),
(192,-16,o),
(287,-15,c)
);
},
{
closed = 1;
nodes = (
(158,51,o),
(131,148,o),
(131,256,c),
(131,365,o),
(174,441,o),
(283,441,c),
(325,441,o),
(376,430,o),
(417,406,c),
(417,93,l),
(417,69,o),
(357,51,o),
(288,51,c)
);
}
);
width = 569;
},
{
anchors = (
{
name = bottom;
pos = (324,0);
},
{
name = center;
pos = (460,599);
},
{
name = top;
pos = (324,529);
},
{
name = topright;
pos = (602,499);
}
);
layerId = "ECACF70C-BE42-4FA5-B3A0-AFDA71FB1D31";
shapes = (
{
closed = 1;
nodes = (
(451,-15,o),
(566,44,o),
(566,151,c),
(566,716,l),
(386,716,l),
(386,420,l),
(418,476,l),
(372,533,o),
(303,529,o),
(278,529,c),
(113,529,o),
(30,426,o),
(30,258,c),
(30,53,o),
(132,-15,o),
(317,-15,c)
);
},
{
closed = 1;
nodes = (
(246,135,o),
(212,171,o),
(212,251,c),
(212,363,o),
(256,385,o),
(331,385,c),
(349,385,o),
(368,379,o),
(386,370,c),
(386,171,l),
(386,146,o),
(364,135,o),
(325,135,c)
);
}
);
width = 626;
}
);
metricLeft = o;
metricRight = n;
unicode = 100;
},
{
glyphname = eth;
lastChange = "2016-08-17 15:45:11 +0000";
layers = (
{
layerId = UUID0;
shapes = (
{
closed = 1;
nodes = (
(436,-15,o),
(512,97,o),
(512,271,cs),
(512,481,o),
(355,624,o),
(288,689,c),
(174,689,l),
(174,686,l),
(304,590,o),
(440,446,o),
(440,271,c),
(438,86,o),
(370,51,o),
(284,51,c),
(168,51,o),
(127,130,o),
(127,248,c),
(127,357,o),
(164,442,o),
(284,442,c),
(353,442,o),
(415,412,o),
(446,370,c),
(432,436,l),
(394,480,o),
(349,508,o),
(283,508,c),
(137,508,o),
(55,421,o),
(55,248,c),
(55,82,o),
(129,-15,o),
(285,-15,c)
);
},
{
closed = 1;
nodes = (
(454,595,l),
(446,652,l),
(164,606,l),
(173,549,l)
);
}
);
width = 567;
},
{
layerId = "ECACF70C-BE42-4FA5-B3A0-AFDA71FB1D31";
shapes = (
{
closed = 1;
nodes = (
(469,-25,o),
(550,77,o),
(550,309,cs),
(550,479,o),
(497,624,o),
(375,700,c),
(168,700,l),
(168,693,l),
(270,633,o),
(379,558,o),
(379,331,c),
(379,177,o),
(362,117,o),
(298,117,c),
(241,117,o),
(210,147,o),
(210,252,c),
(210,357,o),
(241,411,o),
(298,411,c),
(328,411,o),
(358,394,o),
(383,361,c),
(380,446,l),
(353,495,o),
(310,525,o),
(227,525,c),
(106,525,o),
(30,428,o),
(30,252,c),
(30,59,o),
(121,-25,o),
(298,-25,c)
);
},
{
closed = 1;
nodes = (
(559,612,l),
(529,699,l),
(178,637,l),
(203,541,l)
);
}
);
width = 589;
}
);
metricLeft = o;
metricRight = o;
unicode = 240;
},
{
glyphname = e;
kernLeft = c;
kernRight = e;
lastChange = "2016-09-02 15:39:15 +0000";
layers = (
{
anchors = (
{
name = bottom;
pos = (283,0);
},
{
name = ogonek;
pos = (481,32);
},
{
name = top;
pos = (283,499);
}
);
layerId = UUID0;
shapes = (
{
closed = 1;
nodes = (
(355,-15,o),
(413,-3,o),
(461,20,c),
(461,94,l),
(420,69,o),
(363,51,o),
(290,51,c),
(187,51,o),
(128,116,o),
(128,237,c),
(128,397,o),
(175,442,o),
(274,442,c),
(368,442,o),
(413,393,o),
(417,293,c),
(445,303,l),
(96,303,l),
(91,237,l),
(492,237,l),
(494,390,o),
(434,508,o),
(274,508,c),
(138,508,o),
(55,422,o),
(55,250,c),
(55,74,o),
(143,-15,o),
(286,-15,c)
);
}
);
width = 547;
},
{
anchors = (
{
name = bottom;
pos = (301,0);
},
{
name = ogonek;
pos = (481,18);
},
{
name = top;
pos = (291,519);
}
);
layerId = "ECACF70C-BE42-4FA5-B3A0-AFDA71FB1D31";
shapes = (
{
closed = 1;
nodes = (
(382,-15,o),
(439,0,o),
(486,18,c),
(486,169,l),
(456,160,o),
(397,134,o),
(348,134,c),
(248,134,o),
(211,182,o),
(211,269,c),
(211,361,o),
(249,395,o),
(288,395,c),
(342,395,o),
(361,360,o),
(363,249,c),
(382,311,l),
(135,311,l),
(159,204,l),
(538,204,l),
(539,420,o),
(466,529,o),
(297,529,c),
(124,529,o),
(30,422,o),
(30,244,c),
(30,87,o),
(140,-15,o),
(299,-15,c)
);
}
);
width = 568;
}
);
metricLeft = o;
metricRight = o;
unicode = 101;
},
{
glyphname = f;
kernLeft = f;
kernRight = f;
lastChange = "2016-08-22 15:15:49 +0000";
layers = (
{
layerId = UUID0;
shapes = (
{
closed = 1;
nodes = (
(198,0,l),
(198,433,l),
(335,433,l),
(335,499,l),
(198,499,l),
(198,527,ls),
(198,643,o),
(253,643,o),
(299,643,cs),
(313,643,o),
(325,641,o),
(335,639,c),
(335,703,l),
(321,707,o),
(305,709,o),
(287,709,cs),
(247,709,o),
(126,709,o),
(126,526,cs),
(126,499,l),
(40,499,l),
(40,433,l),
(126,433,l),
(126,0,l)
);
}
);
width = 375;
},
{
layerId = "ECACF70C-BE42-4FA5-B3A0-AFDA71FB1D31";
shapes = (
{
closed = 1;
nodes = (
(276,0,l),
(276,374,l),
(377,374,l),
(377,509,l),
(278,509,l),
(278,540,l),
(278,565,o),
(291,585,o),
(320,585,c),
(350,585,o),
(362,572,o),
(377,554,c),
(377,715,l),
(359,721,o),
(325,726,o),
(303,726,c),
(170,726,o),
(97,672,o),
(96,514,c),
(96,509,l),
(25,509,l),
(25,374,l),
(94,374,l),
(94,0,l)
);
}
);
width = 402;
}
);
unicode = 102;
},
{
glyphname = g;
kernLeft = g;
kernRight = g;
lastChange = "2016-09-02 17:51:54 +0000";
layers = (
{
anchors = (
{
name = bottom;
pos = (290,0);
},
{
name = top;
pos = (311,499);
}
);
layerId = UUID0;
shapes = (
{
closed = 1;
nodes = (
(327,-15,o),
(403,5,o),
(442,25,c),
(417,50,l),
(417,-23,ls),
(417,-73,o),
(399,-130,o),
(264,-130,cs),
(208,-130,o),
(162,-116,o),
(130,-107,c),
(130,-175,l),
(166,-184,o),
(214,-198,o),
(272,-198,cs),
(451,-198,o),
(489,-100,o),
(489,-21,c),
(489,383,l),
(489,472,o),
(395,507,o),
(302,507,c),
(192,508,o),
(56,465,o),
(55,236,c),
(55,82,o),
(129,-15,o),
(283,-15,c)
);
},
{
closed = 1;
nodes = (
(174,51,o),
(131,127,o),
(131,236,c),
(131,344,o),
(158,441,o),
(304,441,c),
(364,441,o),
(417,429,o),
(417,373,c),
(417,86,l),
(376,62,o),
(325,51,o),
(283,51,c)
);
}
);
width = 569;
},
{
anchors = (
{
name = bottom;
pos = (303,0);
},
{
name = top;
pos = (333,529);
}
);
layerId = "ECACF70C-BE42-4FA5-B3A0-AFDA71FB1D31";
shapes = (
{
closed = 1;
nodes = (
(339,-15,o),
(376,20,o),
(407,76,c),
(375,95,l),
(375,10,l),
(375,-50,o),
(347,-85,o),
(272,-85,c),
(193,-85,o),
(101,-55,o),
(71,-38,c),
(71,-197,l),
(104,-219,o),
(175,-233,o),
(277,-233,c),
(436,-233,o),
(553,-167,o),
(553,0,c),
(553,384,l),
(553,471,o),
(475,526,o),
(335,526,c),
(136,526,o),
(30,460,o),
(30,238,c),
(30,65,o),
(120,-5,o),
(250,-15,c)
);
},
{
closed = 1;
nodes = (
(255,116,o),
(210,166,o),
(210,250,c),
(210,334,o),
(241,385,o),
(309,385,cs),
(341,385,o),
(375,378,o),
(375,341,c),
(375,133,l),
(356,122,o),
(336,116,o),
(305,116,cs)
);
}
);
width = 603;
}
);
metricLeft = o;
unicode = 103;
},
{
glyphname = h;
kernLeft = h;
kernRight = h;
lastChange = "2016-08-31 20:20:27 +0000";
layers = (
{
anchors = (
{
name = bottom;
pos = (284,0);
},
{
name = center;
pos = (112,604);
},
{
name = top;
pos = (113,720);
}
);
layerId = UUID0;
shapes = (
{
closed = 1;
nodes = (
(152,0,l),
(152,402,l),
(201,429,o),
(248,442,o),
(295,442,c),
(380,442,o),
(423,389,o),
(423,296,c),
(423,0,l),
(495,0,l),
(495,296,l),
(495,441,o),
(426,508,o),
(303,508,c),
(253,508,o),
(195,490,o),
(144,462,c),
(152,443,l),
(152,720,l),
(80,720,l),
(80,0,l)
);
}
);
width = 575;
},
{
anchors = (
{
name = bottom;
pos = (307,-30);
},
{
name = center;
pos = (162,591);
},
{
name = top;
pos = (147,696);
}
);
layerId = "ECACF70C-BE42-4FA5-B3A0-AFDA71FB1D31";
shapes = (
{
closed = 1;
nodes = (
(240,0,l),
(243,361,l),
(247,368,o),
(276,377,o),
(302,377,c),
(355,377,o),
(385,357,o),
(385,303,c),
(385,0,l),
(567,0,l),
(567,347,l),
(567,487,o),
(487,525,o),
(383,525,c),
(296,525,o),
(211,486,o),
(157,431,c),
(243,390,l),
(243,700,l),
(60,700,l),
(60,0,l)
);
}
);
width = 627;
}
);
metricLeft = n;
metricRight = n;
unicode = 104;
},
{
glyphname = i;
kernLeft = h;
kernRight = i;
lastChange = "2016-08-18 01:27:41 +0000";
layers = (
{
anchors = (
{
name = bottom;
pos = (118,0);
},
{
name = ogonek;
pos = (178,10);
}
);
layerId = UUID0;
shapes = (
{
closed = 1;
nodes = (
(156,0,l),
(156,499,l),
(84,499,l),
(84,0,l)
);
},
{
closed = 1;
nodes = (
(160,588,l),
(160,667,l),
(80,667,l),
(80,588,l)
);
}
);
width = 240;
},
{
anchors = (
{
name = bottom;
pos = (150,0);
},
{
name = ogonek;
pos = (263,11);
}
);
layerId = "ECACF70C-BE42-4FA5-B3A0-AFDA71FB1D31";
shapes = (
{
closed = 1;
nodes = (
(246,0,l),
(244,499,l),
(62,499,l),
(62,0,l)
);
},
{
closed = 1;
nodes = (
(246,569,l),
(246,700,l),
(60,700,l),
(60,569,l)
);
}
);
width = 306;
}
);
metricLeft = n;
metricRight = n;
unicode = 105;
},
{
glyphname = dotlessi;
kernLeft = h;
kernRight = i;
lastChange = "2016-08-17 15:46:51 +0000";
layers = (
{
anchors = (
{
name = bottom;
pos = (116,0);
},
{
name = ogonek;
pos = (209,10);
},
{
name = top;
pos = (116,499);
}
);
layerId = UUID0;
shapes = (
{
closed = 1;
nodes = (
(152,0,l),
(152,499,l),
(80,499,l),
(80,0,l)
);
}
);
width = 232;
},
{
anchors = (
{
name = bottom;
pos = (152,0);
},
{
name = ogonek;
pos = (274,10);
},
{
name = top;
pos = (152,499);
}
);
layerId = "ECACF70C-BE42-4FA5-B3A0-AFDA71FB1D31";
shapes = (
{
closed = 1;
nodes = (
(244,0,l),
(242,499,l),
(60,499,l),
(60,0,l)
);
}
);
width = 304;
}
);
metricLeft = n;
metricRight = n;
unicode = 305;
},
{
glyphname = iacute;
kernLeft = h;
kernRight = i;
lastChange = "2016-08-05 09:29:49 +0000";
layers = (
{
layerId = UUID0;
shapes = (
{
closed = 1;
nodes = (
(171,0,l),
(171,499,l),
(99,499,l),
(99,0,l)
);
},
{
closed = 1;
nodes = (
(158,564,l),
(241,679,l),
(167,679,l),
(111,564,l)
);
}
);
width = 270;
},
{
layerId = "ECACF70C-BE42-4FA5-B3A0-AFDA71FB1D31";
shapes = (
{
closed = 1;
nodes = (
(268,0,l),
(268,499,l),
(96,499,l),
(96,0,l)
);
},
{
closed = 1;
nodes = (
(226,556,l),
(319,673,l),
(202,673,l),
(140,556,l)
);
}
);
width = 359;
}
);
unicode = 237;
},
{
glyphname = icircumflex;
kernLeft = h;
kernRight = i;
lastChange = "2016-08-05 09:29:49 +0000";
layers = (
{
layerId = UUID0;
shapes = (
{
closed = 1;
nodes = (
(171,0,l),
(171,499,l),
(99,499,l),
(99,0,l)
);
},
{
closed = 1;
nodes = (
(89,564,l),
(135,634,l),
(180,564,l),
(236,564,l),
(155,684,l),
(114,684,l),
(33,564,l)
);
}
);
width = 270;
},
{
layerId = "ECACF70C-BE42-4FA5-B3A0-AFDA71FB1D31";
shapes = (
{
closed = 1;
nodes = (
(268,0,l),
(268,499,l),
(96,499,l),
(96,0,l)
);
},
{
closed = 1;
nodes = (
(140,556,l),
(182,600,l),
(224,556,l),
(326,556,l),
(206,678,l),
(158,678,l),
(38,556,l)
);
}
);
width = 359;
}
);
unicode = 238;
},
{
glyphname = idieresis;
kernLeft = h;
kernRight = i;
lastChange = "2016-08-05 09:29:49 +0000";
layers = (
{
layerId = UUID0;
shapes = (
{
closed = 1;
nodes = (
(171,0,l),
(171,499,l),
(99,499,l),
(99,0,l)
);
},
{
closed = 1;
nodes = (
(100,564,l),
(100,643,l),
(21,643,l),
(21,564,l)
);
},
{
closed = 1;
nodes = (
(248,564,l),
(248,643,l),
(169,643,l),
(169,564,l)
);
}
);
width = 270;
},
{
layerId = "ECACF70C-BE42-4FA5-B3A0-AFDA71FB1D31";
shapes = (
{
closed = 1;
nodes = (
(268,0,l),
(268,499,l),
(96,499,l),
(96,0,l)
);
},
{
closed = 1;
nodes = (
(157,556,l),
(157,665,l),
(37,665,l),
(37,556,l)
);
},
{
closed = 1;
nodes = (
(327,556,l),
(327,665,l),
(207,665,l),
(207,556,l)
);
}
);
width = 359;
}
);
unicode = 239;
},
{
glyphname = idotbelow;
kernRight = i;
lastChange = "2016-08-05 09:29:49 +0000";
layers = (
{
layerId = UUID0;
shapes = (
{
closed = 1;
nodes = (
(171,0,l),
(171,499,l),
(99,499,l),
(99,0,l)
);
},
{
closed = 1;
nodes = (
(174,-129,l),
(174,-50,l),
(95,-50,l),
(95,-129,l)
);
},
{
closed = 1;
nodes = (
(175,588,l),
(175,667,l),
(95,667,l),
(95,588,l)
);
}
);
width = 270;
},
{
layerId = "ECACF70C-BE42-4FA5-B3A0-AFDA71FB1D31";
shapes = (
{
closed = 1;
nodes = (
(268,0,l),
(268,499,l),
(96,499,l),
(96,0,l)
);
},
{
closed = 1;
nodes = (
(242,-159,l),
(242,-50,l),
(122,-50,l),
(122,-159,l)
);
},
{
closed = 1;
nodes = (
(270,556,l),
(270,687,l),
(94,687,l),
(94,556,l)
);
}
);
width = 359;
}
);
unicode = 7883;
},
{
glyphname = igrave;
kernLeft = h;
kernRight = i;
lastChange = "2016-08-05 09:29:49 +0000";
layers = (
{
layerId = UUID0;
shapes = (
{
closed = 1;
nodes = (
(171,0,l),
(171,499,l),
(99,499,l),
(99,0,l)
);
},
{
closed = 1;
nodes = (
(159,564,l),
(102,679,l),
(28,679,l),
(111,564,l)
);
}
);
width = 270;
},
{
layerId = "ECACF70C-BE42-4FA5-B3A0-AFDA71FB1D31";
shapes = (
{
closed = 1;
nodes = (
(268,0,l),
(268,499,l),
(96,499,l),
(96,0,l)
);
},
{
closed = 1;
nodes = (
(224,563,l),
(162,680,l),
(45,680,l),
(138,563,l)
);
}
);
width = 359;
}
);
unicode = 236;
},
{
glyphname = ihookabove;
kernRight = i;
lastChange = "2016-08-05 09:29:49 +0000";
layers = (
{
layerId = UUID0;
shapes = (
{
closed = 1;
nodes = (
(171,0,l),
(171,499,l),
(99,499,l),
(99,0,l)
);
},
{
closed = 1;
nodes = (
(150,564,l),
(150,588,l),
(187,594,o),
(203,615,o),
(203,641,cs),
(203,695,o),
(153,709,o),
(111,709,cs),
(100,709,o),
(90,708,o),
(80,707,c),
(80,663,l),
(88,665,o),
(97,666,o),
(107,666,cs),
(137,666,o),
(155,656,o),
(155,639,cs),
(155,630,o),
(145,617,o),
(117,616,c),
(117,564,l)
);
}
);
width = 270;
},
{
layerId = "ECACF70C-BE42-4FA5-B3A0-AFDA71FB1D31";
shapes = (
{
closed = 1;
nodes = (
(268,0,l),
(268,499,l),
(96,499,l),
(96,0,l)
);
},
{
closed = 1;
nodes = (
(211,556,l),
(211,579,l),
(211,579,o),
(260,586,o),
(260,634,cs),
(260,682,o),
(218,706,o),
(168,706,cs),
(153,706,o),
(127,703,o),
(118,701,c),
(118,648,l),
(131,651,o),
(141,652,o),
(149,652,cs),
(163,652,o),
(179,648,o),
(179,631,cs),
(179,618,o),
(164,615,o),
(153,615,c),
(153,556,l)
);
}
);
width = 359;
}
);
unicode = 7881;
},
{
glyphname = imacron;
kernLeft = h;
kernRight = i;
lastChange = "2016-08-05 09:29:49 +0000";
layers = (
{
layerId = UUID0;
shapes = (
{
closed = 1;
nodes = (
(171,0,l),
(171,499,l),
(99,499,l),
(99,0,l)
);
},
{
closed = 1;
nodes = (
(251,576,l),
(251,629,l),
(18,629,l),
(18,576,l)
);
}
);
width = 270;
},
{
layerId = "ECACF70C-BE42-4FA5-B3A0-AFDA71FB1D31";
shapes = (
{
closed = 1;
nodes = (
(268,0,l),
(268,499,l),
(96,499,l),
(96,0,l)
);
},
{
closed = 1;
nodes = (
(299,556,l),
(299,644,l),
(65,644,l),
(65,556,l)
);
}
);
width = 359;
}
);
unicode = 299;
},
{
glyphname = iogonek;
kernLeft = h;
kernRight = i;
lastChange = "2016-08-18 16:18:02 +0000";
layers = (
{
anchors = (
{
name = _ogonek;
pos = (178,10);
}
);
layerId = UUID0;
shapes = (
{
closed = 1;
nodes = (
(118,-173,o),
(137,-164,o),
(153,-155,c),
(153,-92,l),
(145,-100,o),
(124,-119,o),
(98,-119,cs),
(76,-119,o),
(64,-109,o),
(64,-85,cs),
(64,-56,o),
(103,-25,o),
(156,0,c),
(87,10,l),
(39,-10,o),
(5,-57,o),
(5,-90,cs),
(5,-143,o),
(39,-173,o),
(93,-173,cs)
);
},
{
ref = i;
}
);
width = 240;
},
{
anchors = (
{
name = _ogonek;
pos = (263,11);
}
);
layerId = "ECACF70C-BE42-4FA5-B3A0-AFDA71FB1D31";
shapes = (
{
closed = 1;
nodes = (
(205,-193,o),
(232,-178,o),
(253,-167,c),
(253,-72,l),
(230,-93,o),
(207,-109,o),
(183,-109,cs),
(163,-109,o),
(148,-103,o),
(148,-73,cs),
(148,-46,o),
(192,-20,o),
(247,1,c),
(143,32,l),
(62,1,o),
(5,-35,o),
(5,-92,cs),
(5,-160,o),
(48,-193,o),
(148,-193,cs)
);
},
{
ref = i;
}
);
width = 306;
}
);
unicode = 303;
},
{
glyphname = j;
kernLeft = h;
kernRight = i;
lastChange = "2016-08-17 15:13:16 +0000";
layers = (
{
layerId = UUID0;
shapes = (
{
closed = 1;
nodes = (
(127,-193,o),
(184,-139,o),
(184,-29,cs),
(184,499,l),
(112,499,l),
(112,-25,ls),
(112,-90,o),
(97,-124,o),
(10,-126,c),
(10,-193,l)
);
},
{
closed = 1;
nodes = (
(188,588,l),
(188,667,l),
(108,667,l),
(108,588,l)
);
}
);
width = 268;
},
{
layerId = "ECACF70C-BE42-4FA5-B3A0-AFDA71FB1D31";
shapes = (
{
closed = 1;
nodes = (
(143,-193,o),
(259,-153,o),
(259,7,c),
(257,509,l),
(75,509,l),
(75,5,l),
(75,-39,o),
(45,-58,o),
(5,-49,c),
(5,-193,l)
);
},
{
closed = 1;
nodes = (
(259,579,l),
(259,710,l),
(73,710,l),
(73,579,l)
);
}
);
width = 319;
}
);
metricRight = n;
unicode = 106;
},
{
glyphname = dotlessj;
kernLeft = h;
kernRight = i;
lastChange = "2016-08-05 09:29:49 +0000";
layers = (
{
layerId = UUID0;
shapes = (
{
closed = 1;
nodes = (
(120,-193,o),
(177,-139,o),
(177,-29,cs),
(177,499,l),
(105,499,l),
(105,-25,ls),
(105,-90,o),
(90,-124,o),
(3,-126,c),
(3,-193,l)
);
}
);
width = 251;
},
{
layerId = "ECACF70C-BE42-4FA5-B3A0-AFDA71FB1D31";
shapes = (
{
closed = 1;
nodes = (
(141,-193,o),
(257,-153,o),
(257,7,cs),
(257,499,l),
(85,499,l),
(85,-8,ls),
(85,-61,o),
(40,-69,o),
(3,-69,c),
(3,-193,l)
);
}
);
width = 330;
}
);
unicode = 567;
},
{
glyphname = jcircumflex;
kernLeft = h;
kernRight = i;
lastChange = "2016-08-05 09:29:49 +0000";
layers = (
{
layerId = UUID0;
shapes = (
{
closed = 1;
nodes = (
(120,-193,o),
(177,-139,o),
(177,-29,cs),
(177,499,l),
(105,499,l),
(105,-25,ls),
(105,-90,o),
(90,-124,o),
(3,-126,c),
(3,-193,l)
);
},
{
closed = 1;
nodes = (
(96,564,l),
(141,634,l),
(186,564,l),
(242,564,l),
(162,684,l),
(120,684,l),
(40,564,l)
);
}
);
width = 251;
},
{
layerId = "ECACF70C-BE42-4FA5-B3A0-AFDA71FB1D31";
shapes = (
{
closed = 1;
nodes = (
(141,-193,o),
(257,-153,o),
(257,7,cs),
(257,499,l),
(85,499,l),
(85,-8,ls),
(85,-61,o),
(40,-69,o),
(3,-69,c),
(3,-193,l)
);
},
{
closed = 1;
nodes = (
(129,556,l),
(171,600,l),
(213,556,l),
(315,556,l),
(195,678,l),
(147,678,l),
(27,556,l)
);
}
);
width = 324;
}
);
unicode = 309;
},
{
glyphname = k;
kernLeft = h;
kernRight = k;
lastChange = "2016-08-17 15:13:20 +0000";
layers = (
{
layerId = UUID0;
shapes = (
{
closed = 1;
nodes = (
(152,240,l),
(445,499,l),
(355,499,l),
(136,299,l)
);
},
{
closed = 1;
nodes = (
(152,689,l),
(80,689,l),
(80,0,l),
(152,0,l)
);
},
{
closed = 1;
nodes = (
(123,265,l),
(385,0,l),
(481,0,l),
(172,311,l)
);
}
);
width = 511;
},
{
layerId = "ECACF70C-BE42-4FA5-B3A0-AFDA71FB1D31";
shapes = (
{
closed = 1;
nodes = (
(317,196,l),
(594,509,l),
(374,509,l),
(202,271,l)
);
},
{
closed = 1;
nodes = (
(243,700,l),
(60,700,l),
(60,0,l),
(240,0,l)
);
},
{
closed = 1;
nodes = (
(217,233,l),
(368,0,l),
(596,0,l),
(348,358,l)
);
}
);
width = 621;
}
);
metricLeft = n;
unicode = 107;
},
{
glyphname = kcommaaccent;
kernLeft = h;
kernRight = k;
lastChange = "2016-08-05 09:29:49 +0000";
layers = (
{
layerId = UUID0;
shapes = (
{
closed = 1;
nodes = (
(164,0,l),
(164,152,l),
(226,219,l),
(418,0,l),
(513,0,l),
(273,270,l),
(486,499,l),
(389,499,l),
(164,254,l),
(164,689,l),
(92,689,l),
(92,0,l)
);
},
{
closed = 1;
nodes = (
(257,-183,o),
(313,-145,o),
(313,-49,c),
(253,-49,l),
(253,-78,o),
(250,-124,o),
(212,-139,c),
(212,-193,l)
);
}
);
width = 549;
},
{
layerId = "ECACF70C-BE42-4FA5-B3A0-AFDA71FB1D31";
shapes = (
{
closed = 1;
nodes = (
(259,0,l),
(259,143,l),
(276,161,l),
(398,0,l),
(606,0,l),
(381,279,l),
(584,499,l),
(364,499,l),
(259,378,l),
(259,686,l),
(87,686,l),
(87,0,l)
);
},
{
closed = 1;
nodes = (
(323,-194,o),
(381,-130,o),
(379,-50,c),
(284,-50,l),
(285,-97,o),
(276,-124,o),
(246,-129,c),
(246,-194,l)
);
}
);
width = 644;
}
);
unicode = 311;
},
{
glyphname = kgreenlandic;
kernLeft = h;
lastChange = "2016-08-05 09:29:49 +0000";
layers = (
{
layerId = UUID0;
shapes = (
{
closed = 1;
nodes = (
(164,0,l),
(164,152,l),
(226,219,l),
(418,0,l),
(513,0,l),
(273,270,l),
(486,499,l),
(389,499,l),
(164,254,l),
(164,499,l),
(92,499,l),
(92,0,l)
);
}
);
width = 549;
},
{
layerId = "ECACF70C-BE42-4FA5-B3A0-AFDA71FB1D31";
shapes = (
{
closed = 1;
nodes = (
(259,0,l),
(259,143,l),
(276,161,l),
(398,0,l),
(606,0,l),
(381,279,l),
(584,499,l),
(364,499,l),
(259,378,l),
(259,499,l),
(87,499,l),
(87,0,l)
);
}
);
width = 644;
}
);
unicode = 312;
},
{
glyphname = l;
kernLeft = h;
kernRight = i;
lastChange = "2017-07-04 12:27:53 +0000";
layers = (
{
anchors = (
{
name = bottom;
pos = (116,0);
},
{
name = center;
pos = (256,320);
},
{
name = top;
pos = (116,689);
},
{
name = topright;
pos = (207,499);
}
);
layerId = UUID0;
shapes = (
{
closed = 1;
nodes = (
(152,689,l),
(80,689,l),
(80,0,l),
(152,0,l)
);
}
);
width = 232;
},
{
anchors = (
{
name = bottom;
pos = (150,0);
},
{
name = center;
pos = (340,389);
},
{
name = top;
pos = (150,667);
},
{
name = topright;
pos = (270,499);
}
);
layerId = "ECACF70C-BE42-4FA5-B3A0-AFDA71FB1D31";
shapes = (
{
closed = 1;
nodes = (
(240,700,l),
(60,700,l),
(60,0,l),
(240,0,l)
);
}
);
width = 300;
}
);
metricLeft = n;
metricRight = n;
unicode = 108;
},
{
glyphname = lcaron;
kernLeft = h;
kernRight = i;
lastChange = "2016-08-05 09:29:49 +0000";
layers = (
{
layerId = UUID0;
shapes = (
{
closed = 1;
nodes = (
(173,0,l),
(173,689,l),
(101,689,l),
(101,0,l)
);
},
{
closed = 1;
nodes = (
(251,556,o),
(307,594,o),
(307,689,c),
(247,689,l),
(247,661,o),
(244,614,o),
(207,600,c),
(207,546,l)
);
}
);
width = 270;
},
{
layerId = "ECACF70C-BE42-4FA5-B3A0-AFDA71FB1D31";
shapes = (
{
closed = 1;
nodes = (
(273,0,l),
(273,689,l),
(101,689,l),
(101,0,l)
);
},
{
closed = 1;
nodes = (
(403,545,o),
(461,609,o),
(459,689,c),
(364,689,l),
(365,642,o),
(356,615,o),
(326,610,c),
(326,545,l)
);
}
);
width = 417;
}
);
unicode = 318;
},
{
glyphname = ldot;
kernLeft = h;
lastChange = "2017-07-04 12:32:10 +0000";
layers = (
{
anchors = (
{
name = bottom;
pos = (116,0);
},
{
name = center;
pos = (274,329);
},
{
name = top;
pos = (116,689);
},
{
name = topright;
pos = (207,499);
}
);
layerId = UUID0;
shapes = (
{
closed = 1;
nodes = (
(152,689,l),
(80,689,l),
(80,0,l),
(152,0,l)
);
},
{
closed = 1;
nodes = (
(315,286,l),
(315,366,l),
(236,366,l),
(236,286,l)
);
}
);
width = 325;
},
{
anchors = (
{
name = bottom;
pos = (150,0);
},
{
name = center;
pos = (379,349);
},
{
name = top;
pos = (150,667);
},
{
name = topright;
pos = (270,499);
}
);
layerId = "ECACF70C-BE42-4FA5-B3A0-AFDA71FB1D31";
shapes = (
{
closed = 1;
nodes = (
(240,700,l),
(60,700,l),
(60,0,l),
(240,0,l)
);
},
{
closed = 1;
nodes = (
(453,278,l),
(453,416,l),
(309,416,l),
(309,278,l)
);
}
);
width = 478;
}
);
unicode = 320;
},
{
glyphname = lslash;
lastChange = "2016-08-05 09:29:49 +0000";
layers = (
{
layerId = UUID0;
shapes = (
{
closed = 1;
nodes = (
(173,0,l),
(173,388,l),
(251,440,l),
(251,504,l),
(173,452,l),
(173,689,l),
(101,689,l),
(101,403,l),
(35,359,l),
(35,295,l),
(101,339,l),
(101,0,l)
);
}
);
width = 270;
},
{
layerId = "ECACF70C-BE42-4FA5-B3A0-AFDA71FB1D31";
shapes = (
{
closed = 1;
nodes = (
(288,0,l),
(288,310,l),
(418,382,l),
(418,504,l),
(288,432,l),
(288,689,l),
(116,689,l),
(116,338,l),
(18,284,l),
(18,162,l),
(116,216,l),
(116,0,l)
);
}
);
width = 431;
}
);
unicode = 322;
},
{
glyphname = m;
kernLeft = m;
kernRight = h;
lastChange = "2016-08-22 18:23:07 +0000";
layers = (
{
anchors = (
{
name = bottom;
pos = (442,0);
},
{
name = top;
pos = (442,499);
}
);
layerId = UUID0;
shapes = (
{
closed = 1;
nodes = (
(489,441,o),
(436,508,o),
(291,508,c),
(216,508,o),
(145,492,o),
(80,459,c),
(80,0,l),
(152,0,l),
(152,423,l),
(197,436,o),
(241,443,o),
(283,443,c),
(403,443,o),
(417,372,o),
(417,325,c),
(417,0,l),
(489,0,l),
(489,325,l)
);
},
{
closed = 1;
nodes = (
(466,403,l),
(511,432,o),
(555,443,o),
(597,443,c),
(717,443,o),
(731,372,o),
(731,325,c),
(731,0,l),
(803,0,l),
(803,325,l),
(803,441,o),
(750,508,o),
(605,508,c),
(530,508,o),
(459,488,o),
(394,439,c)
);
}
);
width = 883;
},
{
anchors = (
{
name = bottom;
pos = (465,0);
},
{
name = top;
pos = (465,499);
}
);
background = {
shapes = (
{
closed = 1;
nodes = (
(238,0,l),
(238,367,l),
(249,370,o),
(283,376,o),
(298,376,cs),
(354,376,o),
(363,333,o),
(363,303,cs),
(363,0,l),
(535,0,l),
(535,294,ls),
(535,318,o),
(527,353,o),
(522,368,c),
(537,373,o),
(575,378,o),
(591,378,cs),
(649,378,o),
(660,333,o),
(660,301,cs),
(660,0,l),
(832,0,l),
(832,294,ls),
(832,435,o),
(745,506,o),
(608,506,cs),
(550,506,o),
(473,490,o),
(435,477,c),
(402,496,o),
(361,506,o),
(313,506,cs),
(181,506,o),
(70,455,o),
(66,454,c),
(66,0,l)
);
}
);
};
layerId = "ECACF70C-BE42-4FA5-B3A0-AFDA71FB1D31";
shapes = (
{
closed = 1;
nodes = (
(556,487,o),
(476,525,o),
(344,525,c),
(253,525,o),
(104,489,o),
(60,465,c),
(60,0,l),
(242,0,l),
(242,361,l),
(246,368,o),
(265,377,o),
(291,377,c),
(344,377,o),
(374,357,o),
(374,303,c),
(374,0,l),
(556,0,l),
(556,347,l)
);
},
{
closed = 1;
nodes = (
(556,361,l),
(560,368,o),
(579,377,o),
(605,377,c),
(658,377,o),
(688,357,o),
(688,303,c),
(688,0,l),
(870,0,l),
(870,347,l),
(870,487,o),
(790,525,o),
(658,525,c),
(567,525,o),
(437,480,o),
(378,425,c)
);
}
);
width = 930;
}
);
metricLeft = n;
metricRight = n;
unicode = 109;
},
{
glyphname = n;
kernLeft = m;
kernRight = h;
lastChange = "2016-09-02 15:41:38 +0000";
layers = (
{
anchors = (
{
name = bottom;
pos = (286,0);
},
{
name = top;
pos = (286,499);
}
);
layerId = UUID0;
shapes = (
{
closed = 1;
nodes = (
(80,0,l),
(152,0,l),
(152,423,l),
(197,436,o),
(241,443,o),
(283,443,c),
(403,443,o),
(417,372,o),
(417,325,c),
(417,0,l),
(489,0,l),
(489,325,l),
(489,441,o),
(436,508,o),
(291,508,c),
(216,508,o),
(145,492,o),
(80,459,c)
);
}
);
width = 569;
},
{
anchors = (
{
name = bottom;
pos = (311,0);
},
{
name = top;
pos = (311,519);
}
);
layerId = "ECACF70C-BE42-4FA5-B3A0-AFDA71FB1D31";
shapes = (
{
closed = 1;
nodes = (
(60,0,l),
(242,0,l),
(242,361,l),
(246,368,o),
(275,377,o),
(301,377,c),
(354,377,o),
(384,357,o),
(384,303,c),
(384,0,l),
(566,0,l),
(566,347,l),
(566,487,o),
(476,525,o),
(344,525,c),
(253,525,o),
(104,489,o),
(60,465,c)
);
}
);
width = 626;
}
);
unicode = 110;
},
{
glyphname = napostrophe;
kernLeft = m;
kernRight = h;
lastChange = "2016-08-05 09:29:49 +0000";
layers = (
{
layerId = UUID0;
shapes = (
{
closed = 1;
nodes = (
(154,0,l),
(154,416,l),
(189,426,o),
(234,436,o),
(286,436,cs),
(406,436,o),
(419,372,o),
(419,325,cs),
(419,0,l),
(491,0,l),
(491,325,ls),
(491,441,o),
(419,508,o),
(293,508,cs),
(190,508,o),
(106,471,o),
(82,459,c),
(82,0,l)
);
},
{
closed = 1;
nodes = (
(76,530,o),
(133,568,o),
(133,664,c),
(73,664,l),
(73,635,o),
(70,589,o),
(32,574,c),
(32,520,l)
);
}
);
width = 581;
},
{
layerId = "ECACF70C-BE42-4FA5-B3A0-AFDA71FB1D31";
shapes = (
{
closed = 1;
nodes = (
(254,0,l),
(254,370,l),
(269,374,o),
(284,376,o),
(304,376,cs),
(383,376,o),
(388,344,o),
(388,321,cs),
(388,0,l),
(560,0,l),
(560,294,ls),
(560,427,o),
(471,506,o),
(330,506,cs),
(194,506,o),
(86,448,o),
(82,446,c),
(82,0,l)
);
},
{
closed = 1;
nodes = (
(112,520,o),
(170,584,o),
(168,664,c),
(73,664,l),
(74,617,o),
(65,590,o),
(35,585,c),
(35,520,l)
);
}
);
width = 647;
}
);
unicode = 329;
},
{
glyphname = nhookleft;
lastChange = "2016-08-18 17:13:38 +0000";
layers = (
{
anchors = (
{
name = bottom;
pos = (286,0);
},
{
name = top;
pos = (286,499);
}
);
layerId = UUID0;
shapes = (
{
closed = 1;
nodes = (
(80,-61,o),
(65,-95,o),
(-22,-97,c),
(-22,-164,l),
(95,-164,o),
(152,-110,o),
(152,0,c),
(152,423,l),
(197,436,o),
(241,443,o),
(283,443,c),
(403,443,o),
(417,372,o),
(417,325,c),
(417,0,l),
(489,0,l),
(489,325,l),
(489,441,o),
(436,508,o),
(291,508,c),
(216,508,o),
(145,492,o),
(80,459,c),
(80,4,l)
);
}
);
width = 569;
},
{
anchors = (
{
name = bottom;
pos = (311,0);
},
{
name = top;
pos = (311,499);
}
);
layerId = "ECACF70C-BE42-4FA5-B3A0-AFDA71FB1D31";
shapes = (
{
closed = 1;
nodes = (
(60,-39,o),
(30,-58,o),
(-10,-49,c),
(-10,-193,l),
(128,-193,o),
(242,-153,o),
(242,7,c),
(242,361,l),
(246,368,o),
(275,377,o),
(301,377,c),
(354,377,o),
(384,357,o),
(384,303,c),
(384,0,l),
(566,0,l),
(566,347,l),
(566,487,o),
(476,525,o),
(344,525,c),
(253,525,o),
(104,489,o),
(60,465,c),
(60,5,l)
);
}
);
width = 626;
}
);
unicode = 626;
},
{
glyphname = eng;
kernLeft = m;
kernRight = h;
lastChange = "2016-08-18 17:10:30 +0000";
layers = (
{
layerId = UUID0;
shapes = (
{
closed = 1;
nodes = (
(154,0,l),
(154,416,l),
(189,426,o),
(234,436,o),
(286,436,cs),
(406,436,o),
(419,372,o),
(419,325,cs),
(419,-4,ls),
(419,-69,o),
(404,-104,o),
(317,-105,c),
(317,-172,l),
(434,-172,o),
(491,-119,o),
(491,-9,cs),
(491,325,ls),
(491,441,o),
(419,508,o),
(293,508,cs),
(190,508,o),
(106,471,o),
(82,459,c),
(82,0,l)
);
}
);
width = 581;
},
{
layerId = "ECACF70C-BE42-4FA5-B3A0-AFDA71FB1D31";
shapes = (
{
closed = 1;
nodes = (
(234,0,l),
(234,331,l),
(237,336,o),
(260,353,o),
(286,353,c),
(339,353,o),
(360,323,o),
(360,269,c),
(360,2,l),
(360,-51,o),
(315,-59,o),
(278,-59,c),
(278,-193,l),
(416,-193,o),
(538,-160,o),
(538,0,c),
(538,331,l),
(538,467,o),
(432,506,o),
(300,506,c),
(209,506,o),
(100,450,o),
(56,412,c),
(56,0,l)
);
}
);
width = 639;
}
);
unicode = 331;
},
{
glyphname = o;
kernLeft = c;
kernRight = b;
lastChange = "2016-09-07 23:13:31 +0000";
layers = (
{
anchors = (
{
name = bottom;
pos = (287,0);
},
{
name = center;
pos = (287,250);
},
{
name = ogonek;
pos = (402,10);
},
{
name = top;
pos = (287,499);
},
{
name = topright;
pos = (415,522);
}
);
layerId = UUID0;
shapes = (
{
closed = 1;
nodes = (
(432,-15,o),
(514,84,o),
(514,248,c),
(514,403,o),
(444,508,o),
(283,508,c),
(137,508,o),
(55,421,o),
(55,248,c),
(55,82,o),
(129,-15,o),
(285,-15,c)
);
},
{
closed = 1;
nodes = (
(168,51,o),
(127,130,o),
(127,248,c),
(127,357,o),
(164,442,o),
(284,442,c),
(401,442,o),
(442,366,o),
(442,248,c),
(442,138,o),
(405,51,o),
(284,51,c)
);
}
);
width = 569;
},
{
anchors = (
{
name = bottom;
pos = (300,0);
},
{
name = center;
pos = (300,250);
},
{
name = ogonek;
pos = (447,10);
},
{
name = top;
pos = (300,529);
},
{
name = topright;
pos = (521,490);
}
);
layerId = "ECACF70C-BE42-4FA5-B3A0-AFDA71FB1D31";
shapes = (
{
closed = 1;
nodes = (
(472,-15,o),
(569,75,o),
(569,258,c),
(569,456,o),
(472,529,o),
(298,529,c),
(121,529,o),
(30,456,o),
(30,258,c),
(30,75,o),
(121,-15,o),
(298,-15,c)
);
},
{
closed = 1;
nodes = (
(241,127,o),
(210,163,o),
(210,258,c),
(210,367,o),
(241,389,o),
(298,389,c),
(351,389,o),
(389,367,o),
(389,258,c),
(389,165,o),
(351,127,o),
(298,127,c)
);
}
);
width = 599;
}
);
unicode = 111;
},
{
glyphname = oslash;
kernLeft = oslash;
kernRight = oslash;
lastChange = "2016-08-18 17:04:57 +0000";
layers = (
{
anchors = (
{
name = top;
pos = (287,499);
}
);
layerId = UUID0;
shapes = (
{
closed = 1;
nodes = (
(536,499,l),
(458,499,l),
(37,0,l),
(115,0,l)
);
},
{
ref = o;
}
);
width = 574;
},
{
anchors = (
{
name = top;
pos = (307,499);
}
);
layerId = "ECACF70C-BE42-4FA5-B3A0-AFDA71FB1D31";
shapes = (
{
closed = 1;
nodes = (
(600,499,l),
(439,499,l),
(11,0,l),
(171,0,l)
);
},
{
ref = o;
}
);
width = 613;
}
);
unicode = 248;
},
{
glyphname = p;
kernRight = b;
lastChange = "2016-09-02 15:41:11 +0000";
layers = (
{
layerId = UUID0;
shapes = (
{
closed = 1;
nodes = (
(430,-14,o),
(514,83,o),
(514,237,c),
(514,441,o),
(401,508,o),
(282,508,c),
(200,507,o),
(80,491,o),
(80,409,c),
(80,-217,l),
(152,-217,l),
(152,51,l),
(127,26,l),
(166,6,o),
(232,-14,o),
(276,-14,c)
);
},
{
closed = 1;
nodes = (
(234,52,o),
(193,63,o),
(152,87,c),
(152,396,l),
(152,425,o),
(212,442,o),
(281,442,c),
(411,442,o),
(438,345,o),
(438,237,c),
(438,128,o),
(385,52,o),
(276,52,c)
);
}
);
width = 569;
},
{
layerId = "ECACF70C-BE42-4FA5-B3A0-AFDA71FB1D31";
shapes = (
{
closed = 1;
nodes = (
(501,-15,o),
(584,95,o),
(584,253,c),
(584,462,o),
(482,529,o),
(317,529,c),
(166,529,o),
(60,482,o),
(60,395,c),
(60,-165,l),
(238,-165,l),
(238,94,l),
(206,38,l),
(252,-19,o),
(341,-15,o),
(366,-15,c)
);
},
{
closed = 1;
nodes = (
(285,127,o),
(256,132,o),
(238,142,c),
(238,350,l),
(238,367,o),
(248,379,o),
(309,379,c),
(378,379,o),
(404,344,o),
(404,260,c),
(404,150,o),
(368,127,o),
(303,127,c)
);
}
);
width = 614;
}
);
metricLeft = n;
metricRight = o;
unicode = 112;
},
{
glyphname = thorn;
kernLeft = b;
kernRight = b;
lastChange = "2016-08-18 17:06:27 +0000";
layers = (
{
layerId = UUID0;
shapes = (
{
closed = 1;
nodes = (
(152,689,l),
(80,689,l),
(80,-200,l),
(152,-200,l)
);
},
{
closed = 1;
nodes = (
(127,26,l),
(166,6,o),
(232,-14,o),
(276,-14,c),
(430,-14,o),
(514,83,o),
(514,237,c),
(514,441,o),
(401,508,o),
(282,508,c),
(200,507,o),
(80,491,o),
(80,409,c),
(152,396,l),
(152,425,o),
(212,442,o),
(281,442,c),
(411,442,o),
(438,345,o),
(438,237,c),
(438,128,o),
(385,52,o),
(276,52,c),
(234,52,o),
(193,63,o),
(152,87,c)
);
}
);
width = 569;
},
{
background = {
shapes = (
{
closed = 1;
nodes = (
(240,-183,l),
(240,2,l),
(254,0,o),
(292,-1,o),
(305,-1,cs),
(449,-1,o),
(532,88,o),
(532,251,cs),
(532,414,o),
(449,503,o),
(305,503,cs),
(292,503,o),
(254,502,o),
(240,500,c),
(240,685,l),
(69,685,l),
(69,-183,l)
);
},
{
closed = 1;
nodes = (
(255,106,o),
(252,107,o),
(240,108,c),
(240,394,l),
(252,395,o),
(255,396,o),
(273,396,c),
(349,391,o),
(360,313,o),
(360,251,cs),
(360,189,o),
(349,111,o),
(273,106,c)
);
}
);
};
layerId = "ECACF70C-BE42-4FA5-B3A0-AFDA71FB1D31";
shapes = (
{
closed = 1;
nodes = (
(240,700,l),
(60,700,l),
(60,-178,l),
(240,-178,l)
);
},
{
closed = 1;
nodes = (
(208,28,l),
(254,-29,o),
(333,-25,o),
(358,-25,c),
(493,-25,o),
(576,85,o),
(576,233,c),
(576,438,o),
(474,505,o),
(319,505,c),
(250,505,o),
(135,485,o),
(83,470,c),
(240,341,l),
(263,351,o),
(294,355,o),
(311,355,c),
(370,355,o),
(396,320,o),
(396,240,c),
(396,140,o),
(360,117,o),
(305,117,c),
(287,117,o),
(258,122,o),
(240,132,c)
);
}
);
width = 606;
}
);
metricLeft = n;
metricRight = o;
unicode = 254;
},
{
glyphname = q;
kernLeft = c;
kernRight = h;
lastChange = "2016-08-23 11:23:36 +0000";
layers = (
{
layerId = UUID0;
shapes = (
{
closed = 1;
nodes = (
(192,509,o),
(56,466,o),
(55,237,c),
(55,83,o),
(139,-14,o),
(293,-14,c),
(337,-14,o),
(403,6,o),
(442,26,c),
(417,51,l),
(417,-217,l),
(489,-217,l),
(489,389,l),
(489,483,o),
(400,508,o),
(309,508,c)
);
},
{
closed = 1;
nodes = (
(352,442,o),
(417,426,o),
(417,389,c),
(417,87,l),
(376,63,o),
(335,52,o),
(293,52,c),
(184,52,o),
(131,128,o),
(131,237,c),
(131,345,o),
(158,442,o),
(302,442,c)
);
}
);
width = 569;
},
{
layerId = "ECACF70C-BE42-4FA5-B3A0-AFDA71FB1D31";
shapes = (
{
closed = 1;
nodes = (
(132,525,o),
(30,447,o),
(30,246,c),
(30,75,o),
(113,-15,o),
(259,-15,c),
(282,-15,o),
(362,-20,o),
(407,48,c),
(377,104,l),
(377,-185,l),
(555,-185,l),
(555,374,l),
(555,489,o),
(448,525,o),
(308,525,c)
);
},
{
closed = 1;
nodes = (
(349,376,o),
(377,362,o),
(377,333,c),
(377,142,l),
(359,132,o),
(331,127,o),
(311,127,c),
(259,127,o),
(210,153,o),
(210,259,c),
(210,338,o),
(244,376,o),
(308,376,c)
);
}
);
width = 615;
}
);
metricLeft = o;
metricRight = n;
unicode = 113;
},
{
glyphname = r;
kernLeft = r;
kernRight = f;
lastChange = "2016-09-02 15:41:22 +0000";
layers = (
{
anchors = (
{
name = bottom;
pos = (98,0);
},
{
name = top;
pos = (181,499);
}
);
layerId = UUID0;
shapes = (
{
closed = 1;
nodes = (
(152,0,l),
(152,424,l),
(213,435,o),
(273,446,o),
(342,438,c),
(342,502,l),
(331,505,o),
(320,508,o),
(310,508,cs),
(205,508,o),
(104,469,o),
(80,459,c),
(80,0,l)
);
}
);
width = 377;
},
{
anchors = (
{
name = bottom;
pos = (138,0);
},
{
name = top;
pos = (208,519);
}
);
background = {
shapes = (
{
closed = 1;
nodes = (
(242,0,l),
(242,381,l),
(278,381,o),
(358,368,o),
(385,362,c),
(385,525,l),
(222,521,o),
(77,457,o),
(60,450,c),
(60,0,l)
);
}
);
};
layerId = "ECACF70C-BE42-4FA5-B3A0-AFDA71FB1D31";
shapes = (
{
closed = 1;
nodes = (
(242,0,l),
(242,377,l),
(278,383,o),
(398,376,o),
(435,365,c),
(435,494,l),
(412,513,o),
(369,526,o),
(284,526,cs),
(196,526,o),
(90,479,o),
(60,450,c),
(60,0,l)
);
}
);
width = 450;
}
);
metricLeft = n;
unicode = 114;
},
{
glyphname = s;
kernLeft = s;
kernRight = s;
lastChange = "2016-09-02 15:39:33 +0000";
layers = (
{
anchors = (
{
name = bottom;
pos = (203,0);
},
{
name = top;
pos = (233,499);
}
);
layerId = UUID0;
shapes = (
{
closed = 1;
nodes = (
(307,-15,o),
(401,32,o),
(401,139,c),
(401,242,o),
(314,265,o),
(247,286,c),
(185,303,o),
(129,319,o),
(129,375,c),
(129,420,o),
(180,442,o),
(235,442,c),
(289,442,o),
(323,423,o),
(374,397,c),
(374,469,l),
(329,489,o),
(291,508,o),
(231,508,c),
(148,508,o),
(57,466,o),
(57,365,c),
(57,262,o),
(146,241,o),
(224,219,c),
(275,196,o),
(329,186,o),
(329,130,c),
(329,83,o),
(283,51,o),
(216,51,c),
(152,51,o),
(116,68,o),
(55,103,c),
(55,27,l),
(107,0,o),
(149,-15,o),
(221,-15,c)
);
}
);
width = 456;
},
{
anchors = (
{
name = bottom;
pos = (231,0);
},
{
name = top;
pos = (242,519);
}
);
layerId = "ECACF70C-BE42-4FA5-B3A0-AFDA71FB1D31";
shapes = (
{
closed = 1;
nodes = (
(344,-15,o),
(454,26,o),
(458,154,c),
(458,281,o),
(370,297,o),
(304,312,c),
(266,322,o),
(235,329,o),
(235,359,c),
(235,377,o),
(243,393,o),
(293,393,c),
(352,393,o),
(397,363,o),
(440,339,c),
(439,474,l),
(401,500,o),
(358,516,o),
(265,520,c),
(171,522,o),
(45,478,o),
(45,338,c),
(45,238,o),
(104,192,o),
(164,182,cs),
(218,173,o),
(269,161,o),
(269,137,c),
(269,123,o),
(264,110,o),
(225,110,c),
(151,110,o),
(82,147,o),
(50,174,c),
(50,20,l),
(91,5,o),
(142,-15,o),
(214,-15,cs)
);
}
);
width = 493;
}
);
unicode = 115;
},
{
glyphname = germandbls;
kernLeft = h;
lastChange = "2016-08-23 11:21:02 +0000";
layers = (
{
layerId = UUID0;
shapes = (
{
closed = 1;
nodes = (
(152,0,l),
(152,430,ls),
(152,542,o),
(190,612,o),
(288,612,cs),
(359,612,o),
(423,584,o),
(423,510,cs),
(423,440,o),
(386,391,o),
(295,391,c),
(295,328,l),
(371,328,o),
(456,271,o),
(456,177,cs),
(456,96,o),
(413,53,o),
(336,53,cs),
(311,53,o),
(281,59,o),
(249,71,c),
(249,0,l),
(280,-8,o),
(307,-13,o),
(333,-13,cs),
(467,-13,o),
(530,74,o),
(530,173,cs),
(530,284,o),
(455,354,o),
(404,370,c),
(451,386,o),
(497,437,o),
(497,519,cs),
(497,621,o),
(406,676,o),
(286,676,cs),
(137,676,o),
(80,563,o),
(80,423,cs),
(80,0,l)
);
}
);
width = 585;
},
{
background = {
shapes = (
{
closed = 1;
nodes = (
(242,700,l),
(62,700,l),
(62,0,l),
(242,0,l)
);
}
);
};
layerId = "ECACF70C-BE42-4FA5-B3A0-AFDA71FB1D31";
shapes = (
{
closed = 1;
nodes = (
(243,0,l),
(243,444,ls),
(243,519,o),
(282,557,o),
(336,557,cs),
(386,557,o),
(412,529,o),
(412,494,cs),
(412,449,o),
(381,431,o),
(334,431,c),
(334,287,l),
(390,285,o),
(443,270,o),
(443,201,cs),
(443,146,o),
(418,117,o),
(378,117,cs),
(352,117,o),
(320,124,o),
(284,146,c),
(284,1,l),
(332,-12,o),
(374,-17,o),
(412,-16,cs),
(554,-14,o),
(626,76,o),
(626,194,cs),
(626,327,o),
(539,371,o),
(471,391,c),
(510,403,o),
(601,447,o),
(601,542,cs),
(601,631,o),
(495,706,o),
(324,706,cs),
(156,706,o),
(60,593,o),
(60,442,cs),
(60,0,l)
);
}
);
width = 656;
}
);
metricLeft = n;
metricRight = o;
unicode = 223;
},
{
glyphname = t;
kernLeft = t;
kernRight = t;
lastChange = "2016-09-02 14:57:12 +0000";
layers = (
{
anchors = (
{
name = bottom;
pos = (174,0);
},
{
name = center;
pos = (154,250);
},
{
name = top;
pos = (144,639);
},
{
name = topright;
pos = (343,499);
}
);
layerId = UUID0;
shapes = (
{
closed = 1;
nodes = (
(262,-8,o),
(294,-3,o),
(313,4,c),
(313,72,l),
(298,65,o),
(274,60,o),
(250,60,cs),
(197,60,o),
(184,88,o),
(184,144,cs),
(184,433,l),
(313,433,l),
(313,499,l),
(184,499,l),
(184,640,l),
(112,640,l),
(112,499,l),
(25,499,l),
(25,433,l),
(112,433,l),
(112,121,ls),
(112,36,o),
(166,-8,o),
(237,-8,cs)
);
}
);
width = 363;
},
{
anchors = (
{
name = bottom;
pos = (217,0);
},
{
name = center;
pos = (217,250);
},
{
name = top;
pos = (180,639);
},
{
name = topright;
pos = (414,499);
}
);
layerId = "ECACF70C-BE42-4FA5-B3A0-AFDA71FB1D31";
shapes = (
{
closed = 1;
nodes = (
(321,-25,o),
(355,-20,o),
(389,-1,c),
(389,152,l),
(371,137,o),
(345,127,o),
(326,127,cs),
(299,127,o),
(285,139,o),
(285,164,cs),
(285,374,l),
(389,374,l),
(389,509,l),
(285,509,l),
(285,647,l),
(93,647,l),
(93,509,l),
(25,509,l),
(25,374,l),
(93,374,l),
(93,147,ls),
(93,38,o),
(151,-25,o),
(289,-25,cs)
);
}
);
width = 434;
}
);
unicode = 116;
},
{
glyphname = tbar;
lastChange = "2016-08-05 09:29:49 +0000";
layers = (
{
layerId = UUID0;
shapes = (
{
closed = 1;
nodes = (
(271,-8,o),
(293,-3,o),
(312,4,c),
(312,72,l),
(298,65,o),
(279,60,o),
(255,60,cs),
(202,60,o),
(183,79,o),
(183,129,cs),
(183,244,l),
(297,244,l),
(297,304,l),
(183,304,l),
(183,433,l),
(312,433,l),
(312,499,l),
(183,499,l),
(183,640,l),
(111,640,l),
(111,499,l),
(24,499,l),
(24,433,l),
(111,433,l),
(111,304,l),
(37,304,l),
(37,244,l),
(111,244,l),
(111,133,ls),
(111,5,o),
(205,-8,o),
(246,-8,cs)
);
}
);
width = 345;
},
{
layerId = "ECACF70C-BE42-4FA5-B3A0-AFDA71FB1D31";
shapes = (
{
closed = 1;
nodes = (
(300,-7,o),
(334,-2,o),
(368,17,c),
(368,140,l),
(336,121,o),
(314,115,o),
(295,115,cs),
(278,115,o),
(264,128,o),
(264,142,cs),
(264,214,l),
(355,214,l),
(355,312,l),
(264,312,l),
(264,384,l),
(368,384,l),
(368,499,l),
(264,499,l),
(264,647,l),
(92,647,l),
(92,499,l),
(24,499,l),
(24,384,l),
(92,384,l),
(92,312,l),
(38,312,l),
(38,214,l),
(92,214,l),
(92,168,ls),
(92,59,o),
(150,-7,o),
(268,-7,cs)
);
}
);
width = 410;
}
);
unicode = 359;
},
{
glyphname = u;
kernLeft = u;
kernRight = u;
lastChange = "2016-09-07 23:12:13 +0000";
layers = (
{
anchors = (
{
name = bottom;
pos = (289,0);
},
{
name = ogonek;
pos = (410,10);
},
{
name = top;
pos = (289,499);
},
{
name = topright;
pos = (513,522);
}
);
layerId = UUID0;
shapes = (
{
closed = 1;
nodes = (
(422,-15,o),
(498,56,o),
(498,183,c),
(498,499,l),
(426,499,l),
(426,199,l),
(426,98,o),
(382,52,o),
(289,52,c),
(195,52,o),
(152,98,o),
(152,199,c),
(152,499,l),
(80,499,l),
(80,183,l),
(80,56,o),
(156,-15,o),
(289,-15,c)
);
}
);
width = 578;
},
{
anchors = (
{
name = bottom;
pos = (306,0);
},
{
name = ogonek;
pos = (462,10);
},
{
name = top;
pos = (316,519);
},
{
name = topright;
pos = (601,492);
}
);
layerId = "ECACF70C-BE42-4FA5-B3A0-AFDA71FB1D31";
shapes = (
{
closed = 1;
nodes = (
(457,-15,o),
(551,46,o),
(551,197,c),
(551,509,l),
(382,509,l),
(382,208,l),
(382,160,o),
(362,135,o),
(312,135,c),
(262,135,o),
(242,160,o),
(242,208,c),
(242,509,l),
(60,509,l),
(60,197,l),
(60,46,o),
(165,-15,o),
(311,-15,c)
);
}
);
width = 611;
}
);
metricLeft = n;
metricRight = n;
unicode = 117;
},
{
glyphname = udotbelow;
kernLeft = u;
kernRight = u;
lastChange = "2016-08-05 09:29:49 +0000";
layers = (
{
layerId = UUID0;
shapes = (
{
closed = 1;
nodes = (
(424,-9,o),
(500,71,o),
(500,209,cs),
(500,499,l),
(428,499,l),
(428,206,ls),
(428,105,o),
(385,58,o),
(291,58,cs),
(198,58,o),
(154,105,o),
(154,206,cs),
(154,499,l),
(82,499,l),
(82,209,ls),
(82,71,o),
(158,-9,o),
(291,-9,cs)
);
},
{
closed = 1;
nodes = (
(331,-128,l),
(331,-49,l),
(252,-49,l),
(252,-128,l)
);
}
);
width = 587;
},
{
layerId = "ECACF70C-BE42-4FA5-B3A0-AFDA71FB1D31";
shapes = (
{
closed = 1;
nodes = (
(459,-7,o),
(548,60,o),
(548,225,cs),
(548,499,l),
(376,499,l),
(376,195,ls),
(376,147,o),
(359,122,o),
(316,122,cs),
(273,122,o),
(256,147,o),
(256,195,cs),
(256,499,l),
(84,499,l),
(84,225,ls),
(84,60,o),
(173,-7,o),
(316,-7,cs)
);
},
{
closed = 1;
nodes = (
(376,-159,l),
(376,-50,l),
(256,-50,l),
(256,-159,l)
);
}
);
width = 620;
}
);
unicode = 7909;
},
{
glyphname = uhookabove;
kernLeft = u;
kernRight = u;
lastChange = "2016-08-05 09:29:49 +0000";
layers = (
{
layerId = UUID0;
shapes = (
{
closed = 1;
nodes = (
(424,-9,o),
(500,71,o),
(500,209,cs),
(500,499,l),
(428,499,l),
(428,206,ls),
(428,105,o),
(385,58,o),
(291,58,cs),
(198,58,o),
(154,105,o),
(154,206,cs),
(154,499,l),
(82,499,l),
(82,209,ls),
(82,71,o),
(158,-9,o),
(291,-9,cs)
);
},
{
closed = 1;
nodes = (
(310,564,l),
(310,588,l),
(346,594,o),
(362,616,o),
(362,642,cs),
(362,695,o),
(313,710,o),
(271,710,cs),
(260,710,o),
(249,709,o),
(240,707,c),
(240,664,l),
(247,665,o),
(256,666,o),
(267,666,cs),
(296,666,o),
(314,657,o),
(314,640,cs),
(314,630,o),
(305,617,o),
(277,616,c),
(277,564,l)
);
}
);
width = 587;
},
{
layerId = "ECACF70C-BE42-4FA5-B3A0-AFDA71FB1D31";
shapes = (
{
closed = 1;
nodes = (
(459,-7,o),
(548,60,o),
(548,225,cs),
(548,499,l),
(376,499,l),
(376,195,ls),
(376,147,o),
(359,122,o),
(316,122,cs),
(273,122,o),
(256,147,o),
(256,195,cs),
(256,499,l),
(84,499,l),
(84,225,ls),
(84,60,o),
(173,-7,o),
(316,-7,cs)
);
},
{
closed = 1;
nodes = (
(346,556,l),
(346,579,l),
(346,579,o),
(395,586,o),
(395,634,cs),
(395,682,o),
(353,706,o),
(303,706,cs),
(288,706,o),
(262,703,o),
(253,701,c),
(253,648,l),
(266,651,o),
(276,652,o),
(284,652,cs),
(298,652,o),
(314,648,o),
(314,631,cs),
(314,618,o),
(299,615,o),
(288,615,c),
(288,556,l)
);
}
);
width = 620;
}
);
unicode = 7911;
},
{
glyphname = uni021B;
kernLeft = t;
kernRight = t;
lastChange = "2016-08-05 09:29:49 +0000";
layers = (
{
layerId = UUID0;
shapes = (
{
closed = 1;
nodes = (
(271,-8,o),
(293,-3,o),
(312,4,c),
(312,72,l),
(298,65,o),
(279,60,o),
(255,60,cs),
(202,60,o),
(183,79,o),
(183,129,cs),
(183,433,l),
(312,433,l),
(312,499,l),
(183,499,l),
(183,640,l),
(111,640,l),
(111,499,l),
(24,499,l),
(24,433,l),
(111,433,l),
(111,133,ls),
(111,5,o),
(205,-8,o),
(246,-8,cs)
);
},
{
closed = 1;
nodes = (
(199,-183,o),
(255,-145,o),
(255,-49,c),
(196,-49,l),
(196,-78,o),
(192,-124,o),
(155,-139,c),
(155,-193,l)
);
}
);
width = 345;
},
{
layerId = "ECACF70C-BE42-4FA5-B3A0-AFDA71FB1D31";
shapes = (
{
closed = 1;
nodes = (
(300,-7,o),
(334,-2,o),
(368,17,c),
(368,140,l),
(336,121,o),
(314,115,o),
(295,115,cs),
(278,115,o),
(264,128,o),
(264,142,cs),
(264,384,l),
(368,384,l),
(368,499,l),
(264,499,l),
(264,647,l),
(92,647,l),
(92,499,l),
(24,499,l),
(24,384,l),
(92,384,l),
(92,168,ls),
(92,59,o),
(150,-7,o),
(268,-7,cs)
);
},
{
closed = 1;
nodes = (
(225,-194,o),
(283,-130,o),
(281,-50,c),
(186,-50,l),
(187,-97,o),
(178,-124,o),
(148,-129,c),
(148,-194,l)
);
}
);
width = 410;
}
);
unicode = 539;
},
{
glyphname = v;
kernLeft = v;
lastChange = "2016-09-02 15:18:02 +0000";
layers = (
{
layerId = UUID0;
shapes = (
{
closed = 1;
nodes = (
(319,0,l),
(531,499,l),
(459,499,l),
(280,58,l),
(296,62,l),
(112,499,l),
(35,499,l),
(246,0,l)
);
}
);
width = 566;
},
{
layerId = "ECACF70C-BE42-4FA5-B3A0-AFDA71FB1D31";
shapes = (
{
closed = 1;
nodes = (
(413,0,l),
(624,509,l),
(430,509,l),
(313,139,l),
(358,139,l),
(217,509,l),
(20,509,l),
(231,0,l)
);
}
);
width = 644;
}
);
unicode = 118;
},
{
glyphname = w;
lastChange = "2016-09-02 15:33:42 +0000";
layers = (
{
anchors = (
{
name = bottom;
pos = (399,0);
},
{
name = top;
pos = (399,499);
}
);
layerId = UUID0;
shapes = (
{
closed = 1;
nodes = (
(274,0,l),
(402,430,l),
(389,442,l),
(522,0,l),
(595,0,l),
(761,499,l),
(690,499,l),
(551,58,l),
(565,58,l),
(432,499,l),
(363,499,l),
(231,46,l),
(250,54,l),
(111,499,l),
(35,499,l),
(201,0,l)
);
}
);
width = 796;
},
{
anchors = (
{
name = bottom;
pos = (421,0);
},
{
name = top;
pos = (421,499);
}
);
layerId = "ECACF70C-BE42-4FA5-B3A0-AFDA71FB1D31";
shapes = (
{
closed = 1;
nodes = (
(352,0,l),
(434,278,l),
(403,278,l),
(489,0,l),
(650,0,l),
(820,509,l),
(625,509,l),
(529,128,l),
(577,128,l),
(484,509,l),
(356,509,l),
(259,116,l),
(318,116,l),
(217,509,l),
(20,509,l),
(191,0,l)
);
}
);
width = 840;
}
);
metricLeft = v;
metricRight = v;
unicode = 119;
},
{
glyphname = x;
lastChange = "2016-09-02 15:16:36 +0000";
layers = (
{
layerId = UUID0;
shapes = (
{
closed = 1;
nodes = (
(237,272,l),
(35,0,l),
(116,0,l),
(280,218,l)
);
},
{
closed = 1;
nodes = (
(131,499,l),
(40,499,l),
(405,0,l),
(497,0,l)
);
},
{
closed = 1;
nodes = (
(287,218,l),
(495,499,l),
(412,499,l),
(247,279,l)
);
}
);
width = 532;
},
{
layerId = "ECACF70C-BE42-4FA5-B3A0-AFDA71FB1D31";
shapes = (
{
closed = 1;
nodes = (
(253,307,l),
(15,0,l),
(205,0,l),
(332,195,l)
);
},
{
closed = 1;
nodes = (
(232,509,l),
(20,509,l),
(380,0,l),
(593,0,l)
);
},
{
closed = 1;
nodes = (
(362,195,l),
(605,509,l),
(415,509,l),
(283,307,l)
);
}
);
width = 620;
}
);
unicode = 120;
},
{
glyphname = y;
kernLeft = v;
lastChange = "2016-09-02 15:39:52 +0000";
layers = (
{
anchors = (
{
name = bottom;
pos = (398,0);
},
{
name = top;
pos = (275,499);
}
);
layerId = UUID0;
shapes = (
{
closed = 1;
nodes = (
(181,-193,o),
(245,-167,o),
(291,-49,cs),
(505,499,l),
(433,499,l),
(268,73,l),
(283,73,l),
(117,499,l),
(35,499,l),
(247,-15,l),
(247,14,l),
(222,-65,o),
(198,-127,o),
(130,-127,cs),
(111,-127,o),
(96,-122,o),
(87,-118,c),
(87,-184,l),
(97,-188,o),
(114,-193,o),
(134,-193,cs)
);
}
);
width = 540;
},
{
anchors = (
{
name = bottom;
pos = (495,0);
},
{
name = top;
pos = (308,499);
}
);
background = {
shapes = (
{
closed = 1;
nodes = (
(402,0,l),
(593,509,l),
(399,509,l),
(302,139,l),
(347,139,l),
(226,509,l),
(29,509,l),
(220,0,l)
);
}
);
};
layerId = "ECACF70C-BE42-4FA5-B3A0-AFDA71FB1D31";
shapes = (
{
closed = 1;
nodes = (
(276,-197,o),
(346,-140,o),
(404,10,cs),
(596,509,l),
(399,509,l),
(307,184,l),
(322,184,l),
(228,509,l),
(20,509,l),
(239,-33,l),
(234,75,l),
(226,-26,o),
(193,-43,o),
(151,-43,cs),
(131,-43,o),
(113,-41,o),
(85,-31,c),
(85,-176,l),
(114,-190,o),
(155,-197,o),
(194,-197,cs)
);
}
);
width = 616;
}
);
metricLeft = v;
metricRight = v;
unicode = 121;
},
{
glyphname = z;
kernRight = z;
lastChange = "2016-09-02 15:33:27 +0000";
layers = (
{
anchors = (
{
name = bottom;
pos = (228,0);
},
{
name = top;
pos = (228,499);
}
);
layerId = UUID0;
shapes = (
{
closed = 1;
nodes = (
(410,0,l),
(410,64,l),
(114,64,l),
(114,45,l),
(410,436,l),
(410,499,l),
(52,499,l),
(52,437,l),
(356,437,l),
(341,459,l),
(45,65,l),
(45,0,l)
);
}
);
width = 455;
},
{
anchors = (
{
name = bottom;
pos = (254,0);
},
{
name = top;
pos = (264,499);
}
);
layerId = "ECACF70C-BE42-4FA5-B3A0-AFDA71FB1D31";
shapes = (
{
closed = 1;
nodes = (
(463,0,l),
(463,143,l),
(223,143,l),
(230,96,l),
(463,370,l),
(463,509,l),
(50,509,l),
(50,376,l),
(320,376,l),
(306,411,l),
(45,141,l),
(45,0,l)
);
}
);
width = 508;
}
);
unicode = 122;
},
{
glyphname = fi;
lastChange = "2016-08-22 15:23:46 +0000";
layers = (
{
background = {
shapes = (
{
closed = 1;
nodes = (
(197,0,l),
(197,433,l),
(337,433,l),
(337,500,l),
(197,500,l),
(197,527,ls),
(197,643,o),
(255,643,o),
(301,643,cs),
(315,643,o),
(327,641,o),
(337,639,c),
(337,704,l),
(323,707,o),
(307,709,o),
(288,709,cs),
(249,709,o),
(127,709,o),
(127,526,cs),
(127,500,l),
(41,500,l),
(41,433,l),
(127,433,l),
(127,0,l)
);
},
{
closed = 1;
nodes = (
(508,0,l),
(508,499,l),
(436,499,l),
(436,0,l)
);
},
{
closed = 1;
nodes = (
(512,588,l),
(512,667,l),
(432,667,l),
(432,588,l)
);
}
);
};
layerId = UUID0;
shapes = (
{
ref = f;
},
{
alignment = -1;
pos = (354,0);
ref = i;
}
);
width = 594;
},
{
background = {
shapes = (
{
closed = 1;
nodes = (
(282,0,l),
(282,378,l),
(383,378,l),
(383,499,l),
(284,499,l),
(284,538,o),
(304,596,o),
(356,596,cs),
(364,596,o),
(369,596,o),
(383,592,c),
(383,695,l),
(365,701,o),
(331,706,o),
(309,706,cs),
(181,706,o),
(112,641,o),
(112,499,c),
(41,499,l),
(41,378,l),
(110,378,l),
(110,0,l)
);
},
{
closed = 1;
nodes = (
(653,0,l),
(653,499,l),
(481,499,l),
(481,0,l)
);
},
{
closed = 1;
nodes = (
(655,556,l),
(655,687,l),
(479,687,l),
(479,556,l)
);
}
);
};
layerId = "ECACF70C-BE42-4FA5-B3A0-AFDA71FB1D31";
shapes = (
{
ref = f;
},
{
alignment = -1;
pos = (402,0);
ref = i;
}
);
width = 708;
}
);
metricLeft = f;
metricRight = i;
unicode = 64257;
},
{
glyphname = fl;
lastChange = "2016-08-17 15:50:16 +0000";
layers = (
{
background = {
shapes = (
{
closed = 1;
nodes = (
(197,0,l),
(197,433,l),
(337,433,l),
(337,500,l),
(197,500,l),
(197,527,ls),
(197,643,o),
(255,643,o),
(301,643,cs),
(315,643,o),
(327,641,o),
(337,639,c),
(337,704,l),
(323,707,o),
(307,709,o),
(288,709,cs),
(249,709,o),
(127,709,o),
(127,526,cs),
(127,500,l),
(41,500,l),
(41,433,l),
(127,433,l),
(127,0,l)
);
},
{
closed = 1;
nodes = (
(508,0,l),
(508,689,l),
(436,689,l),
(436,0,l)
);
}
);
};
layerId = UUID0;
shapes = (
{
ref = f;
},
{
alignment = -1;
pos = (355,0);
ref = l;
}
);
width = 587;
},
{
background = {
shapes = (
{
closed = 1;
nodes = (
(281,0,l),
(281,378,l),
(382,378,l),
(382,499,l),
(283,499,l),
(283,538,o),
(303,596,o),
(355,596,cs),
(363,596,o),
(368,596,o),
(382,592,c),
(382,695,l),
(364,701,o),
(330,706,o),
(308,706,cs),
(180,706,o),
(111,641,o),
(111,499,c),
(40,499,l),
(40,378,l),
(109,378,l),
(109,0,l)
);
},
{
closed = 1;
nodes = (
(652,0,l),
(652,689,l),
(480,689,l),
(480,0,l)
);
}
);
};
layerId = "ECACF70C-BE42-4FA5-B3A0-AFDA71FB1D31";
shapes = (
{
ref = f;
},
{
pos = (402,0);
ref = l;
}
);
width = 702;
}
);
metricRight = l;
unicode = 64258;
},
{
glyphname = ordfeminine;
kernLeft = ordfeminine;
kernRight = ordfeminine;
lastChange = "2016-08-18 17:28:13 +0000";
layers = (
{
layerId = UUID0;
shapes = (
{
closed = 1;
nodes = (
(228,389,o),
(306,400,o),
(306,476,cs),
(306,560,ls),
(306,636,o),
(269,675,o),
(190,675,cs),
(156,675,o),
(124,666,o),
(104,658,c),
(104,619,l),
(114,623,o),
(148,636,o),
(188,636,cs),
(239,636,o),
(266,612,o),
(266,559,c),
(266,559,o),
(233,569,o),
(192,569,cs),
(125,569,o),
(76,549,o),
(76,478,cs),
(76,400,o),
(156,389,o),
(192,389,cs)
);
},
{
closed = 1;
nodes = (
(158,426,o),
(116,434,o),
(116,479,cs),
(116,529,o),
(166,533,o),
(200,533,cs),
(231,533,o),
(266,523,o),
(266,523,c),
(266,477,ls),
(266,434,o),
(227,426,o),
(192,426,cs)
);
}
);
width = 394;
},
{
layerId = "ECACF70C-BE42-4FA5-B3A0-AFDA71FB1D31";
shapes = (
{
closed = 1;
nodes = (
(297,378,o),
(333,398,o),
(333,473,cs),
(333,554,ls),
(333,632,o),
(285,675,o),
(194,675,cs),
(163,675,o),
(122,667,o),
(92,655,c),
(92,583,l),
(122,594,o),
(159,600,o),
(187,600,cs),
(214,600,o),
(225,579,o),
(225,545,c),
(216,552,o),
(198,558,o),
(163,558,cs),
(87,558,o),
(65,521,o),
(65,474,cs),
(65,407,o),
(113,378,o),
(195,378,cs)
);
},
{
closed = 1;
nodes = (
(178,447,o),
(171,460,o),
(171,477,cs),
(171,492,o),
(185,505,o),
(201,505,cs),
(213,505,o),
(220,502,o),
(227,499,c),
(227,468,ls),
(227,456,o),
(219,447,o),
(199,447,cs)
);
}
);
width = 407;
}
);
unicode = 170;
},
{
glyphname = ordmasculine;
kernLeft = ordfeminine;
kernRight = ordfeminine;
lastChange = "2016-08-05 09:29:49 +0000";
layers = (
{
layerId = UUID0;
shapes = (
{
closed = 1;
nodes = (
(266,389,o),
(336,414,o),
(336,532,cs),
(336,651,o),
(266,676,o),
(206,676,cs),
(147,676,o),
(76,651,o),
(76,532,cs),
(76,414,o),
(147,389,o),
(206,389,cs)
);
},
{
closed = 1;
nodes = (
(143,426,o),
(116,458,o),
(116,532,cs),
(116,607,o),
(143,639,o),
(206,639,cs),
(270,639,o),
(296,607,o),
(296,532,cs),
(296,458,o),
(270,426,o),
(206,426,cs)
);
}
);
width = 417;
},
{
layerId = "ECACF70C-BE42-4FA5-B3A0-AFDA71FB1D31";
shapes = (
{
closed = 1;
nodes = (
(294,389,o),
(343,439,o),
(343,532,cs),
(343,626,o),
(294,676,o),
(209,676,cs),
(123,676,o),
(74,626,o),
(74,532,cs),
(74,439,o),
(123,389,o),
(209,389,cs)
);
},
{
closed = 1;
nodes = (
(184,459,o),
(170,482,o),
(170,532,cs),
(170,583,o),
(184,606,o),
(209,606,cs),
(233,606,o),
(247,583,o),
(247,532,cs),
(247,482,o),
(233,459,o),
(209,459,cs)
);
}
);
width = 424;
}
);
unicode = 186;
},
{
glyphname = pi;
lastChange = "2016-08-05 09:29:49 +0000";
layers = (
{
layerId = UUID0;
shapes = (
{
closed = 1;
nodes = (
(208,0,l),
(208,433,l),
(414,433,l),
(414,0,l),
(480,0,l),
(480,433,l),
(589,433,l),
(589,499,l),
(33,499,l),
(33,433,l),
(142,433,l),
(142,0,l)
);
}
);
width = 622;
},
{
layerId = "ECACF70C-BE42-4FA5-B3A0-AFDA71FB1D31";
shapes = (
{
closed = 1;
nodes = (
(258,0,l),
(258,374,l),
(374,374,l),
(374,0,l),
(499,0,l),
(499,374,l),
(597,374,l),
(597,499,l),
(35,499,l),
(35,374,l),
(131,374,l),
(131,0,l)
);
}
);
width = 634;
}
);
unicode = 960;
},
{
glyphname = zero;
kernRight = zero;
lastChange = "2016-08-22 16:38:20 +0000";
layers = (
{
layerId = UUID0;
shapes = (
{
closed = 1;
nodes = (
(498,-11,o),
(586,104,o),
(586,331,cs),
(586,558,o),
(498,673,o),
(323,673,cs),
(149,673,o),
(60,558,o),
(60,331,cs),
(60,104,o),
(149,-11,o),
(323,-11,cs)
);
},
{
closed = 1;
nodes = (
(234,55,o),
(132,86,o),
(132,331,cs),
(132,575,o),
(234,607,o),
(323,607,cs),
(412,607,o),
(514,575,o),
(514,331,cs),
(514,86,o),
(412,55,o),
(323,55,cs)
);
}
);
width = 646;
},
{
layerId = "ECACF70C-BE42-4FA5-B3A0-AFDA71FB1D31";
shapes = (
{
closed = 1;
nodes = (
(550,-14,o),
(640,101,o),
(640,334,cs),
(640,566,o),
(550,682,o),
(337,682,cs),
(126,682,o),
(35,566,o),
(35,334,cs),
(35,101,o),
(126,-14,o),
(337,-14,cs)
);
},
{
closed = 1;
nodes = (
(288,145,o),
(240,171,o),
(240,334,cs),
(240,493,o),
(288,522,o),
(337,522,cs),
(387,522,o),
(436,493,o),
(436,334,cs),
(436,172,o),
(387,145,o),
(337,145,cs)
);
}
);
width = 675;
}
);
metricLeft = O;
metricRight = O;
unicode = 48;
},
{
glyphname = one;
kernLeft = h;
kernRight = i;
lastChange = "2016-08-22 16:38:27 +0000";
layers = (
{
layerId = UUID0;
shapes = (
{
closed = 1;
nodes = (
(308,0,l),
(308,667,l),
(226,667,l),
(103,589,l),
(103,504,l),
(236,592,l),
(236,0,l)
);
}
);
width = 451;
},
{
layerId = "ECACF70C-BE42-4FA5-B3A0-AFDA71FB1D31";
shapes = (
{
closed = 1;
nodes = (
(368,0,l),
(368,667,l),
(199,667,l),
(40,579,l),
(40,410,l),
(168,476,l),
(168,0,l)
);
}
);
width = 478;
}
);
unicode = 49;
},
{
glyphname = two;
lastChange = "2016-08-22 16:51:15 +0000";
layers = (
{
layerId = UUID0;
shapes = (
{
closed = 1;
nodes = (
(498,0,l),
(498,72,l),
(137,72,l),
(158,47,l),
(279,145,o),
(488,337,o),
(488,488,cs),
(488,579,o),
(429,676,o),
(265,676,cs),
(188,676,o),
(127,651,o),
(84,625,c),
(84,546,l),
(118,570,o),
(179,604,o),
(259,604,cs),
(389,604,o),
(416,541,o),
(416,488,cs),
(416,342,o),
(191,147,o),
(77,63,c),
(77,0,l)
);
}
);
width = 581;
},
{
layerId = "ECACF70C-BE42-4FA5-B3A0-AFDA71FB1D31";
shapes = (
{
closed = 1;
nodes = (
(554,0,l),
(554,180,l),
(238,180,l),
(274,155,l),
(380,227,o),
(540,308,o),
(540,469,cs),
(540,615,o),
(451,682,o),
(309,682,cs),
(202,682,o),
(129,650,o),
(72,615,c),
(72,451,l),
(136,502,o),
(184,533,o),
(242,533,cs),
(282,533,o),
(339,515,o),
(339,437,cs),
(339,339,o),
(182,196,o),
(67,136,c),
(67,0,l)
);
}
);
width = 620;
}
);
unicode = 50;
},
{
glyphname = three;
lastChange = "2016-08-30 23:46:52 +0000";
layers = (
{
layerId = UUID0;
shapes = (
{
closed = 1;
nodes = (
(440,-8,o),
(505,94,o),
(505,190,cs),
(505,313,o),
(385,361,o),
(385,361,cs),
(385,361,o),
(471,396,o),
(471,496,cs),
(471,583,o),
(413,676,o),
(249,676,cs),
(188,676,o),
(137,661,o),
(97,642,c),
(97,569,l),
(133,587,o),
(181,604,o),
(241,604,cs),
(343,604,o),
(399,566,o),
(399,496,cs),
(399,427,o),
(346,389,o),
(249,389,cs),
(173,389,l),
(173,320,l),
(246,320,ls),
(367,320,o),
(433,275,o),
(433,192,cs),
(433,109,o),
(368,64,o),
(250,64,cs),
(179,64,o),
(122,85,o),
(81,108,c),
(81,34,l),
(126,11,o),
(186,-8,o),
(259,-8,cs)
);
}
);
width = 583;
},
{
layerId = "ECACF70C-BE42-4FA5-B3A0-AFDA71FB1D31";
shapes = (
{
closed = 1;
nodes = (
(385,-8,o),
(533,28,o),
(533,187,cs),
(533,273,o),
(480,340,o),
(402,362,c),
(452,372,o),
(506,428,o),
(506,493,cs),
(506,637,o),
(368,676,o),
(263,676,cs),
(199,676,o),
(133,657,o),
(80,629,c),
(80,484,l),
(162,522,o),
(204,528,o),
(244,528,cs),
(286,528,o),
(333,517,o),
(333,468,cs),
(333,441,o),
(314,413,o),
(263,413,cs),
(152,413,l),
(152,269,l),
(261,269,ls),
(343,269,o),
(362,238,o),
(362,197,cs),
(362,157,o),
(322,136,o),
(264,136,cs),
(194,136,o),
(135,173,o),
(68,213,c),
(68,48,l),
(129,17,o),
(199,-8,o),
(271,-8,cs)
);
}
);
width = 600;
}
);
unicode = 51;
},
{
glyphname = four;
lastChange = "2016-08-22 17:24:53 +0000";
layers = (
{
layerId = UUID0;
shapes = (
{
closed = 1;
nodes = (
(434,0,l),
(434,200,l),
(529,200,l),
(529,267,l),
(434,267,l),
(434,667,l),
(353,667,l),
(38,277,l),
(38,200,l),
(362,200,l),
(362,0,l)
);
},
{
closed = 1;
nodes = (
(362,564,l),
(362,267,l),
(118,267,l)
);
}
);
width = 591;
},
{
layerId = "ECACF70C-BE42-4FA5-B3A0-AFDA71FB1D31";
shapes = (
{
closed = 1;
nodes = (
(512,0,l),
(512,170,l),
(592,170,l),
(592,316,l),
(512,316,l),
(512,667,l),
(331,667,l),
(39,302,l),
(39,170,l),
(310,170,l),
(310,0,l)
);
},
{
closed = 1;
nodes = (
(310,453,l),
(310,316,l),
(202,316,l)
);
}
);
width = 618;
}
);
unicode = 52;
},
{
glyphname = five;
lastChange = "2016-08-22 16:39:42 +0000";
layers = (
{
layerId = UUID0;
shapes = (
{
closed = 1;
nodes = (
(391,-8,o),
(506,29,o),
(506,204,cs),
(506,379,o),
(391,416,o),
(294,416,cs),
(220,416,o),
(143,399,o),
(93,369,c),
(164,381,l),
(183,596,l),
(464,596,l),
(464,667,l),
(121,667,l),
(87,359,l),
(132,313,l),
(132,313,o),
(183,344,o),
(289,344,cs),
(360,344,o),
(435,329,o),
(435,204,cs),
(435,143,o),
(426,62,o),
(289,62,cs),
(191,62,o),
(130,91,o),
(103,108,c),
(103,33,l),
(144,11,o),
(205,-8,o),
(294,-8,cs)
);
}
);
width = 566;
},
{
layerId = "ECACF70C-BE42-4FA5-B3A0-AFDA71FB1D31";
shapes = (
{
closed = 1;
nodes = (
(433,-14,o),
(577,44,o),
(577,237,cs),
(577,391,o),
(466,464,o),
(336,464,cs),
(225,464,o),
(149,439,o),
(93,381,c),
(216,327,l),
(244,498,l),
(518,498,l),
(518,668,l),
(124,668,l),
(78,363,l),
(162,269,l),
(184,281,o),
(234,298,o),
(277,298,cs),
(333,298,o),
(372,269,o),
(372,219,cs),
(372,165,o),
(309,145,o),
(248,145,cs),
(182,145,o),
(109,186,o),
(73,228,c),
(73,45,l),
(108,16,o),
(189,-14,o),
(275,-14,cs)
);
}
);
width = 612;
}
);
metricRight = O;
unicode = 53;
},
{
glyphname = six;
lastChange = "2016-08-22 16:43:57 +0000";
layers = (
{
layerId = UUID0;
shapes = (
{
closed = 1;
nodes = (
(459,-8,o),
(519,113,o),
(519,217,c),
(519,346,o),
(432,427,o),
(292,427,c),
(215,427,o),
(150,389,o),
(125,372,c),
(124,292,l),
(141,309,o),
(203,360,o),
(292,360,c),
(392,360,o),
(447,309,o),
(447,218,c),
(447,181,o),
(436,60,o),
(292,60,c),
(204,60,o),
(137,99,o),
(137,329,c),
(137,574,o),
(320,608,o),
(377,608,c),
(411,608,o),
(441,602,o),
(466,596,c),
(466,663,l),
(439,671,o),
(406,676,o),
(369,676,c),
(278,676,o),
(65,640,o),
(65,305,c),
(65,97,o),
(141,-8,o),
(292,-8,c)
);
}
);
width = 583;
},
{
layerId = "ECACF70C-BE42-4FA5-B3A0-AFDA71FB1D31";
shapes = (
{
closed = 1;
nodes = (
(503,-14,o),
(608,72,o),
(608,212,c),
(608,367,o),
(537,440,o),
(375,441,c),
(239,440,o),
(192,323,o),
(185,253,c),
(237,190,l),
(250,274,o),
(274,301,o),
(335,301,c),
(376,301,o),
(405,274,o),
(405,216,cs),
(405,165,o),
(373,146,o),
(329,146,c),
(273,146,o),
(236,175,o),
(236,340,c),
(236,438,o),
(254,525,o),
(390,525,c),
(453,525,o),
(495,511,o),
(542,487,c),
(542,652,l),
(511,667,o),
(455,682,o),
(376,682,c),
(251,682,o),
(35,641,o),
(35,309,c),
(35,103,o),
(119,-14,o),
(312,-14,c)
);
}
);
width = 643;
}
);
unicode = 54;
},
{
glyphname = seven;
lastChange = "2016-08-22 16:27:04 +0000";
layers = (
{
layerId = UUID0;
shapes = (
{
closed = 1;
nodes = (
(236,0,l),
(525,600,l),
(525,667,l),
(70,667,l),
(70,595,l),
(462,595,l),
(455,618,l),
(156,0,l)
);
}
);
width = 574;
},
{
layerId = "ECACF70C-BE42-4FA5-B3A0-AFDA71FB1D31";
shapes = (
{
closed = 1;
nodes = (
(342,0,l),
(556,561,l),
(556,667,l),
(66,667,l),
(66,486,l),
(385,486,l),
(352,530,l),
(123,0,l)
);
}
);
width = 599;
}
);
unicode = 55;
},
{
glyphname = eight;
lastChange = "2016-08-22 16:45:10 +0000";
layers = (
{
layerId = UUID0;
shapes = (
{
closed = 1;
nodes = (
(463,-8,o),
(523,103,o),
(523,198,cs),
(523,320,o),
(411,361,o),
(411,361,cs),
(411,361,o),
(498,395,o),
(498,503,cs),
(498,587,o),
(444,676,o),
(292,676,cs),
(141,676,o),
(86,587,o),
(86,503,cs),
(86,398,o),
(176,360,o),
(176,360,cs),
(176,360,o),
(61,321,o),
(61,198,cs),
(61,103,o),
(122,-8,o),
(292,-8,cs)
);
},
{
closed = 1;
nodes = (
(145,60,o),
(133,166,o),
(133,198,cs),
(133,278,o),
(190,322,o),
(292,322,cs),
(395,322,o),
(451,278,o),
(451,198,cs),
(451,166,o),
(440,60,o),
(292,60,cs)
);
},
{
closed = 1;
nodes = (
(208,388,o),
(158,431,o),
(158,503,cs),
(158,588,o),
(231,605,o),
(292,605,cs),
(353,605,o),
(426,588,o),
(426,503,cs),
(426,431,o),
(376,388,o),
(292,388,cs)
);
}
);
width = 582;
},
{
layerId = "ECACF70C-BE42-4FA5-B3A0-AFDA71FB1D31";
shapes = (
{
closed = 1;
nodes = (
(518,-14,o),
(617,55,o),
(617,184,c),
(617,262,o),
(570,311,o),
(504,339,c),
(556,364,o),
(601,407,o),
(601,482,c),
(601,621,o),
(510,682,o),
(326,682,c),
(142,682,o),
(51,621,o),
(51,482,c),
(51,407,o),
(96,364,o),
(148,339,c),
(82,311,o),
(35,262,o),
(35,184,c),
(35,55,o),
(134,-14,o),
(326,-14,c)
);
},
{
closed = 1;
nodes = (
(274,137,o),
(248,177,o),
(248,222,c),
(248,250,o),
(274,292,o),
(326,292,c),
(378,292,o),
(404,250,o),
(404,222,c),
(404,177,o),
(378,137,o),
(326,137,c)
);
},
{
closed = 1;
nodes = (
(303,393,o),
(258,413,o),
(258,458,c),
(258,492,o),
(282,531,o),
(326,531,c),
(370,531,o),
(394,492,o),
(394,458,c),
(394,413,o),
(349,393,o),
(326,393,c)
);
}
);
width = 652;
}
);
unicode = 56;
},
{
glyphname = nine;
lastChange = "2016-08-22 16:43:59 +0000";
layers = (
{
background = {
shapes = (
{
closed = 1;
nodes = (
(299,-8,o),
(512,28,o),
(512,362,cs),
(512,570,o),
(436,676,o),
(285,676,cs),
(118,676,o),
(58,555,o),
(58,451,cs),
(58,321,o),
(145,241,o),
(285,241,cs),
(362,241,o),
(411,267,o),
(435,285,c),
(413,75,o),
(257,60,o),
(200,60,cs),
(166,60,o),
(135,65,o),
(111,72,c),
(111,4,l),
(138,-3,o),
(171,-8,o),
(208,-8,cs)
);
},
{
closed = 1;
nodes = (
(185,308,o),
(130,359,o),
(130,450,cs),
(130,487,o),
(141,608,o),
(285,608,cs),
(331,608,o),
(438,608,o),
(440,365,c),
(423,347,o),
(374,308,o),
(285,308,cs)
);
}
);
};
layerId = UUID0;
shapes = (
{
closed = 1;
nodes = (
(306,-8,o),
(519,28,o),
(519,363,c),
(519,571,o),
(443,676,o),
(292,676,c),
(125,676,o),
(65,555,o),
(65,451,c),
(65,322,o),
(152,241,o),
(292,241,c),
(369,241,o),
(434,279,o),
(459,296,c),
(460,376,l),
(443,359,o),
(381,308,o),
(292,308,c),
(192,308,o),
(137,359,o),
(137,450,c),
(137,487,o),
(148,608,o),
(292,608,c),
(380,608,o),
(447,569,o),
(447,339,c),
(447,94,o),
(264,60,o),
(207,60,c),
(173,60,o),
(143,66,o),
(118,72,c),
(118,5,l),
(145,-3,o),
(178,-8,o),
(215,-8,c)
);
}
);
width = 587;
},
{
layerId = "ECACF70C-BE42-4FA5-B3A0-AFDA71FB1D31";
shapes = (
{
closed = 1;
nodes = (
(392,-14,o),
(608,27,o),
(608,359,c),
(608,565,o),
(524,682,o),
(310,682,cs),
(140,682,o),
(35,596,o),
(35,456,c),
(35,301,o),
(106,228,o),
(268,227,c),
(404,228,o),
(451,345,o),
(458,415,c),
(406,478,l),
(393,394,o),
(369,367,o),
(309,367,cs),
(267,367,o),
(238,394,o),
(238,452,cs),
(238,503,o),
(270,522,o),
(310,522,cs),
(370,522,o),
(407,493,o),
(407,328,c),
(407,230,o),
(389,143,o),
(253,143,c),
(190,143,o),
(148,157,o),
(101,181,c),
(101,16,l),
(132,1,o),
(188,-14,o),
(267,-14,c)
);
}
);
width = 646;
}
);
unicode = 57;
},
{
glyphname = zero.dnom;
kernLeft = six.denominator;
lastChange = "2017-07-04 14:12:15 +0000";
layers = (
{
layerId = UUID0;
shapes = (
{
closed = 1;
nodes = (
(283,-5,o),
(331,57,o),
(331,179,cs),
(331,301,o),
(283,363,o),
(190,363,cs),
(96,363,o),
(48,301,o),
(48,179,cs),
(48,57,o),
(96,-5,o),
(190,-5,cs)
);
},
{
closed = 1;
nodes = (
(164,45,o),
(109,62,o),
(109,179,cs),
(109,296,o),
(164,313,o),
(190,313,cs),
(215,313,o),
(270,296,o),
(270,179,cs),
(270,62,o),
(215,45,o),
(190,45,cs)
);
}
);
width = 379;
},
{
layerId = "ECACF70C-BE42-4FA5-B3A0-AFDA71FB1D31";
shapes = (
{
closed = 1;
nodes = (
(317,-14,o),
(365,48,o),
(365,170,cs),
(365,291,o),
(317,354,o),
(190,354,cs),
(64,354,o),
(15,291,o),
(15,170,cs),
(15,48,o),
(64,-14,o),
(190,-14,cs)
);
},
{
closed = 1;
nodes = (
(166,86,o),
(141,101,o),
(141,170,cs),
(141,239,o),
(166,255,o),
(190,255,cs),
(216,255,o),
(239,239,o),
(239,170,cs),
(239,101,o),
(216,86,o),
(190,86,cs)
);
}
);
width = 380;
}
);
},
{
glyphname = one.dnom;
lastChange = "2016-08-31 20:51:05 +0000";
layers = (
{
layerId = UUID0;
shapes = (
{
closed = 1;
nodes = (
(163,1,l),
(163,360,l),
(119,360,l),
(53,318,l),
(53,242,l),
(108,278,l),
(95,319,l),
(95,1,l)
);
}
);
width = 234;
},
{
layerId = "ECACF70C-BE42-4FA5-B3A0-AFDA71FB1D31";
shapes = (
{
closed = 1;
nodes = (
(195,0,l),
(195,359,l),
(92,359,l),
(17,312,l),
(17,201,l),
(91,242,l),
(75,270,l),
(75,0,l)
);
}
);
width = 250;
}
);
},
{
glyphname = two.dnom;
lastChange = "2016-08-31 20:53:54 +0000";
layers = (
{
layerId = UUID0;
shapes = (
{
closed = 1;
nodes = (
(279,1,l),
(279,60,l),
(117,60,l),
(127,40,l),
(192,93,o),
(274,182,o),
(274,264,cs),
(274,312,o),
(242,364,o),
(154,364,cs),
(113,364,o),
(80,351,o),
(57,337,c),
(57,273,l),
(75,286,o),
(108,303,o),
(140,303,cs),
(180,303,o),
(205,280,o),
(205,252,cs),
(205,173,o),
(114,80,o),
(53,35,c),
(53,1,l)
);
}
);
width = 328;
},
{
layerId = "ECACF70C-BE42-4FA5-B3A0-AFDA71FB1D31";
shapes = (
{
closed = 1;
nodes = (
(309,0,l),
(309,113,l),
(164,113,l),
(174,103,l),
(254,132,o),
(307,187,o),
(307,249,cs),
(307,305,o),
(273,364,o),
(157,364,cs),
(115,364,o),
(76,347,o),
(45,328,c),
(45,234,l),
(70,252,o),
(91,268,o),
(133,268,cs),
(156,268,o),
(182,253,o),
(182,216,cs),
(182,155,o),
(94,111,o),
(43,73,c),
(43,0,l)
);
}
);
width = 339;
}
);
},
{
glyphname = three.dnom;
lastChange = "2016-08-31 20:54:14 +0000";
layers = (
{
layerId = UUID0;
shapes = (
{
closed = 1;
nodes = (
(246,-3,o),
(281,52,o),
(281,103,cs),
(281,169,o),
(235,183,o),
(217,195,cs),
(217,195,o),
(263,214,o),
(263,268,cs),
(263,314,o),
(232,364,o),
(144,364,cs),
(111,364,o),
(84,356,o),
(62,346,c),
(62,284,l),
(81,294,o),
(107,303,o),
(139,303,cs),
(172,303,o),
(195,288,o),
(195,268,cs),
(195,230,o),
(167,220,o),
(144,220,cs),
(103,220,l),
(103,163,l),
(142,163,ls),
(178,163,o),
(214,149,o),
(214,113,cs),
(214,71,o),
(179,57,o),
(144,57,cs),
(106,57,o),
(75,69,o),
(53,81,c),
(53,19,l),
(78,7,o),
(110,-3,o),
(149,-3,cs)
);
}
);
width = 323;
},
{
layerId = "ECACF70C-BE42-4FA5-B3A0-AFDA71FB1D31";
shapes = (
{
closed = 1;
nodes = (
(210,-5,o),
(304,14,o),
(304,100,cs),
(304,146,o),
(275,182,o),
(233,194,c),
(260,199,o),
(289,229,o),
(289,264,cs),
(289,342,o),
(201,363,o),
(145,363,cs),
(110,363,o),
(75,352,o),
(47,337,c),
(47,259,l),
(69,270,o),
(93,278,o),
(115,278,cs),
(137,278,o),
(162,269,o),
(162,251,cs),
(162,236,o),
(152,221,o),
(125,221,cs),
(85,221,l),
(85,155,l),
(124,155,ls),
(168,155,o),
(178,133,o),
(178,115,cs),
(178,94,o),
(157,78,o),
(125,78,cs),
(95,78,o),
(76,92,o),
(40,114,c),
(40,25,l),
(73,9,o),
(110,-5,o),
(149,-5,cs)
);
}
);
width = 335;
}
);
},
{
glyphname = four.dnom;
lastChange = "2016-08-31 20:55:17 +0000";
layers = (
{
layerId = UUID0;
shapes = (
{
closed = 1;
nodes = (
(242,1,l),
(242,89,l),
(293,89,l),
(293,145,l),
(242,145,l),
(242,360,l),
(199,360,l),
(29,150,l),
(29,89,l),
(173,89,l),
(173,1,l)
);
},
{
closed = 1;
nodes = (
(223,304,l),
(173,291,l),
(173,145,l),
(92,145,l)
);
}
);
width = 328;
},
{
layerId = "ECACF70C-BE42-4FA5-B3A0-AFDA71FB1D31";
shapes = (
{
closed = 1;
nodes = (
(290,0,l),
(290,81,l),
(333,81,l),
(333,170,l),
(290,170,l),
(290,359,l),
(181,359,l),
(24,162,l),
(24,81,l),
(180,81,l),
(180,0,l)
);
},
{
closed = 1;
nodes = (
(197,268,l),
(180,268,l),
(180,170,l),
(122,170,l)
);
}
);
width = 343;
}
);
},
{
glyphname = five.dnom;
lastChange = "2016-08-31 20:56:04 +0000";
layers = (
{
layerId = UUID0;
shapes = (
{
closed = 1;
nodes = (
(218,-3,o),
(280,17,o),
(280,111,cs),
(280,205,o),
(218,224,o),
(180,224,cs),
(152,224,o),
(134,220,o),
(116,215,c),
(126,301,l),
(257,301,l),
(257,360,l),
(73,360,l),
(55,194,l),
(79,149,l),
(79,149,o),
(106,166,o),
(141,166,cs),
(171,166,o),
(212,158,o),
(212,103,cs),
(212,67,o),
(187,54,o),
(148,54,cs),
(111,54,o),
(78,70,o),
(63,79,c),
(63,19,l),
(85,7,o),
(118,-3,o),
(166,-3,cs)
);
}
);
width = 319;
},
{
layerId = "ECACF70C-BE42-4FA5-B3A0-AFDA71FB1D31";
shapes = (
{
closed = 1;
nodes = (
(252,-14,o),
(311,20,o),
(311,113,cs),
(311,197,o),
(247,227,o),
(191,227,cs),
(160,227,o),
(152,227,o),
(144,226,c),
(146,257,l),
(288,257,l),
(288,350,l),
(66,350,l),
(46,176,l),
(97,141,l),
(110,148,o),
(125,155,o),
(142,155,cs),
(166,155,o),
(185,141,o),
(185,118,cs),
(185,92,o),
(172,78,o),
(138,78,cs),
(112,78,o),
(82,86,o),
(54,104,c),
(54,10,l),
(86,-5,o),
(125,-14,o),
(171,-14,cs)
);
}
);
width = 326;
}
);
},
{
glyphname = six.dnom;
kernLeft = six.denominator;
lastChange = "2016-08-31 20:56:55 +0000";
layers = (
{
layerId = UUID0;
shapes = (
{
closed = 1;
nodes = (
(268,-3,o),
(300,62,o),
(300,118,cs),
(300,187,o),
(253,230,o),
(178,230,cs),
(137,230,o),
(110,216,o),
(97,207,c),
(110,300,o),
(193,308,o),
(224,308,cs),
(242,308,o),
(258,305,o),
(272,301,c),
(272,358,l),
(257,361,o),
(239,364,o),
(220,364,cs),
(140,364,o),
(26,345,o),
(26,165,cs),
(26,54,o),
(67,-3,o),
(178,-3,cs)
);
},
{
closed = 1;
nodes = (
(143,53,o),
(96,63,o),
(95,144,c),
(104,153,o),
(130,174,o),
(165,174,cs),
(202,174,o),
(231,147,o),
(231,118,cs),
(231,78,o),
(215,53,o),
(168,53,cs)
);
}
);
width = 338;
},
{
layerId = "ECACF70C-BE42-4FA5-B3A0-AFDA71FB1D31";
shapes = (
{
closed = 1;
nodes = (
(277,-5,o),
(326,45,o),
(326,126,cs),
(326,202,o),
(276,236,o),
(227,236,cs),
(168,236,o),
(150,219,o),
(138,203,c),
(138,264,o),
(188,284,o),
(222,284,cs),
(235,284,o),
(255,282,o),
(287,272,c),
(287,350,l),
(271,358,o),
(241,363,o),
(214,363,cs),
(128,363,o),
(12,344,o),
(12,165,cs),
(12,53,o),
(57,-5,o),
(180,-5,cs)
);
},
{
closed = 1;
nodes = (
(149,65,o),
(139,98,o),
(139,134,c),
(145,151,o),
(160,168,o),
(174,168,cs),
(186,168,o),
(199,157,o),
(199,116,cs),
(199,91,o),
(186,65,o),
(170,65,cs)
);
}
);
width = 347;
}
);
},
{
glyphname = seven.dnom;
lastChange = "2016-08-31 21:00:37 +0000";
layers = (
{
layerId = UUID0;
shapes = (
{
closed = 1;
nodes = (
(139,1,l),
(284,323,l),
(284,360,l),
(40,360,l),
(40,301,l),
(264,301,l),
(234,354,l),
(76,1,l)
);
}
);
width = 315;
},
{
layerId = "ECACF70C-BE42-4FA5-B3A0-AFDA71FB1D31";
shapes = (
{
closed = 1;
nodes = (
(188,0,l),
(307,301,l),
(307,359,l),
(35,359,l),
(35,247,l),
(243,247,l),
(191,314,l),
(51,0,l)
);
}
);
width = 322;
}
);
},
{
glyphname = eight.dnom;
kernRight = nine.denominator;
lastChange = "2016-08-31 21:02:48 +0000";
layers = (
{
layerId = UUID0;
shapes = (
{
closed = 1;
nodes = (
(258,-3,o),
(291,57,o),
(291,108,cs),
(291,173,o),
(231,195,o),
(231,195,cs),
(231,195,o),
(277,214,o),
(277,272,cs),
(277,316,o),
(248,364,o),
(167,364,cs),
(85,364,o),
(56,316,o),
(56,272,cs),
(56,215,o),
(104,195,o),
(104,195,cs),
(104,195,o),
(43,174,o),
(43,108,cs),
(43,57,o),
(75,-3,o),
(167,-3,cs)
);
},
{
closed = 1;
nodes = (
(134,54,o),
(112,80,o),
(112,108,cs),
(112,150,o),
(138,169,o),
(167,169,cs),
(195,169,o),
(222,150,o),
(222,108,cs),
(222,80,o),
(209,54,o),
(167,54,cs)
);
},
{
closed = 1;
nodes = (
(137,220,o),
(126,243,o),
(126,263,cs),
(126,297,o),
(149,306,o),
(167,306,cs),
(190,306,o),
(209,297,o),
(209,264,cs),
(209,243,o),
(196,220,o),
(167,220,cs)
);
}
);
width = 332;
},
{
layerId = "ECACF70C-BE42-4FA5-B3A0-AFDA71FB1D31";
shapes = (
{
closed = 1;
nodes = (
(285,-5,o),
(336,31,o),
(336,104,cs),
(336,148,o),
(302,182,o),
(264,192,c),
(292,200,o),
(321,226,o),
(321,264,cs),
(321,331,o),
(277,363,o),
(171,363,cs),
(65,363,o),
(20,331,o),
(20,264,cs),
(20,226,o),
(50,200,o),
(78,192,c),
(40,182,o),
(6,148,o),
(6,104,cs),
(6,31,o),
(57,-5,o),
(171,-5,cs)
);
},
{
closed = 1;
nodes = (
(142,71,o),
(129,91,o),
(129,115,cs),
(129,130,o),
(142,151,o),
(171,151,cs),
(200,151,o),
(212,130,o),
(212,115,cs),
(212,91,o),
(200,71,o),
(171,71,cs)
);
},
{
closed = 1;
nodes = (
(154,217,o),
(136,226,o),
(136,251,cs),
(136,269,o),
(146,287,o),
(171,287,cs),
(197,287,o),
(207,269,o),
(207,251,cs),
(207,226,o),
(190,217,o),
(171,217,cs)
);
}
);
width = 343;
}
);
},
{
glyphname = nine.dnom;
kernRight = nine.denominator;
lastChange = "2016-08-31 21:03:29 +0000";
layers = (
{
layerId = UUID0;
shapes = (
{
closed = 1;
nodes = (
(189,-3,o),
(303,16,o),
(303,196,cs),
(303,308,o),
(262,364,o),
(151,364,cs),
(61,364,o),
(29,299,o),
(29,243,cs),
(29,174,o),
(76,131,o),
(151,131,cs),
(192,131,o),
(219,145,o),
(232,154,c),
(220,61,o),
(136,53,o),
(105,53,cs),
(87,53,o),
(71,56,o),
(57,60,c),
(57,4,l),
(72,0,o),
(90,-3,o),
(110,-3,cs)
);
},
{
closed = 1;
nodes = (
(127,187,o),
(98,214,o),
(98,243,cs),
(98,263,o),
(104,308,o),
(151,308,cs),
(192,308,o),
(234,299,o),
(234,217,c),
(225,208,o),
(199,187,o),
(151,187,cs)
);
}
);
width = 338;
},
{
layerId = "ECACF70C-BE42-4FA5-B3A0-AFDA71FB1D31";
shapes = (
{
closed = 1;
nodes = (
(210,-14,o),
(326,5,o),
(326,184,cs),
(326,296,o),
(281,354,o),
(158,354,cs),
(61,354,o),
(12,304,o),
(12,223,cs),
(12,147,o),
(62,113,o),
(111,113,cs),
(170,113,o),
(188,130,o),
(200,146,c),
(200,85,o),
(150,65,o),
(116,65,cs),
(103,65,o),
(83,67,o),
(51,77,c),
(51,-1,l),
(67,-9,o),
(97,-14,o),
(124,-14,cs)
);
},
{
closed = 1;
nodes = (
(152,181,o),
(139,192,o),
(139,233,cs),
(139,258,o),
(152,284,o),
(168,284,cs),
(189,284,o),
(199,251,o),
(199,215,c),
(193,198,o),
(178,181,o),
(164,181,cs)
);
}
);
width = 349;
}
);
},
{
glyphname = zero.numr;
kernLeft = six.numerator;
kernRight = nine.numerator;
lastChange = "2017-07-04 14:13:09 +0000";
layers = (
{
background = {
shapes = (
{
closed = 1;
nodes = (
(281,309,o),
(329,371,o),
(329,493,cs),
(329,615,o),
(281,677,o),
(188,677,cs),
(94,677,o),
(46,615,o),
(46,493,cs),
(46,371,o),
(94,309,o),
(188,309,cs)
);
},
{
closed = 1;
nodes = (
(140,345,o),
(85,362,o),
(85,493,cs),
(85,624,o),
(140,641,o),
(188,641,cs),
(235,641,o),
(290,624,o),
(290,493,cs),
(290,362,o),
(235,345,o),
(188,345,cs)
);
}
);
};
layerId = UUID0;
shapes = (
{
pos = (0,314);
ref = zero.dnom;
}
);
width = 379;
},
{
background = {
shapes = (
{
closed = 1;
nodes = (
(284,310,o),
(332,372,o),
(332,494,cs),
(332,615,o),
(284,678,o),
(187,678,cs),
(91,678,o),
(42,615,o),
(42,494,cs),
(42,372,o),
(91,310,o),
(187,310,cs)
);
},
{
closed = 1;
nodes = (
(163,390,o),
(135,405,o),
(135,494,cs),
(135,583,o),
(163,599,o),
(187,599,cs),
(213,599,o),
(241,583,o),
(241,494,cs),
(241,405,o),
(213,390,o),
(187,390,cs)
);
}
);
};
layerId = "ECACF70C-BE42-4FA5-B3A0-AFDA71FB1D31";
shapes = (
{
pos = (0,326);
ref = zero.dnom;
}
);
width = 380;
}
);
},
{
glyphname = one.numr;
kernLeft = one.numerator;
kernRight = one.numerator;
lastChange = "2016-08-31 15:20:56 +0000";
layers = (
{
background = {
shapes = (
{
closed = 1;
nodes = (
(163,315,l),
(163,674,l),
(119,674,l),
(53,632,l),
(53,586,l),
(125,633,l),
(125,315,l)
);
}
);
};
layerId = UUID0;
shapes = (
{
pos = (0,314);
ref = one.dnom;
}
);
width = 234;
},
{
background = {
shapes = (
{
closed = 1;
nodes = (
(196,315,l),
(196,674,l),
(120,674,l),
(45,627,l),
(45,536,l),
(103,571,l),
(103,315,l)
);
}
);
};
layerId = "ECACF70C-BE42-4FA5-B3A0-AFDA71FB1D31";
shapes = (
{
pos = (0,312);
ref = one.dnom;
}
);
width = 250;
}
);
},
{
glyphname = two.numr;
lastChange = "2016-08-31 15:21:01 +0000";
layers = (
{
background = {
shapes = (
{
closed = 1;
nodes = (
(279,315,l),
(279,354,l),
(117,354,l),
(182,407,o),
(274,496,o),
(274,578,cs),
(274,626,o),
(242,678,o),
(154,678,cs),
(113,678,o),
(80,665,o),
(57,651,c),
(57,609,l),
(75,622,o),
(108,639,o),
(151,639,cs),
(220,639,o),
(235,606,o),
(235,578,cs),
(235,499,o),
(114,394,o),
(53,349,c),
(53,315,l)
);
}
);
};
layerId = UUID0;
shapes = (
{
pos = (0,314);
ref = two.dnom;
}
);
width = 328;
},
{
background = {
shapes = (
{
closed = 1;
nodes = (
(295,315,l),
(295,398,l),
(190,398,l),
(234,437,o),
(293,503,o),
(293,564,cs),
(293,620,o),
(259,679,o),
(163,679,cs),
(121,679,o),
(82,662,o),
(51,643,c),
(51,549,l),
(86,577,o),
(125,593,o),
(154,593,cs),
(186,593,o),
(201,578,o),
(201,557,cs),
(201,504,o),
(100,426,o),
(49,388,c),
(49,315,l)
);
}
);
};
layerId = "ECACF70C-BE42-4FA5-B3A0-AFDA71FB1D31";
shapes = (
{
pos = (0,326);
ref = two.dnom;
}
);
width = 339;
}
);
},
{
glyphname = three.numr;
kernRight = one.numerator;
lastChange = "2016-08-31 15:21:09 +0000";
layers = (
{
background = {
shapes = (
{
closed = 1;
nodes = (
(246,311,o),
(281,366,o),
(281,417,cs),
(281,483,o),
(217,509,o),
(217,509,cs),
(217,509,o),
(263,528,o),
(263,582,cs),
(263,628,o),
(232,678,o),
(144,678,cs),
(111,678,o),
(84,670,o),
(62,660,c),
(62,621,l),
(81,631,o),
(107,639,o),
(139,639,cs),
(194,639,o),
(224,619,o),
(224,582,cs),
(224,544,o),
(196,524,o),
(144,524,cs),
(103,524,l),
(103,487,l),
(142,487,ls),
(207,487,o),
(243,463,o),
(243,418,cs),
(243,374,o),
(208,349,o),
(144,349,cs),
(106,349,o),
(75,361,o),
(53,373,c),
(53,333,l),
(78,321,o),
(110,311,o),
(149,311,cs)
);
}
);
};
layerId = UUID0;
shapes = (
{
pos = (0,314);
ref = three.dnom;
}
);
width = 323;
},
{
layerId = "ECACF70C-BE42-4FA5-B3A0-AFDA71FB1D31";
shapes = (
{
pos = (0,326);
ref = three.dnom;
}
);
width = 335;
}
);
},
{
glyphname = four.numr;
lastChange = "2016-08-31 15:21:16 +0000";
layers = (
{
background = {
shapes = (
{
closed = 1;
nodes = (
(242,315,l),
(242,423,l),
(293,423,l),
(293,459,l),
(242,459,l),
(242,674,l),
(199,674,l),
(29,464,l),
(29,423,l),
(203,423,l),
(203,315,l)
);
},
{
closed = 1;
nodes = (
(203,618,l),
(203,459,l),
(72,459,l)
);
}
);
};
layerId = UUID0;
shapes = (
{
pos = (0,314);
ref = four.dnom;
}
);
width = 328;
},
{
layerId = "ECACF70C-BE42-4FA5-B3A0-AFDA71FB1D31";
shapes = (
{
pos = (0,312);
ref = four.dnom;
}
);
width = 343;
}
);
},
{
glyphname = five.numr;
kernRight = one.numerator;
lastChange = "2016-08-31 15:21:23 +0000";
layers = (
{
background = {
shapes = (
{
closed = 1;
nodes = (
(218,311,o),
(280,331,o),
(280,425,cs),
(280,519,o),
(218,538,o),
(166,538,cs),
(137,538,o),
(114,534,o),
(96,529,c),
(106,635,l),
(257,635,l),
(257,674,l),
(73,674,l),
(55,508,l),
(79,483,l),
(79,483,o),
(106,500,o),
(163,500,cs),
(201,500,o),
(242,492,o),
(242,425,cs),
(242,392,o),
(237,348,o),
(163,348,cs),
(111,348,o),
(78,364,o),
(63,373,c),
(63,333,l),
(85,321,o),
(118,311,o),
(166,311,cs)
);
}
);
};
layerId = UUID0;
shapes = (
{
pos = (0,314);
ref = five.dnom;
}
);
width = 319;
},
{
layerId = "ECACF70C-BE42-4FA5-B3A0-AFDA71FB1D31";
shapes = (
{
pos = (0,312);
ref = five.dnom;
}
);
width = 326;
}
);
},
{
glyphname = six.numr;
kernLeft = six.numerator;
kernRight = one.numerator;
lastChange = "2016-08-31 15:21:29 +0000";
layers = (
{
background = {
shapes = (
{
closed = 1;
nodes = (
(268,311,o),
(300,376,o),
(300,432,cs),
(300,501,o),
(253,544,o),
(178,544,cs),
(137,544,o),
(110,530,o),
(97,521,c),
(110,634,o),
(193,642,o),
(224,642,cs),
(242,642,o),
(258,639,o),
(272,635,c),
(272,671,l),
(257,675,o),
(239,678,o),
(220,678,cs),
(170,678,o),
(56,659,o),
(56,479,cs),
(56,367,o),
(97,311,o),
(178,311,cs)
);
},
{
closed = 1;
nodes = (
(153,347,o),
(96,347,o),
(95,478,c),
(104,487,o),
(130,508,o),
(178,508,cs),
(232,508,o),
(261,481,o),
(261,432,cs),
(261,412,o),
(255,347,o),
(178,347,cs)
);
}
);
};
layerId = UUID0;
shapes = (
{
pos = (0,314);
ref = six.dnom;
}
);
width = 338;
},
{
layerId = "ECACF70C-BE42-4FA5-B3A0-AFDA71FB1D31";
shapes = (
{
pos = (0,326);
ref = six.dnom;
}
);
width = 347;
}
);
},
{
glyphname = seven.numr;
lastChange = "2016-08-31 15:21:39 +0000";
layers = (
{
background = {
shapes = (
{
closed = 1;
nodes = (
(129,315,l),
(284,637,l),
(284,674,l),
(40,674,l),
(40,635,l),
(242,635,l),
(86,315,l)
);
}
);
};
layerId = UUID0;
shapes = (
{
pos = (0,314);
ref = seven.dnom;
}
);
width = 315;
},
{
layerId = "ECACF70C-BE42-4FA5-B3A0-AFDA71FB1D31";
shapes = (
{
pos = (0,312);
ref = seven.dnom;
}
);
width = 322;
}
);
},
{
glyphname = eight.numr;
kernLeft = one.numerator;
kernRight = one.numerator;
lastChange = "2016-08-31 15:21:45 +0000";
layers = (
{
background = {
shapes = (
{
closed = 1;
nodes = (
(258,311,o),
(291,371,o),
(291,422,cs),
(291,487,o),
(231,509,o),
(231,509,cs),
(231,509,o),
(277,528,o),
(277,586,cs),
(277,630,o),
(248,678,o),
(167,678,cs),
(85,678,o),
(56,630,o),
(56,586,cs),
(56,529,o),
(104,509,o),
(104,509,cs),
(104,509,o),
(43,488,o),
(43,422,cs),
(43,371,o),
(75,311,o),
(167,311,cs)
);
},
{
closed = 1;
nodes = (
(88,347,o),
(81,404,o),
(81,422,cs),
(81,464,o),
(112,488,o),
(167,488,cs),
(222,488,o),
(252,464,o),
(252,422,cs),
(252,404,o),
(246,347,o),
(167,347,cs)
);
},
{
closed = 1;
nodes = (
(122,524,o),
(95,547,o),
(95,585,cs),
(95,631,o),
(134,640,o),
(167,640,cs),
(200,640,o),
(239,631,o),
(239,585,cs),
(239,547,o),
(212,524,o),
(167,524,cs)
);
}
);
};
layerId = UUID0;
shapes = (
{
pos = (0,314);
ref = eight.dnom;
}
);
width = 332;
},
{
layerId = "ECACF70C-BE42-4FA5-B3A0-AFDA71FB1D31";
shapes = (
{
pos = (0,326);
ref = eight.dnom;
}
);
width = 343;
}
);
},
{
glyphname = nine.numr;
kernRight = nine.numerator;
lastChange = "2016-08-31 15:21:51 +0000";
layers = (
{
background = {
shapes = (
{
closed = 1;
nodes = (
(179,311,o),
(293,330,o),
(293,510,cs),
(293,622,o),
(252,678,o),
(171,678,cs),
(81,678,o),
(49,613,o),
(49,557,cs),
(49,488,o),
(96,445,o),
(171,445,cs),
(212,445,o),
(239,459,o),
(252,468,c),
(240,355,o),
(156,347,o),
(125,347,cs),
(107,347,o),
(91,350,o),
(77,354,c),
(77,318,l),
(92,314,o),
(110,311,o),
(130,311,cs)
);
},
{
closed = 1;
nodes = (
(117,481,o),
(88,508,o),
(88,557,cs),
(88,577,o),
(94,642,o),
(171,642,cs),
(196,642,o),
(253,642,o),
(254,511,c),
(245,502,o),
(219,481,o),
(171,481,cs)
);
}
);
};
layerId = UUID0;
shapes = (
{
pos = (0,314);
ref = nine.dnom;
}
);
width = 338;
},
{
layerId = "ECACF70C-BE42-4FA5-B3A0-AFDA71FB1D31";
shapes = (
{
pos = (0,326);
ref = nine.dnom;
}
);
width = 349;
}
);
},
{
glyphname = fraction;
lastChange = "2017-07-04 14:19:44 +0000";
layers = (
{
layerId = UUID0;
shapes = (
{
closed = 1;
nodes = (
(51,-22,l),
(458,685,l),
(390,685,l),
(-17,-22,l)
);
}
);
width = 444;
},
{
layerId = "ECACF70C-BE42-4FA5-B3A0-AFDA71FB1D31";
shapes = (
{
closed = 1;
nodes = (
(54,-22,l),
(461,685,l),
(337,685,l),
(-70,-22,l)
);
}
);
width = 391;
}
);
unicode = 8260;
},
{
glyphname = zero.inferior;
kernLeft = six.inferior;
kernRight = two.inferior;
lastChange = "2017-07-04 14:13:19 +0000";
layers = (
{
background = {
shapes = (
{
closed = 1;
nodes = (
(281,-155,o),
(329,-94,o),
(329,28,cs),
(329,150,o),
(281,212,o),
(188,212,cs),
(94,212,o),
(46,150,o),
(46,28,cs),
(46,-94,o),
(94,-155,o),
(188,-155,cs)
);
},
{
closed = 1;
nodes = (
(140,-120,o),
(85,-103,o),
(85,28,cs),
(85,159,o),
(140,176,o),
(188,176,cs),
(235,176,o),
(290,159,o),
(290,28,cs),
(290,-103,o),
(235,-120,o),
(188,-120,cs)
);
}
);
};
layerId = UUID0;
shapes = (
{
pos = (0,-151);
ref = zero.dnom;
}
);
width = 379;
},
{
background = {
shapes = (
{
closed = 1;
nodes = (
(284,-155,o),
(332,-93,o),
(332,29,cs),
(332,150,o),
(284,213,o),
(187,213,cs),
(91,213,o),
(42,150,o),
(42,29,cs),
(42,-93,o),
(91,-155,o),
(187,-155,cs)
);
},
{
closed = 1;
nodes = (
(163,-75,o),
(135,-60,o),
(135,29,cs),
(135,118,o),
(163,134,o),
(187,134,cs),
(213,134,o),
(241,118,o),
(241,29,cs),
(241,-60,o),
(213,-75,o),
(187,-75,cs)
);
}
);
};
layerId = "ECACF70C-BE42-4FA5-B3A0-AFDA71FB1D31";
shapes = (
{
pos = (0,-140);
ref = zero.dnom;
}
);
width = 380;
}
);
unicode = 8320;
},
{
glyphname = one.inferior;
kernRight = one.inferior;
lastChange = "2016-08-31 15:16:36 +0000";
layers = (
{
background = {
shapes = (
{
closed = 1;
nodes = (
(163,-149,l),
(163,209,l),
(119,209,l),
(53,167,l),
(53,121,l),
(125,168,l),
(125,-149,l)
);
}
);
};
layerId = UUID0;
shapes = (
{
pos = (0,-150);
ref = one.dnom;
}
);
width = 234;
},
{
background = {
shapes = (
{
closed = 1;
nodes = (
(195,-150,l),
(195,209,l),
(119,209,l),
(44,162,l),
(44,71,l),
(102,106,l),
(102,-150,l)
);
}
);
};
layerId = "ECACF70C-BE42-4FA5-B3A0-AFDA71FB1D31";
shapes = (
{
pos = (0,-150);
ref = one.dnom;
}
);
width = 250;
}
);
unicode = 8321;
},
{
glyphname = two.inferior;
kernRight = two.inferior;
lastChange = "2016-08-31 15:16:43 +0000";
layers = (
{
background = {
shapes = (
{
closed = 1;
nodes = (
(279,-149,l),
(279,-111,l),
(117,-111,l),
(182,-58,o),
(274,32,o),
(274,113,cs),
(274,161,o),
(242,213,o),
(154,213,cs),
(113,213,o),
(80,200,o),
(57,186,c),
(57,144,l),
(75,157,o),
(108,175,o),
(151,175,cs),
(220,175,o),
(235,141,o),
(235,113,cs),
(235,34,o),
(114,-71,o),
(53,-116,c),
(53,-149,l)
);
}
);
};
layerId = UUID0;
shapes = (
{
pos = (0,-150);
ref = two.dnom;
}
);
width = 328;
},
{
background = {
shapes = (
{
closed = 1;
nodes = (
(295,-150,l),
(295,-67,l),
(190,-67,l),
(234,-28,o),
(293,38,o),
(293,99,cs),
(293,155,o),
(259,214,o),
(163,214,cs),
(121,214,o),
(82,197,o),
(51,178,c),
(51,84,l),
(86,112,o),
(125,128,o),
(154,128,cs),
(186,128,o),
(201,113,o),
(201,92,cs),
(201,39,o),
(100,-39,o),
(49,-77,c),
(49,-150,l)
);
}
);
};
layerId = "ECACF70C-BE42-4FA5-B3A0-AFDA71FB1D31";
shapes = (
{
pos = (0,-150);
ref = two.dnom;
}
);
width = 339;
}
);
unicode = 8322;
},
{
glyphname = three.inferior;
kernRight = two.inferior;
lastChange = "2016-08-31 15:16:57 +0000";
layers = (
{
background = {
shapes = (
{
closed = 1;
nodes = (
(246,-154,o),
(281,-99,o),
(281,-47,cs),
(281,19,o),
(217,44,o),
(217,44,cs),
(217,44,o),
(263,63,o),
(263,117,cs),
(263,164,o),
(232,213,o),
(144,213,cs),
(111,213,o),
(84,205,o),
(62,195,c),
(62,156,l),
(81,166,o),
(107,175,o),
(139,175,cs),
(194,175,o),
(224,154,o),
(224,117,cs),
(224,80,o),
(196,59,o),
(144,59,cs),
(103,59,l),
(103,22,l),
(142,22,ls),
(207,22,o),
(243,-2,o),
(243,-46,cs),
(243,-91,o),
(208,-115,o),
(144,-115,cs),
(106,-115,o),
(75,-104,o),
(53,-92,c),
(53,-131,l),
(78,-144,o),
(110,-154,o),
(149,-154,cs)
);
}
);
};
layerId = UUID0;
shapes = (
{
pos = (0,-150);
ref = three.dnom;
}
);
width = 323;
},
{
background = {
shapes = (
{
closed = 1;
nodes = (
(220,-155,o),
(300,-136,o),
(300,-50,cs),
(300,-4,o),
(271,32,o),
(229,44,c),
(256,49,o),
(285,79,o),
(285,114,cs),
(285,192,o),
(211,213,o),
(155,213,cs),
(120,213,o),
(85,202,o),
(57,187,c),
(57,109,l),
(101,130,o),
(123,128,o),
(145,128,cs),
(167,128,o),
(192,119,o),
(192,101,cs),
(192,86,o),
(182,71,o),
(155,71,cs),
(95,71,l),
(95,5,l),
(154,5,ls),
(198,5,o),
(208,-17,o),
(208,-35,cs),
(208,-56,o),
(187,-72,o),
(155,-72,cs),
(125,-72,o),
(86,-58,o),
(50,-36,c),
(50,-125,l),
(83,-141,o),
(120,-155,o),
(159,-155,cs)
);
}
);
};
layerId = "ECACF70C-BE42-4FA5-B3A0-AFDA71FB1D31";
shapes = (
{
pos = (0,-150);
ref = three.dnom;
}
);
width = 335;
}
);
unicode = 8323;
},
{
glyphname = four.inferior;
kernRight = one.inferior;
lastChange = "2016-08-31 15:17:05 +0000";
layers = (
{
background = {
shapes = (
{
closed = 1;
nodes = (
(242,-149,l),
(242,-42,l),
(293,-42,l),
(293,-6,l),
(242,-6,l),
(242,209,l),
(199,209,l),
(29,-1,l),
(29,-42,l),
(203,-42,l),
(203,-149,l)
);
},
{
closed = 1;
nodes = (
(203,153,l),
(203,-6,l),
(72,-6,l)
);
}
);
};
layerId = UUID0;
shapes = (
{
pos = (0,-150);
ref = four.dnom;
}
);
width = 328;
},
{
background = {
shapes = (
{
closed = 1;
nodes = (
(263,-150,l),
(263,-59,l),
(306,-59,l),
(306,20,l),
(263,20,l),
(263,209,l),
(182,209,l),
(25,12,l),
(25,-59,l),
(171,-59,l),
(171,-150,l)
);
},
{
closed = 1;
nodes = (
(171,83,l),
(171,20,l),
(123,20,l)
);
}
);
};
layerId = "ECACF70C-BE42-4FA5-B3A0-AFDA71FB1D31";
shapes = (
{
pos = (0,-150);
ref = four.dnom;
}
);
width = 343;
}
);
unicode = 8324;
},
{
glyphname = five.inferior;
lastChange = "2016-08-31 15:17:13 +0000";
layers = (
{
background = {
shapes = (
{
closed = 1;
nodes = (
(218,-154,o),
(280,-134,o),
(280,-40,cs),
(280,54,o),
(218,74,o),
(166,74,cs),
(137,74,o),
(114,69,o),
(96,64,c),
(106,170,l),
(257,170,l),
(257,209,l),
(73,209,l),
(55,43,l),
(79,18,l),
(79,18,o),
(106,35,o),
(163,35,cs),
(201,35,o),
(242,27,o),
(242,-40,cs),
(242,-73,o),
(237,-116,o),
(163,-116,cs),
(111,-116,o),
(78,-101,o),
(63,-92,c),
(63,-132,l),
(85,-144,o),
(118,-154,o),
(166,-154,cs)
);
}
);
};
layerId = UUID0;
shapes = (
{
pos = (0,-150);
ref = five.dnom;
}
);
width = 319;
},
{
background = {
shapes = (
{
closed = 1;
nodes = (
(232,-155,o),
(297,-131,o),
(297,-38,cs),
(297,56,o),
(247,96,o),
(170,96,cs),
(160,96,o),
(152,96,o),
(144,95,c),
(146,126,l),
(278,126,l),
(278,209,l),
(66,209,l),
(46,35,l),
(97,-2,l),
(97,-2,o),
(123,15,o),
(162,14,cs),
(186,14,o),
(205,0,o),
(205,-30,cs),
(205,-49,o),
(192,-73,o),
(158,-73,cs),
(122,-73,o),
(82,-55,o),
(54,-37,c),
(54,-125,l),
(86,-140,o),
(125,-155,o),
(171,-155,cs)
);
}
);
};
layerId = "ECACF70C-BE42-4FA5-B3A0-AFDA71FB1D31";
shapes = (
{
pos = (0,-140);
ref = five.dnom;
}
);
width = 326;
}
);
unicode = 8325;
},
{
glyphname = six.inferior;
kernLeft = six.inferior;
lastChange = "2016-08-31 15:17:21 +0000";
layers = (
{
background = {
shapes = (
{
closed = 1;
nodes = (
(268,-154,o),
(300,-89,o),
(300,-33,cs),
(300,37,o),
(253,80,o),
(178,80,cs),
(137,80,o),
(110,66,o),
(97,56,c),
(110,169,o),
(193,177,o),
(224,177,cs),
(242,177,o),
(258,174,o),
(272,170,c),
(272,207,l),
(257,211,o),
(239,214,o),
(220,214,cs),
(170,214,o),
(56,194,o),
(56,15,cs),
(56,-97,o),
(97,-154,o),
(178,-154,cs)
);
},
{
closed = 1;
nodes = (
(153,-117,o),
(96,-117,o),
(95,13,c),
(104,23,o),
(130,44,o),
(178,44,cs),
(232,44,o),
(261,17,o),
(261,-32,cs),
(261,-52,o),
(255,-117,o),
(178,-117,cs)
);
}
);
};
layerId = UUID0;
shapes = (
{
pos = (0,-150);
ref = six.dnom;
}
);
width = 338;
},
{
background = {
shapes = (
{
closed = 1;
nodes = (
(277,-155,o),
(312,-85,o),
(312,-24,cs),
(312,72,o),
(246,86,o),
(188,86,cs),
(183,86,o),
(150,84,o),
(138,79,c),
(143,120,o),
(188,134,o),
(222,134,cs),
(235,134,o),
(255,132,o),
(287,122,c),
(287,200,l),
(271,208,o),
(241,213,o),
(214,213,cs),
(163,213,o),
(47,194,o),
(47,15,cs),
(47,-97,o),
(92,-155,o),
(180,-155,cs)
);
},
{
closed = 1;
nodes = (
(159,-75,o),
(138,-46,o),
(139,22,c),
(149,26,o),
(163,28,o),
(179,28,cs),
(209,28,o),
(219,-1,o),
(219,-24,cs),
(219,-34,o),
(216,-75,o),
(180,-75,cs)
);
}
);
};
layerId = "ECACF70C-BE42-4FA5-B3A0-AFDA71FB1D31";
shapes = (
{
pos = (0,-150);
ref = six.dnom;
}
);
width = 347;
}
);
unicode = 8326;
},
{
glyphname = seven.inferior;
lastChange = "2016-08-31 15:17:30 +0000";
layers = (
{
background = {
shapes = (
{
closed = 1;
nodes = (
(129,-149,l),
(284,173,l),
(284,209,l),
(40,209,l),
(40,170,l),
(242,170,l),
(86,-149,l)
);
}
);
};
layerId = UUID0;
shapes = (
{
pos = (0,-150);
ref = seven.dnom;
}
);
width = 315;
},
{
background = {
shapes = (
{
closed = 1;
nodes = (
(157,-150,l),
(298,141,l),
(298,209,l),
(34,209,l),
(34,117,l),
(180,117,l),
(50,-150,l)
);
}
);
};
layerId = "ECACF70C-BE42-4FA5-B3A0-AFDA71FB1D31";
shapes = (
{
pos = (0,-150);
ref = seven.dnom;
}
);
width = 322;
}
);
unicode = 8327;
},
{
glyphname = eight.inferior;
kernLeft = nine.inferior;
kernRight = two.inferior;
lastChange = "2016-08-31 15:17:38 +0000";
layers = (
{
background = {
shapes = (
{
closed = 1;
nodes = (
(258,-154,o),
(291,-94,o),
(291,-43,cs),
(291,22,o),
(231,45,o),
(231,45,cs),
(231,45,o),
(277,63,o),
(277,121,cs),
(277,166,o),
(248,213,o),
(167,213,cs),
(85,213,o),
(56,166,o),
(56,121,cs),
(56,64,o),
(104,44,o),
(104,44,cs),
(104,44,o),
(43,23,o),
(43,-43,cs),
(43,-94,o),
(75,-154,o),
(167,-154,cs)
);
},
{
closed = 1;
nodes = (
(88,-117,o),
(81,-60,o),
(81,-43,cs),
(81,0,o),
(112,23,o),
(167,23,cs),
(222,23,o),
(252,0,o),
(252,-43,cs),
(252,-60,o),
(246,-117,o),
(167,-117,cs)
);
},
{
closed = 1;
nodes = (
(122,59,o),
(95,82,o),
(95,121,cs),
(95,166,o),
(134,176,o),
(167,176,cs),
(200,176,o),
(239,166,o),
(239,121,cs),
(239,82,o),
(212,59,o),
(167,59,cs)
);
}
);
};
layerId = UUID0;
shapes = (
{
pos = (0,-150);
ref = eight.dnom;
}
);
width = 332;
},
{
background = {
shapes = (
{
closed = 1;
nodes = (
(255,-155,o),
(306,-119,o),
(306,-46,cs),
(306,-2,o),
(272,32,o),
(234,42,c),
(262,50,o),
(291,76,o),
(291,114,cs),
(291,181,o),
(247,213,o),
(171,213,cs),
(95,213,o),
(50,181,o),
(50,114,cs),
(50,76,o),
(80,50,o),
(108,42,c),
(70,32,o),
(36,-2,o),
(36,-46,cs),
(36,-119,o),
(87,-155,o),
(171,-155,cs)
);
},
{
closed = 1;
nodes = (
(142,-79,o),
(129,-59,o),
(129,-35,cs),
(129,-20,o),
(142,1,o),
(171,1,cs),
(200,1,o),
(212,-20,o),
(212,-35,cs),
(212,-59,o),
(200,-79,o),
(171,-79,cs)
);
},
{
closed = 1;
nodes = (
(158,77,o),
(140,86,o),
(140,106,cs),
(140,119,o),
(150,137,o),
(171,137,cs),
(192,137,o),
(202,119,o),
(202,106,cs),
(202,86,o),
(185,77,o),
(171,77,cs)
);
}
);
};
layerId = "ECACF70C-BE42-4FA5-B3A0-AFDA71FB1D31";
shapes = (
{
pos = (0,-150);
ref = eight.dnom;
}
);
width = 343;
}
);
unicode = 8328;
},
{
glyphname = nine.inferior;
kernLeft = nine.inferior;
kernRight = two.inferior;
lastChange = "2016-08-31 15:17:46 +0000";
layers = (
{
background = {
shapes = (
{
closed = 1;
nodes = (
(179,-154,o),
(293,-134,o),
(293,45,cs),
(293,157,o),
(252,214,o),
(171,214,cs),
(81,214,o),
(49,148,o),
(49,93,cs),
(49,23,o),
(96,-20,o),
(171,-20,cs),
(212,-20,o),
(239,-6,o),
(252,3,c),
(240,-109,o),
(156,-117,o),
(125,-117,cs),
(107,-117,o),
(91,-114,o),
(77,-111,c),
(77,-147,l),
(92,-151,o),
(110,-154,o),
(130,-154,cs)
);
},
{
closed = 1;
nodes = (
(117,16,o),
(88,43,o),
(88,92,cs),
(88,112,o),
(94,177,o),
(171,177,cs),
(196,177,o),
(253,177,o),
(254,46,c),
(245,37,o),
(219,16,o),
(171,16,cs)
);
}
);
};
layerId = UUID0;
shapes = (
{
pos = (0,-150);
ref = nine.dnom;
}
);
width = 338;
},
{
background = {
shapes = (
{
closed = 1;
nodes = (
(193,-155,o),
(309,-136,o),
(309,42,cs),
(309,155,o),
(264,213,o),
(177,213,cs),
(80,213,o),
(45,142,o),
(45,82,cs),
(45,-15,o),
(111,-28,o),
(169,-28,cs),
(174,-28,o),
(207,-26,o),
(219,-21,c),
(214,-62,o),
(169,-76,o),
(135,-76,cs),
(121,-76,o),
(102,-74,o),
(69,-64,c),
(69,-142,l),
(86,-150,o),
(116,-155,o),
(142,-155,cs)
);
},
{
closed = 1;
nodes = (
(148,30,o),
(138,58,o),
(138,81,cs),
(138,91,o),
(141,133,o),
(177,133,cs),
(198,133,o),
(219,103,o),
(218,36,c),
(207,31,o),
(193,30,o),
(178,30,cs)
);
}
);
};
layerId = "ECACF70C-BE42-4FA5-B3A0-AFDA71FB1D31";
shapes = (
{
pos = (0,-140);
ref = nine.dnom;
}
);
width = 349;
}
);
unicode = 8329;
},
{
glyphname = zero.superior;
kernLeft = tilde;
kernRight = tilde;
lastChange = "2017-07-04 14:13:19 +0000";
layers = (
{
background = {
shapes = (
{
closed = 1;
nodes = (
(281,457,o),
(329,519,o),
(329,641,cs),
(329,763,o),
(281,825,o),
(188,825,cs),
(94,825,o),
(46,763,o),
(46,641,cs),
(46,519,o),
(94,457,o),
(188,457,cs)
);
},
{
closed = 1;
nodes = (
(140,493,o),
(85,510,o),
(85,641,cs),
(85,772,o),
(140,789,o),
(188,789,cs),
(235,789,o),
(290,772,o),
(290,641,cs),
(290,510,o),
(235,493,o),
(188,493,cs)
);
}
);
};
layerId = UUID0;
shapes = (
{
pos = (0,462);
ref = zero.dnom;
}
);
width = 379;
},
{
background = {
shapes = (
{
closed = 1;
nodes = (
(284,458,o),
(332,520,o),
(332,642,cs),
(332,763,o),
(284,826,o),
(187,826,cs),
(91,826,o),
(42,763,o),
(42,642,cs),
(42,520,o),
(91,458,o),
(187,458,cs)
);
},
{
closed = 1;
nodes = (
(163,538,o),
(135,553,o),
(135,642,cs),
(135,731,o),
(163,747,o),
(187,747,cs),
(213,747,o),
(241,731,o),
(241,642,cs),
(241,553,o),
(213,538,o),
(187,538,cs)
);
}
);
};
layerId = "ECACF70C-BE42-4FA5-B3A0-AFDA71FB1D31";
shapes = (
{
pos = (0,473);
ref = zero.dnom;
}
);
width = 380;
}
);
unicode = 8304;
},
{
glyphname = one.superior;
kernLeft = tilde;
kernRight = tilde;
lastChange = "2016-08-31 15:19:20 +0000";
layers = (
{
layerId = UUID0;
shapes = (
{
pos = (0,462);
ref = one.dnom;
}
);
width = 234;
},
{
background = {
shapes = (
{
closed = 1;
nodes = (
(196,463,l),
(196,822,l),
(120,822,l),
(45,775,l),
(45,684,l),
(103,719,l),
(103,463,l)
);
}
);
};
layerId = "ECACF70C-BE42-4FA5-B3A0-AFDA71FB1D31";
shapes = (
{
pos = (0,462);
ref = one.dnom;
}
);
width = 250;
}
);
unicode = 185;
},
{
glyphname = two.superior;
kernLeft = tilde;
kernRight = tilde;
lastChange = "2016-08-31 15:19:28 +0000";
layers = (
{
background = {
shapes = (
{
closed = 1;
nodes = (
(279,463,l),
(279,502,l),
(117,502,l),
(182,555,o),
(274,644,o),
(274,726,cs),
(274,774,o),
(242,826,o),
(154,826,cs),
(113,826,o),
(80,813,o),
(57,799,c),
(57,757,l),
(75,770,o),
(108,787,o),
(151,787,cs),
(220,787,o),
(235,754,o),
(235,726,cs),
(235,647,o),
(114,542,o),
(53,497,c),
(53,463,l)
);
}
);
};
layerId = UUID0;
shapes = (
{
pos = (0,462);
ref = two.dnom;
}
);
width = 328;
},
{
background = {
shapes = (
{
closed = 1;
nodes = (
(296,463,l),
(296,546,l),
(191,546,l),
(235,585,o),
(294,651,o),
(294,712,cs),
(294,768,o),
(260,827,o),
(164,827,cs),
(122,827,o),
(83,810,o),
(52,791,c),
(52,697,l),
(87,725,o),
(126,741,o),
(155,741,cs),
(187,741,o),
(202,726,o),
(202,705,cs),
(202,652,o),
(101,574,o),
(50,536,c),
(50,463,l)
);
}
);
};
layerId = "ECACF70C-BE42-4FA5-B3A0-AFDA71FB1D31";
shapes = (
{
pos = (0,463);
ref = two.dnom;
}
);
width = 339;
}
);
unicode = 178;
},
{
glyphname = three.superior;
kernLeft = tilde;
kernRight = tilde;
lastChange = "2016-08-31 15:19:38 +0000";
layers = (
{
background = {
shapes = (
{
closed = 1;
nodes = (
(246,459,o),
(281,514,o),
(281,565,cs),
(281,631,o),
(217,657,o),
(217,657,cs),
(217,657,o),
(263,676,o),
(263,730,cs),
(263,776,o),
(232,826,o),
(144,826,cs),
(111,826,o),
(84,818,o),
(62,808,c),
(62,769,l),
(81,779,o),
(107,787,o),
(139,787,cs),
(194,787,o),
(224,767,o),
(224,730,cs),
(224,692,o),
(196,672,o),
(144,672,cs),
(103,672,l),
(103,635,l),
(142,635,ls),
(207,635,o),
(243,611,o),
(243,566,cs),
(243,522,o),
(208,497,o),
(144,497,cs),
(106,497,o),
(75,509,o),
(53,521,c),
(53,481,l),
(78,469,o),
(110,459,o),
(149,459,cs)
);
}
);
};
layerId = UUID0;
shapes = (
{
pos = (0,462);
ref = three.dnom;
}
);
width = 323;
},
{
background = {
shapes = (
{
closed = 1;
nodes = (
(219,458,o),
(299,477,o),
(299,563,cs),
(299,609,o),
(270,645,o),
(228,657,c),
(255,662,o),
(284,692,o),
(284,727,cs),
(284,805,o),
(210,826,o),
(154,826,cs),
(119,826,o),
(84,815,o),
(56,800,c),
(56,722,l),
(100,743,o),
(122,741,o),
(144,741,cs),
(166,741,o),
(191,732,o),
(191,714,cs),
(191,699,o),
(181,684,o),
(154,684,cs),
(94,684,l),
(94,618,l),
(153,618,ls),
(197,618,o),
(207,596,o),
(207,578,cs),
(207,557,o),
(186,541,o),
(154,541,cs),
(124,541,o),
(85,555,o),
(49,577,c),
(49,488,l),
(82,472,o),
(119,458,o),
(158,458,cs)
);
}
);
};
layerId = "ECACF70C-BE42-4FA5-B3A0-AFDA71FB1D31";
shapes = (
{
pos = (0,463);
ref = three.dnom;
}
);
width = 335;
}
);
unicode = 179;
},
{
glyphname = four.superior;
kernLeft = tilde;
kernRight = tilde;
lastChange = "2016-08-31 15:19:44 +0000";
layers = (
{
background = {
shapes = (
{
closed = 1;
nodes = (
(242,463,l),
(242,571,l),
(293,571,l),
(293,607,l),
(242,607,l),
(242,822,l),
(199,822,l),
(29,612,l),
(29,571,l),
(203,571,l),
(203,463,l)
);
},
{
closed = 1;
nodes = (
(203,766,l),
(203,607,l),
(72,607,l)
);
}
);
};
layerId = UUID0;
shapes = (
{
pos = (0,462);
ref = four.dnom;
}
);
width = 328;
},
{
background = {
shapes = (
{
closed = 1;
nodes = (
(263,463,l),
(263,554,l),
(306,554,l),
(306,633,l),
(263,633,l),
(263,822,l),
(182,822,l),
(25,625,l),
(25,554,l),
(171,554,l),
(171,463,l)
);
},
{
closed = 1;
nodes = (
(171,696,l),
(171,633,l),
(123,633,l)
);
}
);
};
layerId = "ECACF70C-BE42-4FA5-B3A0-AFDA71FB1D31";
shapes = (
{
pos = (0,463);
ref = four.dnom;
}
);
width = 343;
}
);
unicode = 8308;
},
{
glyphname = five.superior;
kernLeft = tilde;
kernRight = tilde;
lastChange = "2016-08-31 15:19:51 +0000";
layers = (
{
background = {
shapes = (
{
closed = 1;
nodes = (
(218,459,o),
(280,479,o),
(280,573,cs),
(280,667,o),
(218,686,o),
(166,686,cs),
(137,686,o),
(114,682,o),
(96,677,c),
(106,783,l),
(257,783,l),
(257,822,l),
(73,822,l),
(55,656,l),
(79,631,l),
(79,631,o),
(106,648,o),
(163,648,cs),
(201,648,o),
(242,640,o),
(242,573,cs),
(242,540,o),
(237,496,o),
(163,496,cs),
(111,496,o),
(78,512,o),
(63,521,c),
(63,481,l),
(85,469,o),
(118,459,o),
(166,459,cs)
);
}
);
};
layerId = UUID0;
shapes = (
{
pos = (0,462);
ref = five.dnom;
}
);
width = 319;
},
{
background = {
shapes = (
{
closed = 1;
nodes = (
(232,458,o),
(297,482,o),
(297,575,cs),
(297,669,o),
(247,709,o),
(170,709,cs),
(160,709,o),
(152,709,o),
(144,708,c),
(146,739,l),
(278,739,l),
(278,822,l),
(66,822,l),
(46,648,l),
(97,611,l),
(97,611,o),
(123,628,o),
(162,627,cs),
(186,627,o),
(205,613,o),
(205,583,cs),
(205,564,o),
(192,540,o),
(158,540,cs),
(122,540,o),
(82,558,o),
(54,576,c),
(54,488,l),
(86,473,o),
(125,458,o),
(171,458,cs)
);
}
);
};
layerId = "ECACF70C-BE42-4FA5-B3A0-AFDA71FB1D31";
shapes = (
{
pos = (0,472);
ref = five.dnom;
}
);
width = 326;
}
);
unicode = 8309;
},
{
glyphname = six.superior;
kernLeft = tilde;
kernRight = tilde;
lastChange = "2016-08-31 15:19:58 +0000";
layers = (
{
background = {
shapes = (
{
closed = 1;
nodes = (
(268,459,o),
(300,524,o),
(300,580,cs),
(300,649,o),
(253,692,o),
(178,692,cs),
(137,692,o),
(110,678,o),
(97,669,c),
(110,782,o),
(193,790,o),
(224,790,cs),
(242,790,o),
(258,787,o),
(272,783,c),
(272,819,l),
(257,823,o),
(239,826,o),
(220,826,cs),
(170,826,o),
(56,807,o),
(56,627,cs),
(56,515,o),
(97,459,o),
(178,459,cs)
);
},
{
closed = 1;
nodes = (
(153,495,o),
(96,495,o),
(95,626,c),
(104,635,o),
(130,656,o),
(178,656,cs),
(232,656,o),
(261,629,o),
(261,580,cs),
(261,560,o),
(255,495,o),
(178,495,cs)
);
}
);
};
layerId = UUID0;
shapes = (
{
pos = (0,462);
ref = six.dnom;
}
);
width = 338;
},
{
background = {
shapes = (
{
closed = 1;
nodes = (
(279,458,o),
(314,528,o),
(314,589,cs),
(314,685,o),
(248,699,o),
(190,699,cs),
(185,699,o),
(152,697,o),
(140,692,c),
(145,733,o),
(190,747,o),
(224,747,cs),
(237,747,o),
(257,745,o),
(289,735,c),
(289,813,l),
(273,821,o),
(243,826,o),
(216,826,cs),
(165,826,o),
(49,807,o),
(49,628,cs),
(49,516,o),
(94,458,o),
(182,458,cs)
);
},
{
closed = 1;
nodes = (
(161,538,o),
(140,567,o),
(141,635,c),
(151,639,o),
(165,641,o),
(181,641,cs),
(211,641,o),
(221,612,o),
(221,589,cs),
(221,579,o),
(218,538,o),
(182,538,cs)
);
}
);
};
layerId = "ECACF70C-BE42-4FA5-B3A0-AFDA71FB1D31";
shapes = (
{
pos = (0,463);
ref = six.dnom;
}
);
width = 347;
}
);
unicode = 8310;
},
{
glyphname = seven.superior;
kernLeft = tilde;
kernRight = tilde;
lastChange = "2016-08-31 15:20:10 +0000";
layers = (
{
background = {
shapes = (
{
closed = 1;
nodes = (
(129,463,l),
(284,785,l),
(284,822,l),
(40,822,l),
(40,783,l),
(242,783,l),
(86,463,l)
);
}
);
};
layerId = UUID0;
shapes = (
{
pos = (0,462);
ref = seven.dnom;
}
);
width = 315;
},
{
background = {
shapes = (
{
closed = 1;
nodes = (
(157,463,l),
(298,754,l),
(298,822,l),
(34,822,l),
(34,730,l),
(180,730,l),
(50,463,l)
);
}
);
};
layerId = "ECACF70C-BE42-4FA5-B3A0-AFDA71FB1D31";
shapes = (
{
pos = (0,462);
ref = seven.dnom;
}
);
width = 322;
}
);
unicode = 8311;
},
{
glyphname = eight.superior;
kernLeft = tilde;
kernRight = tilde;
lastChange = "2016-08-31 15:20:17 +0000";
layers = (
{
background = {
shapes = (
{
closed = 1;
nodes = (
(258,459,o),
(291,519,o),
(291,570,cs),
(291,635,o),
(231,657,o),
(231,657,cs),
(231,657,o),
(277,676,o),
(277,734,cs),
(277,778,o),
(248,826,o),
(167,826,cs),
(85,826,o),
(56,778,o),
(56,734,cs),
(56,677,o),
(104,657,o),
(104,657,cs),
(104,657,o),
(43,636,o),
(43,570,cs),
(43,519,o),
(75,459,o),
(167,459,cs)
);
},
{
closed = 1;
nodes = (
(88,495,o),
(81,552,o),
(81,570,cs),
(81,612,o),
(112,636,o),
(167,636,cs),
(222,636,o),
(252,612,o),
(252,570,cs),
(252,552,o),
(246,495,o),
(167,495,cs)
);
},
{
closed = 1;
nodes = (
(122,672,o),
(95,695,o),
(95,733,cs),
(95,779,o),
(134,788,o),
(167,788,cs),
(200,788,o),
(239,779,o),
(239,733,cs),
(239,695,o),
(212,672,o),
(167,672,cs)
);
}
);
};
layerId = UUID0;
shapes = (
{
pos = (0,462);
ref = eight.dnom;
}
);
width = 332;
},
{
background = {
shapes = (
{
closed = 1;
nodes = (
(255,458,o),
(306,494,o),
(306,567,cs),
(306,611,o),
(272,645,o),
(234,655,c),
(262,663,o),
(291,689,o),
(291,727,cs),
(291,794,o),
(247,826,o),
(171,826,cs),
(95,826,o),
(50,794,o),
(50,727,cs),
(50,689,o),
(80,663,o),
(108,655,c),
(70,645,o),
(36,611,o),
(36,567,cs),
(36,494,o),
(87,458,o),
(171,458,cs)
);
},
{
closed = 1;
nodes = (
(142,534,o),
(129,554,o),
(129,578,cs),
(129,593,o),
(142,614,o),
(171,614,cs),
(200,614,o),
(212,593,o),
(212,578,cs),
(212,554,o),
(200,534,o),
(171,534,cs)
);
},
{
closed = 1;
nodes = (
(158,690,o),
(140,699,o),
(140,719,cs),
(140,732,o),
(150,750,o),
(171,750,cs),
(192,750,o),
(202,732,o),
(202,719,cs),
(202,699,o),
(185,690,o),
(171,690,cs)
);
}
);
};
layerId = "ECACF70C-BE42-4FA5-B3A0-AFDA71FB1D31";
shapes = (
{
pos = (0,463);
ref = eight.dnom;
}
);
width = 343;
}
);
unicode = 8312;
},
{
glyphname = nine.superior;
kernLeft = tilde;
kernRight = tilde;
lastChange = "2016-08-31 15:20:24 +0000";
layers = (
{
background = {
shapes = (
{
closed = 1;
nodes = (
(179,459,o),
(293,478,o),
(293,658,cs),
(293,770,o),
(252,826,o),
(171,826,cs),
(81,826,o),
(49,761,o),
(49,705,cs),
(49,636,o),
(96,593,o),
(171,593,cs),
(212,593,o),
(239,607,o),
(252,616,c),
(240,503,o),
(156,495,o),
(125,495,cs),
(107,495,o),
(91,498,o),
(77,502,c),
(77,466,l),
(92,462,o),
(110,459,o),
(130,459,cs)
);
},
{
closed = 1;
nodes = (
(117,629,o),
(88,656,o),
(88,705,cs),
(88,725,o),
(94,790,o),
(171,790,cs),
(196,790,o),
(253,790,o),
(254,659,c),
(245,650,o),
(219,629,o),
(171,629,cs)
);
}
);
};
layerId = UUID0;
shapes = (
{
pos = (0,462);
ref = nine.dnom;
}
);
width = 338;
},
{
background = {
shapes = (
{
closed = 1;
nodes = (
(193,458,o),
(309,477,o),
(309,655,cs),
(309,768,o),
(264,826,o),
(177,826,cs),
(80,826,o),
(45,755,o),
(45,695,cs),
(45,598,o),
(111,585,o),
(169,585,cs),
(174,585,o),
(207,587,o),
(219,592,c),
(214,551,o),
(169,537,o),
(135,537,cs),
(121,537,o),
(102,539,o),
(69,549,c),
(69,471,l),
(86,463,o),
(116,458,o),
(142,458,cs)
);
},
{
closed = 1;
nodes = (
(148,643,o),
(138,671,o),
(138,694,cs),
(138,704,o),
(141,746,o),
(177,746,cs),
(198,746,o),
(219,716,o),
(218,649,c),
(207,644,o),
(193,643,o),
(178,643,cs)
);
}
);
};
layerId = "ECACF70C-BE42-4FA5-B3A0-AFDA71FB1D31";
shapes = (
{
pos = (0,472);
ref = nine.dnom;
}
);
width = 349;
}
);
unicode = 8313;
},
{
glyphname = period;
kernLeft = comma;
kernRight = comma;
lastChange = "2016-09-02 15:20:05 +0000";
layers = (
{
layerId = UUID0;
shapes = (
{
closed = 1;
nodes = (
(180,0,l),
(180,100,l),
(80,100,l),
(80,0,l)
);
}
);
width = 260;
},
{
layerId = "ECACF70C-BE42-4FA5-B3A0-AFDA71FB1D31";
shapes = (
{
closed = 1;
nodes = (
(214,0,l),
(214,158,l),
(50,158,l),
(50,0,l)
);
}
);
width = 264;
}
);
unicode = 46;
},
{
glyphname = comma;
kernLeft = comma;
kernRight = comma;
lastChange = "2016-08-05 09:29:49 +0000";
layers = (
{
layerId = UUID0;
shapes = (
{
closed = 1;
nodes = (
(146,-112,l),
(230,84,l),
(148,84,l),
(74,-112,l)
);
}
);
width = 313;
},
{
layerId = "ECACF70C-BE42-4FA5-B3A0-AFDA71FB1D31";
shapes = (
{
closed = 1;
nodes = (
(191,-112,l),
(287,84,l),
(148,84,l),
(74,-112,l)
);
}
);
width = 367;
}
);
unicode = 44;
},
{
glyphname = colon;
lastChange = "2016-08-05 09:29:49 +0000";
layers = (
{
layerId = UUID0;
shapes = (
{
closed = 1;
nodes = (
(238,368,l),
(238,448,l),
(158,448,l),
(158,368,l)
);
},
{
closed = 1;
nodes = (
(238,48,l),
(238,128,l),
(158,128,l),
(158,48,l)
);
}
);
width = 391;
},
{
layerId = "ECACF70C-BE42-4FA5-B3A0-AFDA71FB1D31";
shapes = (
{
closed = 1;
nodes = (
(281,327,l),
(281,465,l),
(137,465,l),
(137,327,l)
);
},
{
closed = 1;
nodes = (
(281,35,l),
(281,173,l),
(137,173,l),
(137,35,l)
);
}
);
width = 424;
}
);
unicode = 58;
},
{
glyphname = semicolon;
lastChange = "2016-09-02 14:43:54 +0000";
layers = (
{
layerId = UUID0;
shapes = (
{
closed = 1;
nodes = (
(112,-112,l),
(196,84,l),
(104,84,l),
(40,-112,l)
);
},
{
closed = 1;
nodes = (
(205,348,l),
(205,448,l),
(105,448,l),
(105,348,l)
);
}
);
width = 285;
},
{
layerId = "ECACF70C-BE42-4FA5-B3A0-AFDA71FB1D31";
shapes = (
{
closed = 1;
nodes = (
(152,-112,l),
(268,104,l),
(109,104,l),
(35,-112,l)
);
},
{
closed = 1;
nodes = (
(269,307,l),
(269,465,l),
(105,465,l),
(105,307,l)
);
}
);
width = 319;
}
);
unicode = 59;
},
{
glyphname = ellipsis;
kernLeft = comma;
kernRight = comma;
lastChange = "2016-12-13 13:06:50 +0000";
layers = (
{
layerId = UUID0;
shapes = (
{
closed = 1;
nodes = (
(187,0,l),
(187,80,l),
(107,80,l),
(107,0,l)
);
},
{
closed = 1;
nodes = (
(426,0,l),
(426,80,l),
(347,80,l),
(347,0,l)
);
},
{
closed = 1;
nodes = (
(665,0,l),
(665,80,l),
(586,80,l),
(586,0,l)
);
}
);
width = 770;
},
{
layerId = "ECACF70C-BE42-4FA5-B3A0-AFDA71FB1D31";
shapes = (
{
closed = 1;
nodes = (
(251,0,l),
(251,138,l),
(107,138,l),
(107,0,l)
);
},
{
closed = 1;
nodes = (
(525,0,l),
(525,138,l),
(381,138,l),
(381,0,l)
);
},
{
closed = 1;
nodes = (
(800,0,l),
(800,138,l),
(656,138,l),
(656,0,l)
);
}
);
width = 903;
}
);
unicode = 8230;
},
{
glyphname = exclam;
lastChange = "2016-08-05 09:29:49 +0000";
layers = (
{
layerId = UUID0;
shapes = (
{
closed = 1;
nodes = (
(217,168,l),
(224,667,l),
(152,667,l),
(159,168,l)
);
},
{
closed = 1;
nodes = (
(228,0,l),
(228,80,l),
(148,80,l),
(148,0,l)
);
}
);
width = 372;
},
{
layerId = "ECACF70C-BE42-4FA5-B3A0-AFDA71FB1D31";
shapes = (
{
closed = 1;
nodes = (
(287,191,l),
(309,667,l),
(136,667,l),
(158,191,l)
);
},
{
closed = 1;
nodes = (
(300,0,l),
(300,128,l),
(145,128,l),
(145,0,l)
);
}
);
width = 431;
}
);
unicode = 33;
},
{
glyphname = exclamdown;
lastChange = "2016-08-05 09:29:49 +0000";
layers = (
{
layerId = UUID0;
shapes = (
{
closed = 1;
nodes = (
(224,-168,l),
(217,331,l),
(159,331,l),
(152,-168,l)
);
},
{
closed = 1;
nodes = (
(228,420,l),
(228,499,l),
(148,499,l),
(148,420,l)
);
}
);
width = 362;
},
{
layerId = "ECACF70C-BE42-4FA5-B3A0-AFDA71FB1D31";
shapes = (
{
closed = 1;
nodes = (
(305,-168,l),
(283,308,l),
(154,308,l),
(132,-168,l)
);
},
{
closed = 1;
nodes = (
(296,371,l),
(296,499,l),
(141,499,l),
(141,371,l)
);
}
);
width = 431;
}
);
unicode = 161;
},
{
glyphname = question;
lastChange = "2016-08-05 09:29:49 +0000";
layers = (
{
layerId = UUID0;
shapes = (
{
closed = 1;
nodes = (
(267,168,l),
(267,212,ls),
(267,367,o),
(417,344,o),
(417,490,cs),
(417,652,o),
(283,675,o),
(219,675,cs),
(135,675,o),
(80,637,o),
(80,637,c),
(80,559,l),
(101,575,o),
(149,603,o),
(214,603,cs),
(301,603,o),
(345,563,o),
(345,490,cs),
(345,388,o),
(195,401,o),
(195,217,cs),
(195,168,l)
);
},
{
closed = 1;
nodes = (
(271,0,l),
(271,80,l),
(191,80,l),
(191,0,l)
);
}
);
width = 485;
},
{
layerId = "ECACF70C-BE42-4FA5-B3A0-AFDA71FB1D31";
shapes = (
{
closed = 1;
nodes = (
(311,192,l),
(311,202,ls),
(311,339,o),
(459,336,o),
(459,481,cs),
(459,577,o),
(407,675,o),
(252,675,cs),
(184,675,o),
(116,653,o),
(80,628,c),
(80,500,l),
(122,534,o),
(182,550,o),
(230,550,cs),
(272,550,o),
(321,545,o),
(321,482,cs),
(321,396,o),
(174,387,o),
(174,205,cs),
(174,192,l)
);
},
{
closed = 1;
nodes = (
(320,0,l),
(320,128,l),
(165,128,l),
(165,0,l)
);
}
);
width = 525;
}
);
unicode = 63;
},
{
glyphname = questiondown;
lastChange = "2016-08-05 09:29:49 +0000";
layers = (
{
layerId = UUID0;
shapes = (
{
closed = 1;
nodes = (
(354,-176,o),
(410,-138,o),
(410,-138,c),
(410,-60,l),
(388,-75,o),
(340,-104,o),
(276,-104,cs),
(188,-104,o),
(144,-63,o),
(144,10,cs),
(144,111,o),
(294,99,o),
(294,282,cs),
(294,332,l),
(222,332,l),
(222,287,ls),
(222,132,o),
(72,155,o),
(72,10,cs),
(72,-152,o),
(206,-176,o),
(270,-176,cs)
);
},
{
closed = 1;
nodes = (
(298,420,l),
(298,499,l),
(218,499,l),
(218,420,l)
);
}
);
width = 483;
},
{
layerId = "ECACF70C-BE42-4FA5-B3A0-AFDA71FB1D31";
shapes = (
{
closed = 1;
nodes = (
(355,-176,o),
(423,-154,o),
(459,-129,c),
(459,-1,l),
(417,-35,o),
(357,-51,o),
(309,-51,cs),
(267,-51,o),
(218,-46,o),
(218,17,cs),
(218,103,o),
(365,112,o),
(365,294,cs),
(365,307,l),
(228,307,l),
(228,297,ls),
(228,160,o),
(80,163,o),
(80,18,cs),
(80,-78,o),
(132,-176,o),
(287,-176,cs)
);
},
{
closed = 1;
nodes = (
(374,371,l),
(374,499,l),
(219,499,l),
(219,371,l)
);
}
);
width = 525;
}
);
unicode = 191;
},
{
glyphname = periodcentered;
lastChange = "2016-08-18 15:46:51 +0000";
layers = (
{
anchors = (
{
name = _center;
pos = (163,275);
}
);
layerId = UUID0;
shapes = (
{
closed = 1;
nodes = (
(195,232,l),
(195,312,l),
(116,312,l),
(116,232,l)
);
}
);
width = 311;
},
{
anchors = (
{
name = _center;
pos = (176,276);
}
);
layerId = "ECACF70C-BE42-4FA5-B3A0-AFDA71FB1D31";
shapes = (
{
closed = 1;
nodes = (
(249,205,l),
(249,343,l),
(105,343,l),
(105,205,l)
);
}
);
width = 362;
}
);
unicode = 183;
},
{
glyphname = bullet;
lastChange = "2016-08-05 09:29:49 +0000";
layers = (
{
layerId = UUID0;
shapes = (
{
closed = 1;
nodes = (
(269,218,o),
(321,270,o),
(321,334,cs),
(321,398,o),
(269,449,o),
(206,449,cs),
(142,449,o),
(90,398,o),
(90,334,cs),
(90,270,o),
(142,218,o),
(206,218,cs)
);
}
);
width = 415;
},
{
layerId = "ECACF70C-BE42-4FA5-B3A0-AFDA71FB1D31";
shapes = (
{
closed = 1;
nodes = (
(366,144,o),
(446,224,o),
(446,325,cs),
(446,426,o),
(366,506,o),
(266,506,cs),
(166,506,o),
(84,426,o),
(84,325,cs),
(84,224,o),
(166,144,o),
(266,144,cs)
);
}
);
width = 530;
}
);
unicode = 8226;
},
{
glyphname = asterisk;
lastChange = "2016-08-05 09:29:49 +0000";
layers = (
{
layerId = UUID0;
shapes = (
{
closed = 1;
nodes = (
(231,460,l),
(223,550,l),
(298,495,l),
(325,543,l),
(239,581,l),
(325,620,l),
(298,666,l),
(223,612,l),
(231,703,l),
(177,703,l),
(187,612,l),
(111,666,l),
(84,620,l),
(171,581,l),
(84,543,l),
(111,495,l),
(187,550,l),
(177,460,l)
);
}
);
width = 411;
},
{
layerId = "ECACF70C-BE42-4FA5-B3A0-AFDA71FB1D31";
shapes = (
{
closed = 1;
nodes = (
(248,460,l),
(243,524,l),
(296,485,l),
(334,553,l),
(258,581,l),
(334,609,l),
(296,677,l),
(243,638,l),
(248,702,l),
(170,702,l),
(176,638,l),
(122,677,l),
(84,609,l),
(161,581,l),
(84,553,l),
(122,485,l),
(176,524,l),
(170,460,l)
);
}
);
width = 413;
}
);
unicode = 42;
},
{
glyphname = numbersign;
lastChange = "2016-08-31 15:26:57 +0000";
layers = (
{
layerId = UUID0;
shapes = (
{
closed = 1;
nodes = (
(195,19,l),
(214,126,l),
(346,126,l),
(328,19,l),
(389,19,l),
(407,126,l),
(498,126,l),
(498,186,l),
(417,186,l),
(445,345,l),
(527,345,l),
(527,405,l),
(455,405,l),
(476,523,l),
(415,523,l),
(394,405,l),
(262,405,l),
(282,523,l),
(221,523,l),
(201,405,l),
(99,405,l),
(99,345,l),
(190,345,l),
(163,186,l),
(71,186,l),
(71,126,l),
(153,126,l),
(134,19,l)
);
},
{
closed = 1;
nodes = (
(251,345,l),
(384,345,l),
(356,186,l),
(224,186,l)
);
}
);
width = 591;
},
{
layerId = "ECACF70C-BE42-4FA5-B3A0-AFDA71FB1D31";
shapes = (
{
closed = 1;
nodes = (
(223,19,l),
(240,121,l),
(347,121,l),
(329,19,l),
(425,19,l),
(443,121,l),
(528,121,l),
(528,212,l),
(458,212,l),
(479,330,l),
(554,330,l),
(554,420,l),
(493,420,l),
(512,522,l),
(416,522,l),
(398,420,l),
(292,420,l),
(310,522,l),
(214,522,l),
(196,420,l),
(101,420,l),
(101,330,l),
(181,330,l),
(160,212,l),
(74,212,l),
(74,121,l),
(146,121,l),
(127,19,l)
);
},
{
closed = 1;
nodes = (
(277,330,l),
(383,330,l),
(364,212,l),
(256,212,l)
);
}
);
width = 629;
}
);
unicode = 35;
},
{
glyphname = slash;
lastChange = "2016-08-05 09:29:49 +0000";
layers = (
{
layerId = UUID0;
shapes = (
{
closed = 1;
nodes = (
(51,-98,l),
(419,756,l),
(353,756,l),
(-14,-98,l)
);
}
);
width = 404;
},
{
layerId = "ECACF70C-BE42-4FA5-B3A0-AFDA71FB1D31";
shapes = (
{
closed = 1;
nodes = (
(110,-98,l),
(478,756,l),
(353,756,l),
(-14,-98,l)
);
}
);
width = 463;
}
);
unicode = 47;
},
{
glyphname = backslash;
lastChange = "2016-08-05 09:29:49 +0000";
layers = (
{
layerId = UUID0;
shapes = (
{
closed = 1;
nodes = (
(396,-98,l),
(29,756,l),
(-37,756,l),
(331,-98,l)
);
}
);
width = 368;
},
{
layerId = "ECACF70C-BE42-4FA5-B3A0-AFDA71FB1D31";
shapes = (
{
closed = 1;
nodes = (
(455,-98,l),
(88,756,l),
(-37,756,l),
(331,-98,l)
);
}
);
width = 430;
}
);
unicode = 92;
},
{
glyphname = hyphen;
kernLeft = endash;
kernRight = endash;
lastChange = "2016-08-05 09:29:49 +0000";
layers = (
{
layerId = UUID0;
shapes = (
{
closed = 1;
nodes = (
(384,263,l),
(384,333,l),
(79,333,l),
(79,263,l)
);
}
);
width = 464;
},
{
layerId = "ECACF70C-BE42-4FA5-B3A0-AFDA71FB1D31";
shapes = (
{
closed = 1;
nodes = (
(384,251,l),
(384,368,l),
(79,368,l),
(79,251,l)
);
}
);
width = 464;
}
);
unicode = 45;
},
{
glyphname = endash;
kernLeft = endash;
kernRight = endash;
lastChange = "2016-08-05 09:29:49 +0000";
layers = (
{
layerId = UUID0;
shapes = (
{
closed = 1;
nodes = (
(489,258,l),
(489,320,l),
(69,320,l),
(69,258,l)
);
}
);
width = 560;
},
{
layerId = "ECACF70C-BE42-4FA5-B3A0-AFDA71FB1D31";
shapes = (
{
closed = 1;
nodes = (
(489,232,l),
(489,349,l),
(69,349,l),
(69,232,l)
);
}
);
width = 560;
}
);
unicode = 8211;
},
{
glyphname = emdash;
lastChange = "2016-08-05 09:29:49 +0000";
layers = (
{
layerId = UUID0;
shapes = (
{
closed = 1;
nodes = (
(812,258,l),
(812,324,l),
(79,324,l),
(79,258,l)
);
}
);
width = 891;
},
{
layerId = "ECACF70C-BE42-4FA5-B3A0-AFDA71FB1D31";
shapes = (
{
closed = 1;
nodes = (
(812,232,l),
(812,349,l),
(79,349,l),
(79,232,l)
);
}
);
width = 891;
}
);
unicode = 8212;
},
{
glyphname = underscore;
lastChange = "2016-08-05 09:29:49 +0000";
layers = (
{
layerId = UUID0;
shapes = (
{
closed = 1;
nodes = (
(546,-68,l),
(546,-24,l),
(0,-24,l),
(0,-68,l)
);
}
);
width = 546;
},
{
layerId = "ECACF70C-BE42-4FA5-B3A0-AFDA71FB1D31";
shapes = (
{
closed = 1;
nodes = (
(546,-126,l),
(546,-24,l),
(0,-24,l),
(0,-126,l)
);
}
);
width = 546;
}
);
unicode = 95;
},
{
glyphname = parenleft;
kernLeft = b;
lastChange = "2016-08-31 19:20:55 +0000";
layers = (
{
layerId = UUID0;
shapes = (
{
closed = 1;
nodes = (
(280,-113,l),
(256,-74,o),
(165,94,o),
(165,305,cs),
(165,517,o),
(256,684,o),
(280,724,c),
(204,724,l),
(165,654,o),
(93,498,o),
(93,305,cs),
(93,113,o),
(165,-43,o),
(204,-113,c)
);
}
);
width = 345;
},
{
layerId = "ECACF70C-BE42-4FA5-B3A0-AFDA71FB1D31";
shapes = (
{
closed = 1;
nodes = (
(343,-113,l),
(302,-31,o),
(240,121,o),
(240,306,cs),
(240,490,o),
(302,643,o),
(343,724,c),
(198,724,l),
(117,643,o),
(35,490,o),
(35,306,cs),
(35,121,o),
(117,-31,o),
(198,-113,c)
);
}
);
width = 358;
}
);
unicode = 40;
},
{
glyphname = parenright;
kernRight = d;
lastChange = "2016-08-31 19:21:03 +0000";
layers = (
{
layerId = UUID0;
shapes = (
{
closed = 1;
nodes = (
(142,-113,l),
(181,-43,o),
(253,113,o),
(253,306,cs),
(253,498,o),
(181,654,o),
(142,724,c),
(65,724,l),
(89,685,o),
(181,517,o),
(181,306,cs),
(181,94,o),
(89,-73,o),
(65,-113,c)
);
}
);
width = 345;
},
{
layerId = "ECACF70C-BE42-4FA5-B3A0-AFDA71FB1D31";
shapes = (
{
closed = 1;
nodes = (
(160,-113,l),
(241,-32,o),
(323,121,o),
(323,305,cs),
(323,490,o),
(241,642,o),
(160,724,c),
(15,724,l),
(56,642,o),
(118,490,o),
(118,305,cs),
(118,121,o),
(56,-32,o),
(15,-113,c)
);
}
);
width = 358;
}
);
unicode = 41;
},
{
glyphname = braceleft;
lastChange = "2016-08-31 19:20:09 +0000";
layers = (
{
layerId = UUID0;
shapes = (
{
closed = 1;
nodes = (
(312,-110,l),
(312,-43,l),
(304,-43,l),
(255,-41,o),
(226,-26,o),
(226,35,cs),
(226,196,ls),
(226,239,o),
(202,270,o),
(168,293,c),
(202,316,o),
(226,348,o),
(226,390,cs),
(226,551,ls),
(226,613,o),
(255,627,o),
(304,629,c),
(312,629,l),
(312,697,l),
(304,697,l),
(207,697,o),
(154,643,o),
(154,546,cs),
(154,390,ls),
(154,344,o),
(118,325,o),
(91,318,c),
(91,269,l),
(118,261,o),
(154,242,o),
(154,196,cs),
(154,40,ls),
(154,-57,o),
(207,-110,o),
(304,-110,c)
);
}
);
width = 373;
},
{
layerId = "ECACF70C-BE42-4FA5-B3A0-AFDA71FB1D31";
shapes = (
{
closed = 1;
nodes = (
(365,-109,l),
(365,51,l),
(343,51,ls),
(295,51,o),
(295,85,o),
(295,117,cs),
(295,188,ls),
(295,254,o),
(246,285,o),
(200,295,c),
(246,305,o),
(295,336,o),
(295,402,cs),
(295,473,ls),
(295,505,o),
(295,539,o),
(343,539,cs),
(365,539,l),
(365,699,l),
(335,699,ls),
(145,699,o),
(95,630,o),
(95,540,cs),
(95,408,ls),
(95,362,o),
(45,353,o),
(45,353,c),
(45,237,l),
(45,237,o),
(95,228,o),
(95,182,cs),
(95,50,ls),
(95,-40,o),
(145,-109,o),
(335,-109,cs)
);
}
);
width = 400;
}
);
unicode = 123;
},
{
glyphname = braceright;
lastChange = "2016-08-31 19:20:24 +0000";
layers = (
{
layerId = UUID0;
shapes = (
{
closed = 1;
nodes = (
(76,-110,l),
(173,-110,o),
(226,-57,o),
(226,40,cs),
(226,196,ls),
(226,242,o),
(262,261,o),
(289,269,c),
(289,318,l),
(262,325,o),
(226,344,o),
(226,390,cs),
(226,546,ls),
(226,643,o),
(173,697,o),
(76,697,c),
(70,697,l),
(70,629,l),
(76,629,l),
(126,627,o),
(154,613,o),
(154,551,cs),
(154,390,ls),
(154,348,o),
(179,316,o),
(213,293,c),
(179,270,o),
(154,239,o),
(154,196,cs),
(154,35,ls),
(154,-26,o),
(126,-41,o),
(76,-43,c),
(70,-43,l),
(70,-110,l)
);
}
);
width = 368;
},
{
layerId = "ECACF70C-BE42-4FA5-B3A0-AFDA71FB1D31";
shapes = (
{
closed = 1;
nodes = (
(75,-109,ls),
(265,-109,o),
(315,-40,o),
(315,50,cs),
(315,182,ls),
(315,228,o),
(365,237,o),
(365,237,c),
(365,353,l),
(365,353,o),
(315,362,o),
(315,408,cs),
(315,540,ls),
(315,630,o),
(265,699,o),
(75,699,cs),
(45,699,l),
(45,539,l),
(67,539,ls),
(115,539,o),
(115,505,o),
(115,473,cs),
(115,402,ls),
(115,336,o),
(164,305,o),
(210,295,c),
(164,285,o),
(115,254,o),
(115,188,cs),
(115,117,ls),
(115,85,o),
(115,51,o),
(67,51,cs),
(45,51,l),
(45,-109,l)
);
}
);
width = 393;
}
);
unicode = 125;
},
{
glyphname = bracketleft;
kernLeft = h;
kernRight = i;
lastChange = "2016-08-31 19:17:46 +0000";
layers = (
{
layerId = UUID0;
shapes = (
{
closed = 1;
nodes = (
(300,-116,l),
(300,-48,l),
(191,-48,l),
(191,628,l),
(300,628,l),
(300,696,l),
(119,696,l),
(119,-116,l)
);
}
);
width = 383;
},
{
layerId = "ECACF70C-BE42-4FA5-B3A0-AFDA71FB1D31";
shapes = (
{
closed = 1;
nodes = (
(367,-116,l),
(367,45,l),
(265,45,l),
(265,536,l),
(367,536,l),
(367,696,l),
(65,696,l),
(65,-116,l)
);
}
);
width = 402;
}
);
unicode = 91;
},
{
glyphname = bracketright;
kernLeft = h;
kernRight = i;
lastChange = "2016-08-31 19:18:00 +0000";
layers = (
{
layerId = UUID0;
shapes = (
{
closed = 1;
nodes = (
(264,-116,l),
(264,696,l),
(84,696,l),
(84,628,l),
(192,628,l),
(192,-48,l),
(84,-48,l),
(84,-116,l)
);
}
);
width = 381;
},
{
layerId = "ECACF70C-BE42-4FA5-B3A0-AFDA71FB1D31";
shapes = (
{
closed = 1;
nodes = (
(367,-116,l),
(367,696,l),
(65,696,l),
(65,535,l),
(167,535,l),
(167,44,l),
(65,44,l),
(65,-116,l)
);
}
);
width = 415;
}
);
unicode = 93;
},
{
glyphname = quotesinglbase;
kernLeft = comma;
kernRight = comma;
lastChange = "2016-08-05 09:29:49 +0000";
layers = (
{
layerId = UUID0;
shapes = (
{
closed = 1;
nodes = (
(144,-112,l),
(227,84,l),
(146,84,l),
(72,-112,l)
);
}
);
width = 300;
},
{
layerId = "ECACF70C-BE42-4FA5-B3A0-AFDA71FB1D31";
shapes = (
{
closed = 1;
nodes = (
(189,-112,l),
(285,84,l),
(146,84,l),
(72,-112,l)
);
}
);
width = 341;
}
);
unicode = 8218;
},
{
glyphname = quotedblbase;
kernLeft = comma;
kernRight = comma;
lastChange = "2016-08-05 09:29:49 +0000";
layers = (
{
layerId = UUID0;
shapes = (
{
closed = 1;
nodes = (
(280,-112,l),
(364,84,l),
(282,84,l),
(208,-112,l)
);
},
{
closed = 1;
nodes = (
(144,-112,l),
(227,84,l),
(146,84,l),
(72,-112,l)
);
}
);
width = 436;
},
{
layerId = "ECACF70C-BE42-4FA5-B3A0-AFDA71FB1D31";
shapes = (
{
closed = 1;
nodes = (
(363,-112,l),
(459,84,l),
(320,84,l),
(246,-112,l)
);
},
{
closed = 1;
nodes = (
(189,-112,l),
(285,84,l),
(146,84,l),
(72,-112,l)
);
}
);
width = 516;
}
);
unicode = 8222;
},
{
glyphname = quotedblleft;
kernLeft = quoteleft;
kernRight = quoteleft;
lastChange = "2016-08-05 09:29:49 +0000";
layers = (
{
layerId = UUID0;
shapes = (
{
closed = 1;
nodes = (
(339,480,l),
(265,676,l),
(183,676,l),
(267,480,l)
);
},
{
closed = 1;
nodes = (
(203,480,l),
(129,676,l),
(47,676,l),
(131,480,l)
);
}
);
width = 391;
},
{
layerId = "ECACF70C-BE42-4FA5-B3A0-AFDA71FB1D31";
shapes = (
{
closed = 1;
nodes = (
(435,480,l),
(361,676,l),
(222,676,l),
(318,480,l)
);
},
{
closed = 1;
nodes = (
(261,480,l),
(187,676,l),
(48,676,l),
(144,480,l)
);
}
);
width = 479;
}
);
unicode = 8220;
},
{
glyphname = quotedblright;
kernLeft = quoteleft;
kernRight = quoteleft;
lastChange = "2016-08-05 09:29:49 +0000";
layers = (
{
layerId = UUID0;
shapes = (
{
closed = 1;
nodes = (
(255,480,l),
(339,676,l),
(257,676,l),
(183,480,l)
);
},
{
closed = 1;
nodes = (
(119,480,l),
(203,676,l),
(121,676,l),
(47,480,l)
);
}
);
width = 387;
},
{
layerId = "ECACF70C-BE42-4FA5-B3A0-AFDA71FB1D31";
shapes = (
{
closed = 1;
nodes = (
(339,480,l),
(435,676,l),
(296,676,l),
(222,480,l)
);
},
{
closed = 1;
nodes = (
(165,480,l),
(261,676,l),
(122,676,l),
(48,480,l)
);
}
);
width = 479;
}
);
unicode = 8221;
},
{
glyphname = quoteleft;
kernLeft = quoteleft;
kernRight = quoteleft;
lastChange = "2016-08-05 09:29:49 +0000";
layers = (
{
layerId = UUID0;
shapes = (
{
closed = 1;
nodes = (
(203,480,l),
(129,676,l),
(47,676,l),
(131,480,l)
);
}
);
width = 255;
},
{
layerId = "ECACF70C-BE42-4FA5-B3A0-AFDA71FB1D31";
shapes = (
{
closed = 1;
nodes = (
(260,480,l),
(186,676,l),
(47,676,l),
(143,480,l)
);
}
);
width = 301;
}
);
unicode = 8216;
},
{
glyphname = quoteright;
kernLeft = quoteleft;
kernRight = quoteleft;
lastChange = "2016-08-05 09:29:49 +0000";
layers = (
{
layerId = UUID0;
shapes = (
{
closed = 1;
nodes = (
(119,480,l),
(203,676,l),
(121,676,l),
(47,480,l)
);
}
);
width = 255;
},
{
layerId = "ECACF70C-BE42-4FA5-B3A0-AFDA71FB1D31";
shapes = (
{
closed = 1;
nodes = (
(164,480,l),
(260,676,l),
(121,676,l),
(47,480,l)
);
}
);
width = 301;
}
);
unicode = 8217;
},
{
glyphname = guillemotleft;
kernLeft = guillemotleft;
kernRight = guillemotleft;
lastChange = "2016-08-05 09:29:49 +0000";
layers = (
{
layerId = UUID0;
shapes = (
{
closed = 1;
nodes = (
(487,64,l),
(309,255,l),
(487,445,l),
(390,445,l),
(221,255,l),
(390,64,l)
);
},
{
closed = 1;
nodes = (
(297,64,l),
(119,255,l),
(297,445,l),
(200,445,l),
(31,255,l),
(200,64,l)
);
}
);
width = 553;
},
{
layerId = "ECACF70C-BE42-4FA5-B3A0-AFDA71FB1D31";
shapes = (
{
closed = 1;
nodes = (
(610,64,l),
(428,255,l),
(610,445,l),
(445,445,l),
(276,255,l),
(445,64,l)
);
},
{
closed = 1;
nodes = (
(368,64,l),
(186,255,l),
(368,445,l),
(203,445,l),
(34,255,l),
(203,64,l)
);
}
);
width = 658;
}
);
unicode = 171;
},
{
glyphname = guillemotright;
kernLeft = guillemotright;
kernRight = guillemotright;
lastChange = "2016-08-05 09:29:49 +0000";
layers = (
{
layerId = UUID0;
shapes = (
{
closed = 1;
nodes = (
(353,64,l),
(523,255,l),
(353,445,l),
(257,445,l),
(434,255,l),
(257,64,l)
);
},
{
closed = 1;
nodes = (
(163,64,l),
(333,255,l),
(163,445,l),
(67,445,l),
(244,255,l),
(67,64,l)
);
}
);
width = 553;
},
{
layerId = "ECACF70C-BE42-4FA5-B3A0-AFDA71FB1D31";
shapes = (
{
closed = 1;
nodes = (
(459,64,l),
(628,255,l),
(459,445,l),
(294,445,l),
(476,255,l),
(294,64,l)
);
},
{
closed = 1;
nodes = (
(217,64,l),
(386,255,l),
(217,445,l),
(52,445,l),
(234,255,l),
(52,64,l)
);
}
);
width = 671;
}
);
unicode = 187;
},
{
glyphname = guilsinglleft;
kernLeft = guillemotleft;
kernRight = guillemotleft;
lastChange = "2016-08-05 09:29:49 +0000";
layers = (
{
layerId = UUID0;
shapes = (
{
closed = 1;
nodes = (
(297,64,l),
(119,255,l),
(297,445,l),
(200,445,l),
(31,255,l),
(200,64,l)
);
}
);
width = 347;
},
{
layerId = "ECACF70C-BE42-4FA5-B3A0-AFDA71FB1D31";
shapes = (
{
closed = 1;
nodes = (
(365,64,l),
(183,255,l),
(365,445,l),
(200,445,l),
(31,255,l),
(200,64,l)
);
}
);
width = 400;
}
);
unicode = 8249;
},
{
glyphname = guilsinglright;
kernLeft = guillemotright;
kernRight = guillemotright;
lastChange = "2016-08-05 09:29:49 +0000";
layers = (
{
layerId = UUID0;
shapes = (
{
closed = 1;
nodes = (
(163,64,l),
(333,255,l),
(163,445,l),
(67,445,l),
(244,255,l),
(67,64,l)
);
}
);
width = 379;
},
{
layerId = "ECACF70C-BE42-4FA5-B3A0-AFDA71FB1D31";
shapes = (
{
closed = 1;
nodes = (
(204,64,l),
(373,255,l),
(204,445,l),
(39,445,l),
(221,255,l),
(39,64,l)
);
}
);
width = 412;
}
);
unicode = 8250;
},
{
glyphname = quotedbl;
kernLeft = tilde;
kernRight = tilde;
lastChange = "2016-08-05 09:29:49 +0000";
layers = (
{
layerId = UUID0;
shapes = (
{
closed = 1;
nodes = (
(280,475,l),
(298,676,l),
(215,676,l),
(232,475,l)
);
},
{
closed = 1;
nodes = (
(147,475,l),
(164,676,l),
(81,676,l),
(99,475,l)
);
}
);
width = 381;
},
{
layerId = "ECACF70C-BE42-4FA5-B3A0-AFDA71FB1D31";
shapes = (
{
closed = 1;
nodes = (
(340,475,l),
(357,676,l),
(233,676,l),
(251,475,l)
);
},
{
closed = 1;
nodes = (
(188,475,l),
(205,676,l),
(81,676,l),
(99,475,l)
);
}
);
width = 439;
}
);
unicode = 34;
},
{
glyphname = quotesingle;
kernLeft = tilde;
kernRight = tilde;
lastChange = "2016-08-05 09:29:49 +0000";
layers = (
{
layerId = UUID0;
shapes = (
{
closed = 1;
nodes = (
(147,475,l),
(164,676,l),
(81,676,l),
(99,475,l)
);
}
);
width = 249;
},
{
layerId = "ECACF70C-BE42-4FA5-B3A0-AFDA71FB1D31";
shapes = (
{
closed = 1;
nodes = (
(188,475,l),
(205,676,l),
(81,676,l),
(99,475,l)
);
}
);
width = 285;
}
);
unicode = 39;
},
{
glyphname = florin;
kernLeft = f;
lastChange = "2016-08-31 15:28:53 +0000";
layers = (
{
layerId = UUID0;
shapes = (
{
closed = 1;
nodes = (
(80,-122,o),
(201,-122,o),
(201,61,cs),
(201,433,l),
(322,433,l),
(322,499,l),
(201,499,l),
(201,509,ls),
(201,625,o),
(258,625,o),
(304,625,cs),
(310,625,o),
(316,624,o),
(322,624,c),
(322,689,l),
(313,690,o),
(303,691,o),
(292,691,cs),
(252,691,o),
(131,691,o),
(131,508,cs),
(131,499,l),
(44,499,l),
(44,433,l),
(131,433,l),
(131,60,ls),
(131,-56,o),
(74,-56,o),
(28,-56,cs),
(21,-56,o),
(15,-56,o),
(10,-55,c),
(10,-120,l),
(19,-122,o),
(29,-122,o),
(40,-122,cs)
);
}
);
width = 330;
},
{
layerId = "ECACF70C-BE42-4FA5-B3A0-AFDA71FB1D31";
shapes = (
{
closed = 1;
nodes = (
(185,-123,o),
(244,-56,o),
(244,71,cs),
(244,392,l),
(354,392,l),
(354,505,l),
(244,505,l),
(244,517,ls),
(244,571,o),
(283,582,o),
(318,582,cs),
(326,582,o),
(340,581,o),
(354,577,c),
(354,684,l),
(340,688,o),
(305,690,o),
(289,690,cs),
(178,690,o),
(120,631,o),
(114,517,c),
(114,505,l),
(30,505,l),
(30,392,l),
(114,392,l),
(114,71,ls),
(114,-15,o),
(77,-15,o),
(40,-15,cs),
(36,-15,o),
(31,-15,o),
(4,-12,c),
(4,-117,l),
(29,-122,o),
(56,-123,o),
(70,-123,cs)
);
}
);
width = 360;
}
);
unicode = 402;
},
{
glyphname = at;
lastChange = "2016-08-31 15:33:01 +0000";
layers = (
{
layerId = UUID0;
shapes = (
{
closed = 1;
nodes = (
(490,-149,o),
(559,-137,o),
(618,-109,c),
(627,-64,l),
(571,-96,o),
(505,-113,o),
(417,-113,cs),
(354,-113,o),
(122,-85,o),
(122,181,cs),
(122,397,o),
(313,564,o),
(511,564,cs),
(642,564,o),
(803,473,o),
(803,275,cs),
(803,134,o),
(733,67,o),
(682,67,cs),
(630,67,o),
(621,100,o),
(625,148,cs),
(628,192,o),
(641,250,o),
(641,307,cs),
(641,396,o),
(587,443,o),
(486,443,cs),
(442,443,o),
(402,434,o),
(369,423,c),
(361,365,l),
(390,376,o),
(430,386,o),
(486,386,cs),
(576,386,o),
(583,345,o),
(583,307,cs),
(583,300,o),
(583,293,o),
(582,286,c),
(559,289,o),
(534,291,o),
(508,291,cs),
(320,291,o),
(291,200,o),
(291,146,cs),
(291,75,o),
(347,32,o),
(441,32,cs),
(515,32,o),
(558,53,o),
(585,81,c),
(600,53,o),
(627,32,o),
(678,32,cs),
(778,32,o),
(841,137,o),
(841,278,cs),
(841,514,o),
(639,602,o),
(511,602,cs),
(309,602,o),
(83,429,o),
(83,181,cs),
(83,-60,o),
(276,-149,o),
(409,-149,cs)
);
},
{
closed = 1;
nodes = (
(399,90,o),
(349,99,o),
(349,146,cs),
(349,204,o),
(402,233,o),
(508,233,cs),
(532,233,o),
(554,232,o),
(574,229,c),
(566,167,o),
(573,90,o),
(441,90,cs)
);
}
);
width = 913;
},
{
layerId = "ECACF70C-BE42-4FA5-B3A0-AFDA71FB1D31";
shapes = (
{
closed = 1;
nodes = (
(497,-150,o),
(570,-134,o),
(626,-108,c),
(637,-35,l),
(568,-69,o),
(493,-86,o),
(408,-86,cs),
(348,-86,o),
(147,-38,o),
(147,179,cs),
(147,374,o),
(320,536,o),
(504,536,cs),
(629,536,o),
(777,441,o),
(777,275,cs),
(777,145,o),
(712,90,o),
(675,90,cs),
(636,90,o),
(635,131,o),
(635,150,cs),
(635,205,o),
(650,253,o),
(650,302,cs),
(650,401,o),
(593,452,o),
(484,452,cs),
(440,452,o),
(388,438,o),
(350,426,c),
(336,339,l),
(382,356,o),
(432,361,o),
(475,361,cs),
(533,361,o),
(550,341,o),
(554,310,cs),
(555,306,o),
(555,301,o),
(555,296,c),
(538,297,o),
(521,298,o),
(504,298,cs),
(310,298,o),
(278,211,o),
(278,151,cs),
(278,71,o),
(341,22,o),
(442,22,cs),
(512,22,o),
(559,50,o),
(578,86,c),
(587,62,o),
(615,22,o),
(665,22,cs),
(788,22,o),
(841,154,o),
(841,275,cs),
(841,513,o),
(637,602,o),
(507,602,cs),
(307,602,o),
(81,429,o),
(81,182,cs),
(81,-62,o),
(281,-150,o),
(409,-150,cs)
);
},
{
closed = 1;
nodes = (
(409,118,o),
(374,123,o),
(374,153,cs),
(374,196,o),
(418,219,o),
(504,219,cs),
(517,219,o),
(530,219,o),
(543,218,c),
(537,148,o),
(516,118,o),
(442,118,cs)
);
}
);
width = 913;
}
);
unicode = 64;
},
{
glyphname = ampersand;
lastChange = "2016-08-31 19:16:05 +0000";
layers = (
{
layerId = UUID0;
shapes = (
{
closed = 1;
nodes = (
(606,0,l),
(265,406,l),
(235,439,o),
(193,497,o),
(193,522,cs),
(193,566,o),
(230,602,o),
(276,602,cs),
(323,602,o),
(359,570,o),
(359,526,cs),
(359,491,o),
(348,456,o),
(256,407,c),
(292,363,l),
(375,411,o),
(426,453,o),
(426,527,cs),
(426,609,o),
(359,674,o),
(274,674,cs),
(191,674,o),
(123,606,o),
(123,523,cs),
(123,476,o),
(160,421,o),
(189,385,c),
(512,0,l)
);
},
{
closed = 1;
nodes = (
(344,-8,o),
(417,37,o),
(463,85,c),
(418,136,l),
(385,100,o),
(329,62,o),
(266,62,cs),
(150,62,o),
(125,152,o),
(125,186,cs),
(125,221,o),
(141,286,o),
(250,344,c),
(203,393,l),
(85,328,o),
(54,248,o),
(54,184,cs),
(54,110,o),
(111,-8,o),
(263,-8,cs)
);
},
{
closed = 1;
nodes = (
(493,131,l),
(526,185,o),
(546,246,o),
(554,290,c),
(489,290,l),
(483,267,o),
(470,221,o),
(448,182,c)
);
}
);
width = 640;
},
{
layerId = "ECACF70C-BE42-4FA5-B3A0-AFDA71FB1D31";
shapes = (
{
closed = 1;
nodes = (
(669,0,l),
(316,430,l),
(306,442,o),
(284,468,o),
(284,491,c),
(284,518,o),
(306,537,o),
(335,537,c),
(365,537,o),
(384,519,o),
(384,490,c),
(384,462,o),
(365,439,o),
(313,411,c),
(377,311,l),
(480,372,o),
(555,416,o),
(555,512,c),
(555,610,o),
(471,682,o),
(336,682,c),
(195,682,o),
(94,593,o),
(94,496,c),
(94,445,o),
(127,395,o),
(154,361,c),
(450,0,l)
);
},
{
closed = 1;
nodes = (
(374,-15,o),
(428,21,o),
(468,68,c),
(383,174,l),
(364,149,o),
(325,123,o),
(294,123,c),
(241,123,o),
(237,156,o),
(237,183,c),
(237,216,o),
(274,252,o),
(306,273,c),
(196,356,l),
(77,307,o),
(35,234,o),
(35,164,c),
(35,60,o),
(124,-15,o),
(250,-15,c)
);
},
{
closed = 1;
nodes = (
(546,136,l),
(583,191,o),
(618,261,o),
(626,309,c),
(496,309,l),
(496,309,o),
(486,254,o),
(458,223,c)
);
}
);
width = 704;
}
);
unicode = 38;
},
{
glyphname = paragraph;
kernRight = i;
lastChange = "2016-08-05 09:29:49 +0000";
layers = (
{
layerId = UUID0;
shapes = (
{
closed = 1;
nodes = (
(367,0,l),
(367,667,l),
(268,667,ls),
(119,667,o),
(38,594,o),
(38,462,cs),
(38,329,o),
(119,256,o),
(268,256,cs),
(301,256,l),
(301,0,l)
);
}
);
width = 445;
},
{
layerId = "ECACF70C-BE42-4FA5-B3A0-AFDA71FB1D31";
shapes = (
{
closed = 1;
nodes = (
(484,0,l),
(484,667,l),
(311,667,ls),
(135,667,o),
(39,581,o),
(39,425,cs),
(39,267,o),
(135,181,o),
(311,181,cs),
(350,181,l),
(350,0,l)
);
}
);
width = 529;
}
);
unicode = 182;
},
{
glyphname = section;
lastChange = "2016-08-31 15:31:59 +0000";
layers = (
{
layerId = UUID0;
shapes = (
{
closed = 1;
nodes = (
(364,-8,o),
(441,43,o),
(441,128,cs),
(441,164,o),
(425,189,o),
(406,205,c),
(450,219,o),
(492,254,o),
(492,307,cs),
(492,414,o),
(396,445,o),
(306,466,cs),
(181,495,o),
(181,525,o),
(181,545,cs),
(181,599,o),
(265,609,o),
(315,609,cs),
(375,609,o),
(422,592,o),
(454,575,c),
(454,646,l),
(417,662,o),
(368,676,o),
(309,676,cs),
(161,676,o),
(109,602,o),
(109,534,cs),
(109,500,o),
(127,478,o),
(149,464,c),
(105,450,o),
(58,420,o),
(58,355,cs),
(58,266,o),
(140,240,o),
(239,217,cs),
(360,189,o),
(369,162,o),
(369,128,cs),
(369,67,o),
(272,61,o),
(230,61,cs),
(150,61,o),
(96,82,o),
(64,102,c),
(64,28,l),
(104,8,o),
(161,-8,o),
(235,-8,cs)
);
},
{
closed = 1;
nodes = (
(331,268,o),
(293,279,o),
(256,287,cs),
(130,316,o),
(130,337,o),
(130,355,cs),
(130,396,o),
(166,413,o),
(204,420,c),
(230,411,o),
(259,403,o),
(290,396,cs),
(410,368,o),
(420,340,o),
(420,307,cs),
(420,276,o),
(394,260,o),
(363,251,c)
);
}
);
width = 543;
},
{
layerId = "ECACF70C-BE42-4FA5-B3A0-AFDA71FB1D31";
shapes = (
{
closed = 1;
nodes = (
(400,-8,o),
(484,44,o),
(484,134,cs),
(484,169,o),
(470,217,o),
(435,236,c),
(468,238,o),
(550,251,o),
(550,316,cs),
(550,402,o),
(454,437,o),
(378,462,cs),
(329,479,o),
(288,491,o),
(288,510,cs),
(288,544,o),
(346,549,o),
(371,549,cs),
(420,549,o),
(462,539,o),
(523,504,c),
(523,625,l),
(469,656,o),
(409,676,o),
(346,676,cs),
(244,676,o),
(128,647,o),
(128,529,cs),
(128,482,o),
(176,442,o),
(200,440,c),
(150,439,o),
(62,417,o),
(62,345,cs),
(62,273,o),
(123,238,o),
(187,214,cs),
(255,189,o),
(327,178,o),
(327,153,cs),
(327,124,o),
(276,116,o),
(242,116,cs),
(172,116,o),
(119,143,o),
(65,191,c),
(65,56,l),
(119,20,o),
(186,-8,o),
(265,-8,cs)
);
},
{
closed = 1;
nodes = (
(314,304,o),
(283,314,o),
(262,323,cs),
(235,334,o),
(221,342,o),
(221,349,cs),
(221,361,o),
(237,368,o),
(262,367,c),
(273,362,o),
(295,356,o),
(317,350,cs),
(352,339,o),
(390,325,o),
(390,309,cs),
(390,299,o),
(377,291,o),
(352,291,c)
);
}
);
width = 609;
}
);
unicode = 167;
},
{
glyphname = copyright;
kernLeft = copyright;
kernRight = copyright;
lastChange = "2016-08-05 09:29:49 +0000";
layers = (
{
layerId = UUID0;
shapes = (
{
closed = 1;
nodes = (
(579,-8,o),
(732,145,o),
(732,333,cs),
(732,522,o),
(579,675,o),
(390,675,cs),
(202,675,o),
(48,522,o),
(48,333,cs),
(48,145,o),
(202,-8,o),
(390,-8,cs)
);
},
{
closed = 1;
nodes = (
(440,134,o),
(480,141,o),
(518,156,c),
(518,196,l),
(482,181,o),
(444,173,o),
(404,173,cs),
(305,173,o),
(261,223,o),
(261,333,cs),
(261,444,o),
(305,493,o),
(404,493,cs),
(444,493,o),
(482,486,o),
(518,471,c),
(518,511,l),
(480,526,o),
(440,533,o),
(399,533,cs),
(279,533,o),
(219,466,o),
(219,333,cs),
(219,201,o),
(279,134,o),
(399,134,cs)
);
},
{
closed = 1;
nodes = (
(222,27,o),
(84,165,o),
(84,333,cs),
(84,502,o),
(222,640,o),
(390,640,cs),
(559,640,o),
(696,502,o),
(696,333,cs),
(696,165,o),
(559,27,o),
(390,27,cs)
);
}
);
width = 778;
},
{
layerId = "ECACF70C-BE42-4FA5-B3A0-AFDA71FB1D31";
shapes = (
{
closed = 1;
nodes = (
(578,-8,o),
(731,145,o),
(731,333,cs),
(731,522,o),
(578,675,o),
(389,675,cs),
(201,675,o),
(48,522,o),
(48,333,cs),
(48,145,o),
(201,-8,o),
(389,-8,cs)
);
},
{
closed = 1;
nodes = (
(435,134,o),
(478,145,o),
(519,162,c),
(519,249,l),
(476,229,o),
(440,221,o),
(399,221,cs),
(353,221,o),
(311,241,o),
(311,334,cs),
(311,426,o),
(353,447,o),
(399,447,cs),
(440,447,o),
(476,439,o),
(519,419,c),
(519,506,l),
(478,522,o),
(435,533,o),
(393,533,cs),
(310,533,o),
(210,499,o),
(210,334,cs),
(210,169,o),
(310,134,o),
(393,134,cs)
);
},
{
closed = 1;
nodes = (
(236,55,o),
(111,180,o),
(111,333,cs),
(111,488,o),
(236,612,o),
(389,612,cs),
(543,612,o),
(668,488,o),
(668,333,cs),
(668,180,o),
(543,55,o),
(389,55,cs)
);
}
);
width = 778;
}
);
unicode = 169;
},
{
glyphname = registered;
kernLeft = copyright;
kernRight = copyright;
lastChange = "2016-08-05 09:29:49 +0000";
layers = (
{
layerId = UUID0;
shapes = (
{
closed = 1;
nodes = (
(579,-8,o),
(732,145,o),
(732,333,cs),
(732,522,o),
(579,675,o),
(390,675,cs),
(202,675,o),
(48,522,o),
(48,333,cs),
(48,145,o),
(202,-8,o),
(390,-8,cs)
);
},
{
closed = 1;
nodes = (
(222,27,o),
(84,165,o),
(84,333,cs),
(84,502,o),
(222,640,o),
(390,640,cs),
(559,640,o),
(696,502,o),
(696,333,cs),
(696,165,o),
(559,27,o),
(390,27,cs)
);
},
{
closed = 1;
nodes = (
(308,138,l),
(308,296,l),
(408,296,l),
(509,138,l),
(559,138,l),
(452,302,l),
(470,306,o),
(542,325,o),
(542,415,cs),
(542,490,o),
(493,528,o),
(409,528,cs),
(266,528,l),
(266,138,l)
);
},
{
closed = 1;
nodes = (
(308,488,l),
(407,488,ls),
(489,488,o),
(499,448,o),
(499,412,cs),
(499,376,o),
(489,336,o),
(407,336,cs),
(308,336,l)
);
}
);
width = 778;
},
{
layerId = "ECACF70C-BE42-4FA5-B3A0-AFDA71FB1D31";
shapes = (
{
closed = 1;
nodes = (
(579,-8,o),
(732,145,o),
(732,333,cs),
(732,522,o),
(579,675,o),
(390,675,cs),
(202,675,o),
(49,522,o),
(49,333,cs),
(49,145,o),
(202,-8,o),
(390,-8,cs)
);
},
{
closed = 1;
nodes = (
(237,55,o),
(112,180,o),
(112,333,cs),
(112,488,o),
(237,612,o),
(390,612,cs),
(544,612,o),
(669,488,o),
(669,333,cs),
(669,180,o),
(544,55,o),
(390,55,cs)
);
},
{
closed = 1;
nodes = (
(344,139,l),
(344,269,l),
(385,269,l),
(457,139,l),
(569,139,l),
(475,285,l),
(520,299,o),
(554,338,o),
(554,402,cs),
(554,484,o),
(489,528,o),
(397,528,cs),
(243,528,l),
(243,139,l)
);
},
{
closed = 1;
nodes = (
(344,447,l),
(403,447,ls),
(429,447,o),
(453,427,o),
(453,395,cs),
(453,364,o),
(429,345,o),
(403,345,cs),
(344,345,l)
);
}
);
width = 778;
}
);
unicode = 174;
},
{
glyphname = trademark;
lastChange = "2016-08-05 09:29:49 +0000";
layers = (
{
layerId = UUID0;
shapes = (
{
closed = 1;
nodes = (
(408,334,l),
(408,608,l),
(526,438,l),
(644,608,l),
(644,334,l),
(680,334,l),
(680,667,l),
(641,667,l),
(526,498,l),
(411,667,l),
(372,667,l),
(372,334,l)
);
},
{
closed = 1;
nodes = (
(203,334,l),
(203,632,l),
(321,632,l),
(321,667,l),
(49,667,l),
(49,632,l),
(167,632,l),
(167,334,l)
);
}
);
width = 757;
},
{
layerId = "ECACF70C-BE42-4FA5-B3A0-AFDA71FB1D31";
shapes = (
{
closed = 1;
nodes = (
(463,334,l),
(463,540,l),
(540,429,l),
(617,540,l),
(617,334,l),
(703,334,l),
(703,667,l),
(618,667,l),
(540,553,l),
(462,667,l),
(377,667,l),
(377,334,l)
);
},
{
closed = 1;
nodes = (
(231,334,l),
(231,589,l),
(328,589,l),
(328,667,l),
(49,667,l),
(49,589,l),
(145,589,l),
(145,334,l)
);
}
);
width = 772;
}
);
unicode = 8482;
},
{
glyphname = degree;
lastChange = "2016-08-05 09:29:49 +0000";
layers = (
{
layerId = UUID0;
shapes = (
{
closed = 1;
nodes = (
(262,447,o),
(300,485,o),
(300,558,cs),
(300,630,o),
(262,669,o),
(191,669,cs),
(119,669,o),
(82,630,o),
(82,558,cs),
(82,485,o),
(119,447,o),
(191,447,cs)
);
},
{
closed = 1;
nodes = (
(139,483,o),
(118,505,o),
(118,558,cs),
(118,610,o),
(139,633,o),
(191,633,cs),
(242,633,o),
(264,610,o),
(264,558,cs),
(264,505,o),
(242,483,o),
(191,483,cs)
);
}
);
width = 387;
},
{
layerId = "ECACF70C-BE42-4FA5-B3A0-AFDA71FB1D31";
shapes = (
{
closed = 1;
nodes = (
(261,448,o),
(300,487,o),
(300,558,cs),
(300,630,o),
(261,669,o),
(191,669,cs),
(121,669,o),
(82,630,o),
(82,558,cs),
(82,487,o),
(121,448,o),
(191,448,cs)
);
},
{
closed = 1;
nodes = (
(158,506,o),
(143,521,o),
(143,559,cs),
(143,596,o),
(158,611,o),
(191,611,cs),
(224,611,o),
(238,596,o),
(238,559,cs),
(238,521,o),
(224,506,o),
(191,506,cs)
);
}
);
width = 387;
}
);
unicode = 176;
},
{
glyphname = bar;
kernLeft = h;
kernRight = i;
lastChange = "2016-08-05 09:29:49 +0000";
layers = (
{
layerId = UUID0;
shapes = (
{
closed = 1;
nodes = (
(257,-99,l),
(257,665,l),
(185,665,l),
(185,-99,l)
);
}
);
width = 443;
},
{
layerId = "ECACF70C-BE42-4FA5-B3A0-AFDA71FB1D31";
shapes = (
{
closed = 1;
nodes = (
(317,-99,l),
(317,667,l),
(185,667,l),
(185,-99,l)
);
}
);
width = 491;
}
);
unicode = 124;
},
{
glyphname = brokenbar;
lastChange = "2016-10-03 15:27:03 +0000";
layers = (
{
layerId = UUID0;
shapes = (
{
closed = 1;
nodes = (
(185,219,l),
(185,-99,l),
(257,-99,l),
(257,219,l)
);
},
{
closed = 1;
nodes = (
(257,347,l),
(257,665,l),
(185,665,l),
(185,347,l)
);
}
);
width = 443;
},
{
layerId = "ECACF70C-BE42-4FA5-B3A0-AFDA71FB1D31";
shapes = (
{
closed = 1;
nodes = (
(185,217,l),
(185,-99,l),
(317,-99,l),
(317,217,l)
);
},
{
closed = 1;
nodes = (
(317,351,l),
(317,667,l),
(185,667,l),
(185,351,l)
);
}
);
width = 491;
}
);
metricLeft = bar;
metricRight = bar;
unicode = 166;
},
{
glyphname = dagger;
lastChange = "2016-08-05 09:29:49 +0000";
layers = (
{
layerId = UUID0;
shapes = (
{
closed = 1;
nodes = (
(256,97,l),
(256,484,l),
(369,484,l),
(369,532,l),
(256,532,l),
(256,667,l),
(208,667,l),
(208,532,l),
(94,532,l),
(94,484,l),
(208,484,l),
(208,97,l)
);
}
);
width = 462;
},
{
layerId = "ECACF70C-BE42-4FA5-B3A0-AFDA71FB1D31";
shapes = (
{
closed = 1;
nodes = (
(282,93,l),
(282,451,l),
(394,451,l),
(394,540,l),
(282,540,l),
(282,661,l),
(193,661,l),
(193,540,l),
(82,540,l),
(82,451,l),
(193,451,l),
(193,93,l)
);
}
);
width = 474;
}
);
unicode = 8224;
},
{
glyphname = daggerdbl;
lastChange = "2016-08-05 09:29:49 +0000";
layers = (
{
layerId = UUID0;
shapes = (
{
closed = 1;
nodes = (
(276,0,l),
(276,147,l),
(423,147,l),
(423,207,l),
(276,207,l),
(276,409,l),
(423,409,l),
(423,469,l),
(276,469,l),
(276,616,l),
(216,616,l),
(216,469,l),
(68,469,l),
(68,409,l),
(216,409,l),
(216,207,l),
(68,207,l),
(68,147,l),
(216,147,l),
(216,0,l)
);
}
);
width = 494;
},
{
layerId = "ECACF70C-BE42-4FA5-B3A0-AFDA71FB1D31";
shapes = (
{
closed = 1;
nodes = (
(306,0,l),
(306,125,l),
(431,125,l),
(431,237,l),
(306,237,l),
(306,395,l),
(431,395,l),
(431,507,l),
(306,507,l),
(306,633,l),
(194,633,l),
(194,507,l),
(68,507,l),
(68,395,l),
(194,395,l),
(194,237,l),
(68,237,l),
(68,125,l),
(194,125,l),
(194,0,l)
);
}
);
width = 504;
}
);
unicode = 8225;
},
{
glyphname = numero;
kernLeft = B;
lastChange = "2016-08-31 10:57:07 +0000";
layers = (
{
layerId = UUID0;
shapes = (
{
closed = 1;
nodes = (
(159,0,l),
(159,550,l),
(503,0,l),
(582,0,l),
(582,667,l),
(510,667,l),
(510,119,l),
(167,667,l),
(87,667,l),
(87,0,l)
);
},
{
closed = 1;
nodes = (
(993,60,l),
(993,127,l),
(672,127,l),
(672,60,l)
);
},
{
closed = 1;
nodes = (
(939,175,o),
(998,239,o),
(998,356,cs),
(998,473,o),
(939,538,o),
(832,538,cs),
(726,538,o),
(667,473,o),
(667,356,cs),
(667,239,o),
(726,175,o),
(832,175,cs)
);
},
{
closed = 1;
nodes = (
(782,240,o),
(736,254,o),
(736,356,cs),
(736,459,o),
(782,473,o),
(832,473,cs),
(883,473,o),
(929,459,o),
(929,356,cs),
(929,254,o),
(883,240,o),
(832,240,cs)
);
}
);
width = 1062;
},
{
layerId = "ECACF70C-BE42-4FA5-B3A0-AFDA71FB1D31";
shapes = (
{
closed = 1;
nodes = (
(237,0,l),
(237,398,l),
(476,0,l),
(625,0,l),
(625,667,l),
(474,667,l),
(474,268,l),
(237,667,l),
(87,667,l),
(87,0,l)
);
},
{
closed = 1;
nodes = (
(1040,29,l),
(1040,144,l),
(700,144,l),
(700,29,l)
);
},
{
closed = 1;
nodes = (
(986,187,o),
(1052,257,o),
(1052,384,cs),
(1052,511,o),
(986,581,o),
(870,581,cs),
(754,581,o),
(688,511,o),
(688,384,cs),
(688,257,o),
(754,187,o),
(870,187,cs)
);
},
{
closed = 1;
nodes = (
(836,309,o),
(813,322,o),
(813,384,cs),
(813,446,o),
(836,459,o),
(870,459,cs),
(905,459,o),
(928,446,o),
(928,384,cs),
(928,322,o),
(905,309,o),
(870,309,cs)
);
}
);
width = 1132;
}
);
unicode = 8470;
},
{
glyphname = servicemark;
lastChange = "2016-08-05 09:29:49 +0000";
layers = (
{
layerId = UUID0;
shapes = (
{
closed = 1;
nodes = (
(366,334,l),
(366,608,l),
(484,438,l),
(602,608,l),
(602,334,l),
(638,334,l),
(638,667,l),
(599,667,l),
(484,497,l),
(369,667,l),
(330,667,l),
(330,334,l)
);
},
{
closed = 1;
nodes = (
(233,330,o),
(277,363,o),
(277,419,cs),
(277,546,o),
(93,506,o),
(93,579,cs),
(93,616,o),
(122,636,o),
(176,636,cs),
(210,636,o),
(237,625,o),
(256,615,c),
(256,652,l),
(234,663,o),
(206,672,o),
(172,672,cs),
(87,672,o),
(57,624,o),
(57,579,cs),
(57,467,o),
(241,516,o),
(241,419,cs),
(241,375,o),
(195,366,o),
(156,366,cs),
(111,366,o),
(80,379,o),
(60,393,c),
(60,354,l),
(84,341,o),
(116,330,o),
(158,330,cs)
);
}
);
width = 709;
},
{
layerId = "ECACF70C-BE42-4FA5-B3A0-AFDA71FB1D31";
shapes = (
{
closed = 1;
nodes = (
(427,335,l),
(427,541,l),
(504,430,l),
(580,541,l),
(580,335,l),
(666,335,l),
(666,668,l),
(582,668,l),
(504,554,l),
(425,668,l),
(341,668,l),
(341,335,l)
);
},
{
closed = 1;
nodes = (
(240,331,o),
(296,370,o),
(296,430,cs),
(296,563,o),
(142,527,o),
(142,569,cs),
(142,591,o),
(171,597,o),
(192,597,cs),
(217,597,o),
(243,589,o),
(270,573,c),
(270,649,l),
(243,663,o),
(212,672,o),
(179,672,cs),
(115,672,o),
(56,641,o),
(56,568,cs),
(56,443,o),
(209,479,o),
(209,433,cs),
(209,414,o),
(186,405,o),
(163,405,cs),
(126,405,o),
(91,418,o),
(60,444,c),
(60,363,l),
(89,343,o),
(128,331,o),
(175,331,cs)
);
}
);
width = 735;
}
);
unicode = 8480;
},
{
glyphname = Euro;
lastChange = "2016-08-05 09:29:49 +0000";
layers = (
{
layerId = UUID0;
shapes = (
{
closed = 1;
nodes = (
(493,-8,o),
(561,5,o),
(626,30,c),
(626,99,l),
(564,73,o),
(499,60,o),
(431,60,cs),
(297,60,o),
(222,113,o),
(196,228,c),
(517,228,l),
(517,288,l),
(188,288,l),
(187,302,o),
(186,318,o),
(186,334,cs),
(186,350,o),
(187,365,o),
(188,380,c),
(517,380,l),
(517,440,l),
(196,440,l),
(222,555,o),
(297,608,o),
(431,608,cs),
(499,608,o),
(564,594,o),
(626,568,c),
(626,637,l),
(561,663,o),
(493,676,o),
(423,676,cs),
(253,676,o),
(152,596,o),
(123,440,c),
(50,440,l),
(50,380,l),
(116,380,l),
(115,365,o),
(114,350,o),
(114,334,cs),
(114,318,o),
(115,303,o),
(116,288,c),
(50,288,l),
(50,228,l),
(123,228,l),
(152,71,o),
(253,-8,o),
(423,-8,cs)
);
}
);
width = 679;
},
{
layerId = "ECACF70C-BE42-4FA5-B3A0-AFDA71FB1D31";
shapes = (
{
closed = 1;
nodes = (
(512,-7,o),
(585,12,o),
(655,40,c),
(655,189,l),
(582,154,o),
(520,141,o),
(451,141,cs),
(403,141,o),
(358,154,o),
(330,199,c),
(524,199,l),
(524,292,l),
(302,292,l),
(301,305,o),
(300,319,o),
(300,334,cs),
(300,349,o),
(301,364,o),
(302,377,c),
(524,377,l),
(524,470,l),
(330,470,l),
(358,514,o),
(403,527,o),
(451,527,cs),
(520,527,o),
(582,514,o),
(655,479,c),
(655,628,l),
(585,656,o),
(512,675,o),
(441,675,cs),
(325,675,o),
(190,636,o),
(144,470,c),
(48,470,l),
(48,377,l),
(129,377,l),
(128,363,o),
(128,349,o),
(128,334,cs),
(128,319,o),
(128,305,o),
(129,292,c),
(48,292,l),
(48,199,l),
(144,199,l),
(190,32,o),
(325,-7,o),
(441,-7,cs)
);
}
);
width = 716;
}
);
unicode = 8364;
},
{
glyphname = cedi;
lastChange = "2016-08-31 10:23:27 +0000";
layers = (
{
layerId = UUID0;
shapes = (
{
closed = 1;
nodes = (
(390,640,l),
(390,749,l),
(318,749,l),
(318,640,l)
);
},
{
closed = 1;
nodes = (
(390,-98,l),
(390,21,l),
(318,21,l),
(318,-98,l)
);
},
{
ref = C;
}
);
width = 622;
},
{
layerId = "ECACF70C-BE42-4FA5-B3A0-AFDA71FB1D31";
shapes = (
{
closed = 1;
nodes = (
(440,594,l),
(440,754,l),
(308,754,l),
(308,594,l)
);
},
{
closed = 1;
nodes = (
(440,-101,l),
(440,59,l),
(308,59,l),
(308,-101,l)
);
},
{
ref = C;
}
);
width = 633;
}
);
unicode = 8373;
},
{
glyphname = cent;
lastChange = "2016-08-31 10:25:22 +0000";
layers = (
{
layerId = UUID0;
shapes = (
{
closed = 1;
nodes = (
(317,527,l),
(317,628,l),
(245,628,l),
(245,527,l)
);
},
{
closed = 1;
nodes = (
(317,0,l),
(317,81,l),
(245,81,l),
(245,0,l)
);
},
{
pos = (0,61);
ref = c;
}
);
width = 492;
},
{
layerId = "ECACF70C-BE42-4FA5-B3A0-AFDA71FB1D31";
shapes = (
{
closed = 1;
nodes = (
(367,567,l),
(367,708,l),
(235,708,l),
(235,567,l)
);
},
{
closed = 1;
nodes = (
(367,0,l),
(367,141,l),
(235,141,l),
(235,0,l)
);
},
{
pos = (0,95);
ref = c;
}
);
width = 506;
}
);
unicode = 162;
},
